SplineFontDB: 3.2
FontName: JazzCreateBubble
FullName: JazzCreateBubble Medium
FamilyName: JazzCreateBubble
Weight: Medium
Copyright: JazzCreateBubble(c)2015.
Version: 2
ItalicAngle: 0
UnderlinePosition: -150
UnderlineWidth: 50
Ascent: 800
Descent: 200
InvalidEm: 0
sfntRevision: 0x00020000
LayerCount: 2
Layer: 0 1 "Back" 1
Layer: 1 1 "Fore" 0
XUID: [1021 409 -33477464 28884]
StyleMap: 0x0040
FSType: 0
OS2Version: 4
OS2_WeightWidthSlopeOnly: 0
OS2_UseTypoMetrics: 1
CreationTime: 1424622194
ModificationTime: 1424622194
PfmFamily: 17
TTFWeight: 500
TTFWidth: 5
LineGap: 90
VLineGap: 0
Panose: 2 0 6 3 0 0 0 0 0 0
OS2TypoAscent: 800
OS2TypoAOffset: 0
OS2TypoDescent: -200
OS2TypoDOffset: 0
OS2TypoLinegap: 90
OS2WinAscent: 702
OS2WinAOffset: 0
OS2WinDescent: 89
OS2WinDOffset: 0
HheadAscent: 702
HheadAOffset: 0
HheadDescent: -95
HheadDOffset: 0
OS2SubXSize: 650
OS2SubYSize: 699
OS2SubXOff: 0
OS2SubYOff: 140
OS2SupXSize: 650
OS2SupYSize: 699
OS2SupXOff: 0
OS2SupYOff: 479
OS2StrikeYSize: 49
OS2StrikeYPos: 258
OS2CapHeight: 537
OS2XHeight: 410
OS2Vendor: 'PfEd'
OS2CodePages: 00000001.00000000
OS2UnicodeRanges: 8000000b.00007860.00000000.00000000
Lookup: 258 0 0 "'kern' Horizontal Kerning in Latin lookup 0" { "'kern' Horizontal Kerning in Latin lookup 0 subtable"  } ['kern' ('latn' <'dflt' > ) ]
DEI: 91125
TtTable: prep
PUSHW_1
 511
SCANCTRL
PUSHB_1
 1
SCANTYPE
SVTCA[y-axis]
MPPEM
PUSHB_1
 8
LT
IF
PUSHB_2
 1
 1
INSTCTRL
EIF
PUSHB_2
 70
 6
CALL
IF
POP
PUSHB_1
 16
EIF
MPPEM
PUSHB_1
 20
GT
IF
POP
PUSHB_1
 128
EIF
SCVTCI
PUSHB_1
 6
CALL
NOT
IF
EIF
PUSHB_1
 20
CALL
EndTTInstrs
TtTable: fpgm
PUSHB_1
 0
FDEF
PUSHB_1
 0
SZP0
MPPEM
PUSHB_1
 42
LT
IF
PUSHB_1
 74
SROUND
EIF
PUSHB_1
 0
SWAP
MIAP[rnd]
RTG
PUSHB_1
 6
CALL
IF
RTDG
EIF
MPPEM
PUSHB_1
 42
LT
IF
RDTG
EIF
DUP
MDRP[rp0,rnd,grey]
PUSHB_1
 1
SZP0
MDAP[no-rnd]
RTG
ENDF
PUSHB_1
 1
FDEF
DUP
MDRP[rp0,min,white]
PUSHB_1
 12
CALL
ENDF
PUSHB_1
 2
FDEF
MPPEM
GT
IF
RCVT
SWAP
EIF
POP
ENDF
PUSHB_1
 3
FDEF
ROUND[Black]
RTG
DUP
PUSHB_1
 64
LT
IF

StartChar: .notdef
Encoding: 65536 -1 0
Width: 364
Flags: W
LayerCount: 2
Fore
SplineSet
33 0 m 1,0,-1
 33 666 l 1,1,-1
 298 666 l 1,2,-1
 298 0 l 1,3,-1
 33 0 l 1,0,-1
66 33 m 1,4,-1
 265 33 l 1,5,-1
 265 633 l 1,6,-1
 66 633 l 1,7,-1
 66 33 l 1,4,-1
EndSplineSet
EndChar

StartChar: exclam
Encoding: 33 33 4
Width: 202
Flags: W
LayerCount: 2
Fore
SplineSet
142 108 m 0,0,1
 132 94 132 94 62 96 c 1,2,3
 60 157 60 157 70 177 c 0,4,5
 77 190 77 190 100 192 c 128,-1,6
 123 194 123 194 133 182 c 0,7,8
 144 168 144 168 147 143.5 c 128,-1,9
 150 119 150 119 142 108 c 0,0,1
73 568 m 0,10,11
 84 573 84 573 104.5 571 c 128,-1,12
 125 569 125 569 137 562 c 0,13,14
 166 545 166 545 171 442 c 0,15,16
 175 369 175 369 157 305 c 0,17,18
 136 228 136 228 117 225.5 c 128,-1,19
 98 223 98 223 69 296 c 0,20,21
 28 400 28 400 29 476 c 128,-1,22
 30 552 30 552 73 568 c 0,10,11
EndSplineSet
EndChar

StartChar: quotedbl
Encoding: 34 34 5
Width: 298
Flags: W
LayerCount: 2
Fore
SplineSet
259 432 m 128,-1,1
 252 432 252 432 247 412 c 0,2,3
 242 389 242 389 225 387 c 128,-1,4
 208 385 208 385 191 405 c 0,5,6
 175 425 175 425 167.5 478.5 c 128,-1,7
 160 532 160 532 171 552 c 0,8,9
 177 563 177 563 185 565 c 128,-1,10
 193 567 193 567 218 563 c 0,11,12
 250 560 250 560 262 554 c 0,13,14
 269 550 269 550 267.5 491 c 128,-1,0
 266 432 266 432 259 432 c 128,-1,1
107 408 m 0,15,16
 107 398 107 398 95 387 c 128,-1,17
 83 376 83 376 72 376 c 128,-1,18
 61 376 61 376 43 414 c 0,19,20
 26 451 26 451 32 496 c 0,21,22
 35 537 35 537 50 554 c 0,23,24
 61 567 61 567 87 567.5 c 128,-1,25
 113 568 113 568 124 555 c 128,-1,26
 135 542 135 542 133.5 498 c 128,-1,27
 132 454 132 454 120 436 c 0,28,29
 107 417 107 417 107 408 c 0,15,16
EndSplineSet
EndChar

StartChar: numbersign
Encoding: 35 35 6
Width: 418
Flags: W
LayerCount: 2
Fore
SplineSet
173 342 m 0,0,1
 173 339 173 339 168 314 c 0,2,3
 164 301 164 301 168 298.5 c 128,-1,4
 172 296 172 296 195 296 c 0,5,6
 222 296 222 296 228.5 301 c 128,-1,7
 235 306 235 306 241 334 c 0,8,9
 245 351 245 351 242.5 355.5 c 128,-1,10
 240 360 240 360 227 359 c 0,11,12
 173 356 173 356 173 342 c 0,0,1
197 456 m 128,-1,14
 191 456 191 456 187 436 c 0,15,16
 184 422 184 422 188 419 c 128,-1,17
 192 416 192 416 217 416 c 2,18,-1
 252 416 l 1,19,20
 254 433 254 433 263 524 c 0,21,22
 264 536 264 536 271 540 c 128,-1,23
 278 544 278 544 287 540 c 128,-1,24
 296 536 296 536 302 525 c 0,25,26
 311 507 311 507 295 416 c 1,27,-1
 329 416 l 2,28,29
 378 416 378 416 387 394 c 0,30,31
 394 376 394 376 364 367 c 0,32,33
 353 363 353 363 338 362 c 0,34,35
 312 361 312 361 306.5 356 c 128,-1,36
 301 351 301 351 299 328 c 2,37,-1
 297 297 l 1,38,-1
 329 294 l 2,39,40
 350 292 350 292 355.5 288.5 c 128,-1,41
 361 285 361 285 361 272 c 0,42,43
 361 258 361 258 355 254.5 c 128,-1,44
 349 251 349 251 324 250 c 2,45,-1
 287 247 l 1,46,-1
 277 194 l 2,47,48
 263 120 263 120 259 112 c 128,-1,49
 255 104 255 104 228 104 c 0,50,51
 195 104 195 104 192 115 c 0,52,53
 189 122 189 122 198 166 c 128,-1,54
 207 210 207 210 217 236 c 0,55,56
 220 243 220 243 215 245.5 c 128,-1,57
 210 248 210 248 192 248 c 0,58,59
 170 248 170 248 164 243.5 c 128,-1,60
 158 239 158 239 150 216 c 0,61,62
 141 184 141 184 141 154 c 0,63,64
 140 122 140 122 128 108 c 128,-1,65
 116 94 116 94 94 101 c 0,66,67
 79 106 79 106 76.5 113 c 128,-1,68
 74 120 74 120 74 148 c 0,69,70
 74 181 74 181 81 214 c 0,71,72
 85 233 85 233 82 236.5 c 128,-1,73
 79 240 79 240 61 240 c 0,74,75
 36 240 36 240 31 253 c 0,76,77
 27 266 27 266 41 277 c 128,-1,78
 55 288 55 288 77 288 c 0,79,80
 94 288 94 288 99.5 295.5 c 128,-1,81
 105 303 105 303 112 338 c 0,82,83
 116 354 116 354 111.5 357 c 128,-1,84
 107 360 107 360 77 360 c 0,85,86
 37 360 37 360 32 371 c 0,87,88
 28 384 28 384 37 399.5 c 128,-1,89
 46 415 46 415 56 411 c 0,90,91
 69 407 69 407 72 415 c 1,92,93
 79 421 79 421 129 414 c 1,94,95
 147 514 147 514 158 538 c 0,96,97
 165 552 165 552 172 552 c 128,-1,98
 179 552 179 552 191 538 c 0,99,100
 198 531 198 531 201.5 511 c 128,-1,101
 205 491 205 491 204 473.5 c 128,-1,13
 203 456 203 456 197 456 c 128,-1,14
EndSplineSet
EndChar

StartChar: dollar
Encoding: 36 36 7
Width: 411
Flags: W
LayerCount: 2
Fore
SplineSet
233 168 m 0,0,1
 257 168 257 168 264 181 c 128,-1,2
 271 194 271 194 263.5 210 c 128,-1,3
 256 226 256 226 242 234 c 2,4,-1
 222 248 l 1,5,-1
 219 208 l 2,6,7
 218 181 218 181 220 174.5 c 128,-1,8
 222 168 222 168 233 168 c 0,0,1
117 424 m 0,9,10
 116 422 116 422 119.5 417 c 128,-1,11
 123 412 123 412 131 404 c 128,-1,12
 139 396 139 396 146 389.5 c 128,-1,13
 153 383 153 383 162 375 c 128,-1,14
 171 367 171 367 173 365 c 1,15,16
 165 448 165 448 162 453 c 0,17,18
 161 454 161 454 150 448 c 128,-1,19
 139 442 139 442 128 434 c 128,-1,20
 117 426 117 426 117 424 c 0,9,10
53 224 m 0,21,22
 58 224 58 224 98 199 c 128,-1,23
 138 174 138 174 150 176 c 0,24,25
 164 176 164 176 168.5 181 c 128,-1,26
 173 186 173 186 174 202 c 0,27,28
 183 285 183 285 152 296 c 0,29,30
 133 304 133 304 133 315 c 128,-1,31
 133 326 133 326 103 345 c 0,32,33
 48 377 48 377 44.5 415 c 128,-1,34
 41 453 41 453 87 502 c 0,35,36
 111 528 111 528 134 532 c 0,37,38
 147 534 147 534 154 542 c 128,-1,39
 161 550 161 550 165.5 563 c 128,-1,40
 170 576 170 576 175 582 c 0,41,42
 186 596 186 596 197 590 c 128,-1,43
 208 584 208 584 207 566 c 0,44,45
 206 553 206 553 210 548.5 c 128,-1,46
 214 544 214 544 228 544 c 0,47,48
 263 544 263 544 287.5 534 c 128,-1,49
 312 524 312 524 341 498 c 0,50,51
 381 462 381 462 381 451 c 0,52,53
 381 429 381 429 312 434 c 0,54,55
 291 436 291 436 286 439.5 c 128,-1,56
 281 443 281 443 281 456 c 0,57,58
 281 470 281 470 275.5 473 c 128,-1,59
 270 476 270 476 246 476 c 2,60,-1
 212 476 l 1,61,-1
 208 327 l 1,62,-1
 242 302 l 2,63,64
 277 276 277 276 289.5 254.5 c 128,-1,65
 302 233 302 233 306 193 c 0,66,67
 310 152 310 152 300 139 c 128,-1,68
 290 126 290 126 250 122 c 0,69,70
 224 119 224 119 219.5 115 c 128,-1,71
 215 111 215 111 216 89 c 0,72,73
 217 71 217 71 213.5 65.5 c 128,-1,74
 210 60 210 60 199 58 c 0,75,76
 192 55 192 55 187 58 c 128,-1,77
 182 61 182 61 178 69.5 c 128,-1,78
 174 78 174 78 171.5 86 c 128,-1,79
 169 94 169 94 166.5 105 c 128,-1,80
 164 116 164 116 163 120 c 1,81,-1
 33 116 l 1,82,-1
 30 158 l 2,83,84
 27 224 27 224 53 224 c 0,21,22
EndSplineSet
EndChar

StartChar: percent
Encoding: 37 37 8
Width: 514
Flags: W
LayerCount: 2
Fore
SplineSet
404 192 m 0,0,1
 420 192 420 192 433.5 218.5 c 128,-1,2
 447 245 447 245 443 270 c 0,3,4
 439 299 439 299 429 309 c 0,5,6
 412 330 412 330 378 312.5 c 128,-1,7
 344 295 344 295 338 261 c 0,8,9
 332 236 332 236 350 206 c 0,10,11
 364 183 364 183 371.5 178.5 c 128,-1,12
 379 174 379 174 386 184 c 0,13,14
 389 192 389 192 404 192 c 0,0,1
410 152 m 0,15,16
 397 152 397 152 394 144 c 0,17,18
 383 127 383 127 352 142.5 c 128,-1,19
 321 158 321 158 303 190 c 0,20,21
 295 205 295 205 298 237.5 c 128,-1,22
 301 270 301 270 314 302 c 0,23,24
 321 320 321 320 344.5 340 c 128,-1,25
 368 360 368 360 398 374 c 0,26,27
 420 384 420 384 429 383 c 128,-1,28
 438 382 438 382 455 366 c 0,29,30
 474 349 474 349 481 309.5 c 128,-1,31
 488 270 488 270 478 233 c 0,32,33
 470 207 470 207 447.5 179.5 c 128,-1,34
 425 152 425 152 410 152 c 0,15,16
374 508 m 0,35,36
 363 471 363 471 318.5 397.5 c 128,-1,37
 274 324 274 324 265 304 c 0,38,39
 256 285 256 285 246 259.5 c 128,-1,40
 236 234 236 234 227 215 c 128,-1,41
 218 196 218 196 202 172 c 0,42,43
 182 141 182 141 175 136.5 c 128,-1,44
 168 132 168 132 154 138 c 0,45,46
 132 148 132 148 130 166.5 c 128,-1,47
 128 185 128 185 146 218 c 0,48,49
 168 256 168 256 174 261 c 0,50,51
 184 266 184 266 194 290 c 0,52,53
 200 305 200 305 236 369.5 c 128,-1,54
 272 434 272 434 277 444 c 0,55,56
 284 461 284 461 313 491.5 c 128,-1,57
 342 522 342 522 357 514 c 1,58,59
 374 511 374 511 374 508 c 0,35,36
118 350 m 0,60,61
 118 357 118 357 135 364 c 0,62,63
 154 373 154 373 165 410 c 0,64,65
 173 436 173 436 172.5 444.5 c 128,-1,66
 172 453 172 453 162 464 c 0,67,68
 148 480 148 480 142 480 c 0,69,70
 129 478 129 478 106 465 c 128,-1,71
 83 452 83 452 79 442 c 0,72,73
 69 423 69 423 66.5 392.5 c 128,-1,74
 64 362 64 362 71 354 c 0,75,76
 75 349 75 349 86.5 346 c 128,-1,77
 98 343 98 343 108 344 c 128,-1,78
 118 345 118 345 118 350 c 0,60,61
190 386 m 0,79,80
 190 376 190 376 183 376 c 128,-1,81
 176 376 176 376 167 356 c 0,82,83
 152 323 152 323 108 309.5 c 128,-1,84
 64 296 64 296 41 318 c 0,85,86
 27 332 27 332 32 394 c 0,87,88
 36 448 36 448 48.5 470 c 128,-1,89
 61 492 61 492 102 513 c 0,90,91
 136 531 136 531 167.5 520.5 c 128,-1,92
 199 510 199 510 206 475 c 0,93,94
 213 444 213 444 202 423 c 0,95,96
 190 399 190 399 190 386 c 0,79,80
EndSplineSet
EndChar

StartChar: ampersand
Encoding: 38 38 9
Width: 494
Flags: W
LayerCount: 2
Fore
SplineSet
195 256 m 128,-1,1
 190 256 190 256 149 226 c 0,2,3
 116 201 116 201 106.5 182.5 c 128,-1,4
 97 164 97 164 108 144 c 0,5,6
 115 132 115 132 123 130 c 128,-1,7
 131 128 131 128 153 131 c 0,8,9
 203 138 203 138 253 169 c 1,10,11
 238 195 238 195 211 238 c 0,12,0
 200 256 200 256 195 256 c 128,-1,1
263 483 m 0,13,14
 249 498 249 498 226 495.5 c 128,-1,15
 203 493 203 493 189 475 c 0,16,17
 173 456 173 456 173.5 443.5 c 128,-1,18
 174 431 174 431 190 397 c 2,19,-1
 209 358 l 1,20,-1
 242 396 l 2,21,22
 292 454 292 454 263 483 c 0,13,14
302 388 m 0,23,24
 286 366 286 366 272 339 c 128,-1,25
 258 312 258 312 238 285 c 0,26,27
 240 282 240 282 250 269 c 128,-1,28
 260 256 260 256 266 247 c 128,-1,29
 272 238 272 238 278 227 c 128,-1,30
 284 216 284 216 284 210 c 0,31,32
 284 183 284 183 325 238 c 0,33,34
 354 276 354 276 359 322 c 0,35,36
 364 354 364 354 369 362 c 128,-1,37
 374 370 374 370 396 380 c 0,38,39
 426 394 426 394 439 390 c 0,40,41
 451 386 451 386 452 358 c 128,-1,42
 453 330 453 330 442 326 c 128,-1,43
 431 322 431 322 406 268 c 0,44,45
 380 214 380 214 356 190 c 0,46,47
 331 164 331 164 342 158 c 0,48,49
 368 142 368 142 407 181 c 0,50,51
 464 238 464 238 464 168 c 0,52,53
 464 144 464 144 460 136 c 128,-1,54
 456 128 456 128 440 121 c 0,55,56
 408 106 408 106 372 105 c 128,-1,57
 336 104 336 104 317 118 c 0,58,59
 302 129 302 129 295.5 130 c 128,-1,60
 289 131 289 131 279 125 c 0,61,62
 256 109 256 109 217.5 98.5 c 128,-1,63
 179 88 179 88 147 88 c 0,64,65
 81 88 81 88 52.5 110.5 c 128,-1,66
 24 133 24 133 31 180 c 0,67,68
 36 215 36 215 78 254 c 0,69,70
 114 289 114 289 138 303 c 0,71,72
 151 310 151 310 151.5 315 c 128,-1,73
 152 320 152 320 144 336 c 0,74,75
 132 362 132 362 132 375 c 0,76,77
 132 392 132 392 125 395 c 0,78,79
 117 400 117 400 114.5 423.5 c 128,-1,80
 112 447 112 447 117 468 c 0,81,82
 124 494 124 494 158 524 c 0,83,84
 181 546 181 546 191.5 549.5 c 128,-1,85
 202 553 202 553 234 550 c 0,86,87
 276 545 276 545 292.5 529.5 c 128,-1,88
 309 514 309 514 318 470 c 0,89,90
 326 436 326 436 323.5 425.5 c 128,-1,91
 321 415 321 415 302 388 c 0,23,24
EndSplineSet
EndChar

StartChar: quotesingle
Encoding: 39 39 10
Width: 164
Flags: W
LayerCount: 2
Fore
SplineSet
30 492 m 0,0,1
 30 521 30 521 55 545 c 0,2,3
 89 577 89 577 124 550 c 0,4,5
 135 542 135 542 134.5 496 c 128,-1,6
 134 450 134 450 123 435 c 0,7,8
 118 428 118 428 110.5 404 c 128,-1,9
 103 380 103 380 92 373 c 0,10,11
 78 364 78 364 63.5 378.5 c 128,-1,12
 49 393 49 393 39.5 424.5 c 128,-1,13
 30 456 30 456 30 492 c 0,0,1
EndSplineSet
EndChar

StartChar: parenleft
Encoding: 40 40 11
Width: 260
Flags: W
LayerCount: 2
Fore
SplineSet
72 89 m 0,0,1
 72 104 72 104 64 104 c 0,2,3
 41 104 41 104 32.5 203 c 128,-1,4
 24 302 24 302 39 387 c 0,5,6
 48 440 48 440 65 470.5 c 128,-1,7
 82 501 82 501 117 529 c 0,8,9
 136 544 136 544 148.5 548 c 128,-1,10
 161 552 161 552 187 550 c 0,11,12
 228 548 228 548 229.5 536 c 128,-1,13
 231 524 231 524 191 505 c 0,14,15
 148 484 148 484 130.5 463 c 128,-1,16
 113 442 113 442 105 402 c 128,-1,17
 97 362 97 362 96 273.5 c 128,-1,18
 95 185 95 185 103 170 c 0,19,20
 163 57 163 57 184 32 c 0,21,22
 219 -9 219 -9 226 -27 c 128,-1,23
 233 -45 233 -45 219 -54 c 0,24,25
 196 -71 196 -71 177.5 -61.5 c 128,-1,26
 159 -52 159 -52 131 -6 c 0,27,28
 95 50 95 50 83 62 c 0,29,30
 72 73 72 73 72 89 c 0,0,1
EndSplineSet
EndChar

StartChar: parenright
Encoding: 41 41 12
Width: 277
Flags: W
LayerCount: 2
Fore
SplineSet
75 550 m 0,0,1
 80 556 80 556 86.5 557 c 128,-1,2
 93 558 93 558 98.5 556 c 128,-1,3
 104 554 104 554 112.5 550.5 c 128,-1,4
 121 547 121 547 126 546 c 0,5,6
 144 542 144 542 156.5 528.5 c 128,-1,7
 169 515 169 515 201 467 c 0,8,9
 229 425 229 425 234.5 407 c 128,-1,10
 240 389 240 389 244 329 c 0,11,12
 252 219 252 219 232.5 153.5 c 128,-1,13
 213 88 213 88 147 0 c 0,14,15
 97 -67 97 -67 60 -63 c 0,16,17
 39 -61 39 -61 33 -32 c 0,18,19
 26 3 26 3 34 1 c 0,20,21
 37 0 37 0 41 -7 c 0,22,23
 48 -16 48 -16 64 -9 c 0,24,25
 85 2 85 2 108.5 38 c 128,-1,26
 132 74 132 74 184 179 c 0,27,28
 198 205 198 205 195 283 c 0,29,30
 192 405 192 405 164 428 c 0,31,32
 157 433 157 433 138 464.5 c 128,-1,33
 119 496 119 496 106 502 c 0,34,35
 84 512 84 512 75 526 c 128,-1,36
 66 540 66 540 75 550 c 0,0,1
EndSplineSet
EndChar

StartChar: asterisk
Encoding: 42 42 13
Width: 357
Flags: W
LayerCount: 2
Fore
SplineSet
238 344 m 0,0,1
 235 344 235 344 235 302 c 128,-1,2
 235 260 235 260 224 242 c 128,-1,3
 213 224 213 224 197 236 c 128,-1,4
 181 248 181 248 169 286 c 0,5,6
 159 320 159 320 154 326.5 c 128,-1,7
 149 333 149 333 139 328 c 0,8,9
 126 320 126 320 91 320 c 0,10,11
 58 320 58 320 54 333.5 c 128,-1,12
 50 347 50 347 73 380 c 2,13,-1
 97 414 l 1,14,15
 49 460 49 460 38 487 c 0,16,17
 30 506 30 506 30 513 c 128,-1,18
 30 520 30 520 38 527 c 0,19,20
 46 535 46 535 56 533 c 128,-1,21
 66 531 66 531 94 517 c 0,22,23
 138 495 138 495 142 486 c 0,24,25
 143 483 143 483 144 487 c 0,26,27
 146 497 146 497 146 525 c 0,28,29
 146 572 146 572 156 582 c 0,30,31
 165 591 165 591 186.5 572 c 128,-1,32
 208 553 208 553 219 526 c 0,33,34
 227 503 227 503 242 509 c 0,35,36
 280 526 280 526 290 527.5 c 128,-1,37
 300 529 300 529 308 522 c 0,38,39
 318 512 318 512 308 480 c 128,-1,40
 298 448 298 448 282 439 c 0,41,42
 270 433 270 433 270 430 c 0,43,44
 270 426 270 426 289 406 c 0,45,46
 337 355 337 355 325 329 c 0,47,48
 315 305 315 305 263 332 c 0,49,50
 239 344 239 344 238 344 c 0,0,1
EndSplineSet
EndChar

StartChar: plus
Encoding: 43 43 14
Width: 413
Flags: W
LayerCount: 2
Fore
SplineSet
383 256 m 1,0,-1
 239 256 l 1,1,-1
 239 165 l 2,2,3
 239 101 239 101 236.5 86.5 c 128,-1,4
 234 72 234 72 223 68 c 0,5,6
 198 61 198 61 190 79.5 c 128,-1,7
 182 98 182 98 184 166 c 2,8,-1
 187 248 l 1,9,-1
 30 248 l 1,10,11
 33 309 33 309 47 309 c 0,12,13
 136 309 136 309 183 312 c 1,14,-1
 183 376 l 2,15,16
 183 415 183 415 185.5 428.5 c 128,-1,17
 188 442 188 442 197 447 c 0,18,19
 216 458 216 458 226 451 c 128,-1,20
 236 444 236 444 240 416 c 0,21,22
 247 366 247 366 236 313 c 1,23,-1
 379 307 l 1,24,25
 378 282 378 282 383 256 c 1,0,-1
EndSplineSet
EndChar

StartChar: comma
Encoding: 44 44 15
Width: 192
Flags: W
LayerCount: 2
Fore
SplineSet
52 88 m 0,0,1
 44 88 44 88 41 110 c 128,-1,2
 38 132 38 132 44 148 c 0,3,4
 52 169 52 169 69 176 c 0,5,6
 93 185 93 185 117 183 c 128,-1,7
 141 181 141 181 152 168 c 0,8,9
 162 155 162 155 162 147 c 128,-1,10
 162 139 162 139 152 99 c 0,11,12
 137 38 137 38 108 6 c 128,-1,13
 79 -26 79 -26 48 -14 c 0,14,15
 34 -9 34 -9 31 13 c 128,-1,16
 28 35 28 35 39 46 c 0,17,18
 49 56 49 56 52 56 c 128,-1,19
 55 56 55 56 63 46 c 0,20,21
 70 36 70 36 74 37 c 128,-1,22
 78 38 78 38 87 52 c 0,23,24
 97 67 97 67 96 71 c 128,-1,25
 95 75 95 75 80 80 c 0,26,27
 61 88 61 88 52 88 c 0,0,1
EndSplineSet
EndChar

StartChar: hyphen
Encoding: 45 45 16
Width: 390
Flags: W
LayerCount: 2
Fore
SplineSet
201 208 m 0,0,1
 89 208 89 208 74 210.5 c 128,-1,2
 59 213 59 213 30 238 c 1,3,4
 33 242 33 242 39 253 c 128,-1,5
 45 264 45 264 49 269.5 c 128,-1,6
 53 275 53 275 60 282.5 c 128,-1,7
 67 290 67 290 75 293 c 128,-1,8
 83 296 83 296 94 296 c 0,9,10
 99 296 99 296 121.5 296.5 c 128,-1,11
 144 297 144 297 172.5 297.5 c 128,-1,12
 201 298 201 298 225 298 c 0,13,14
 300 296 300 296 315 293 c 128,-1,15
 330 290 330 290 343 274 c 0,16,17
 360 254 360 254 360.5 245 c 128,-1,18
 361 236 361 236 348 222 c 0,19,20
 340 212 340 212 316 210 c 128,-1,21
 292 208 292 208 201 208 c 0,0,1
EndSplineSet
EndChar

StartChar: period
Encoding: 46 46 17
Width: 195
Flags: W
LayerCount: 2
Fore
SplineSet
51 166 m 0,0,1
 66 177 66 177 101.5 175.5 c 128,-1,2
 137 174 137 174 151 162 c 0,3,4
 166 149 166 149 165.5 118.5 c 128,-1,5
 165 88 165 88 149 72 c 0,6,7
 132 55 132 55 100.5 56 c 128,-1,8
 69 57 69 57 48 76 c 0,9,10
 35 89 35 89 32 98 c 128,-1,11
 29 107 29 107 32 126 c 0,12,13
 38 158 38 158 51 166 c 0,0,1
EndSplineSet
EndChar

StartChar: slash
Encoding: 47 47 18
Width: 288
Flags: W
LayerCount: 2
Fore
SplineSet
221 555 m 0,0,1
 251 583 251 583 257 551 c 0,2,3
 263 518 263 518 241 474 c 0,4,5
 233 459 233 459 210 398.5 c 128,-1,6
 187 338 187 338 179 324 c 0,7,8
 169 307 169 307 148 241 c 0,9,10
 102 103 102 103 63 93 c 0,11,12
 29 84 29 84 29 116 c 0,13,14
 31 152 31 152 79 250 c 0,15,16
 97 286 97 286 123.5 357.5 c 128,-1,17
 150 429 150 429 173.5 481 c 128,-1,18
 197 533 197 533 221 555 c 0,0,1
EndSplineSet
EndChar

StartChar: zero
Encoding: 48 48 19
Width: 350
Flags: W
LayerCount: 2
Fore
SplineSet
262 432 m 1,0,1
 257 427 257 427 237.5 395 c 128,-1,2
 218 363 218 363 212 357 c 0,3,4
 198 345 198 345 194 319 c 0,5,6
 190 302 190 302 159.5 252 c 128,-1,7
 129 202 129 202 113 186 c 0,8,9
 89 161 89 161 120 145 c 0,10,11
 143 132 143 132 174.5 145.5 c 128,-1,12
 206 159 206 159 238 194 c 0,13,14
 262 220 262 220 268.5 234.5 c 128,-1,15
 275 249 275 249 279 282 c 0,16,17
 283 313 283 313 277.5 364.5 c 128,-1,18
 272 416 272 416 262 432 c 1,0,1
221 492 m 0,19,20
 210 502 210 502 177 506 c 128,-1,21
 144 510 144 510 128 502 c 0,22,23
 101 488 101 488 88 446 c 128,-1,24
 75 404 75 404 72 322 c 0,25,26
 71 294 71 294 70.5 271.5 c 128,-1,27
 70 249 70 249 70.5 236 c 128,-1,28
 71 223 71 223 72 224 c 0,29,30
 84 235 84 235 114 284.5 c 128,-1,31
 144 334 144 334 178.5 393.5 c 128,-1,32
 213 453 213 453 224 470 c 0,33,34
 231 482 231 482 221 492 c 0,19,20
167 552 m 2,35,-1
 220 552 l 1,36,37
 296 476 296 476 311 442 c 0,38,39
 320 424 320 424 320 327 c 0,40,41
 320 265 320 265 317 243.5 c 128,-1,42
 314 222 314 222 301 197 c 0,43,44
 284 164 284 164 250 130 c 128,-1,45
 216 96 216 96 200 96 c 0,46,47
 198 96 198 96 148 91 c 0,48,49
 124 87 124 87 114 90.5 c 128,-1,50
 104 94 104 94 83 112 c 0,51,52
 48 144 48 144 39 171.5 c 128,-1,53
 30 199 30 199 30 278 c 0,54,55
 30 372 30 372 39 428 c 0,56,57
 44 466 44 466 51 481 c 128,-1,58
 58 496 58 496 80 518 c 0,59,60
 104 543 104 543 116 547.5 c 128,-1,61
 128 552 128 552 167 552 c 2,35,-1
EndSplineSet
EndChar

StartChar: one
Encoding: 49 49 20
Width: 240
Flags: W
LayerCount: 2
Fore
SplineSet
210 100 m 128,-1,1
 210 96 210 96 125 96 c 0,2,3
 49 96 49 96 44 103 c 0,4,5
 43 105 43 105 44 110 c 0,6,7
 47 127 47 127 97 146 c 1,8,9
 97 159 97 159 99 246.5 c 128,-1,10
 101 334 101 334 101.5 369.5 c 128,-1,11
 102 405 102 405 100 450 c 0,12,13
 99 461 99 461 64 461 c 0,14,15
 40 460 40 460 35 463.5 c 128,-1,16
 30 467 30 467 30 484 c 0,17,18
 30 499 30 499 34 504 c 128,-1,19
 38 509 38 509 51 510 c 0,20,21
 77 514 77 514 91 533 c 0,22,23
 103 547 103 547 123.5 549.5 c 128,-1,24
 144 552 144 552 166 548 c 1,25,26
 167 497 167 497 168.5 360.5 c 128,-1,27
 170 224 170 224 170 207 c 0,28,29
 170 162 170 162 190 133 c 128,-1,0
 210 104 210 104 210 100 c 128,-1,1
EndSplineSet
EndChar

StartChar: two
Encoding: 50 50 21
Width: 382
Flags: W
LayerCount: 2
Fore
SplineSet
163 152 m 1,0,1
 205 149 205 149 259 173 c 0,2,3
 301 193 301 193 324 190 c 0,4,5
 344 188 344 188 347 182 c 128,-1,6
 350 176 350 176 351 142 c 2,7,-1
 351 96 l 1,8,-1
 199 98 l 2,9,10
 76 99 76 99 60 106 c 0,11,12
 41 113 41 113 59 141 c 0,13,14
 65 150 65 150 97 192 c 0,15,16
 215 347 215 347 223 393 c 0,17,18
 228 423 228 423 215.5 458.5 c 128,-1,19
 203 494 203 494 184 504 c 0,20,21
 161 518 161 518 147.5 503 c 128,-1,22
 134 488 134 488 135 449 c 0,23,24
 136 423 136 423 133 415.5 c 128,-1,25
 130 408 130 408 119 405 c 0,26,27
 100 400 100 400 67.5 400.5 c 128,-1,28
 35 401 35 401 31 406 c 0,29,30
 25 416 25 416 57 476 c 128,-1,31
 89 536 89 536 108 550 c 0,32,33
 127 563 127 563 158 567 c 128,-1,34
 189 571 189 571 214 563 c 0,35,36
 232 557 232 557 256 528 c 0,37,38
 272 509 272 509 278 492.5 c 128,-1,39
 284 476 284 476 289 439 c 0,40,41
 294 398 294 398 292 382.5 c 128,-1,42
 290 367 290 367 274 333 c 0,43,44
 255 294 255 294 213 229.5 c 128,-1,45
 171 165 171 165 163 152 c 1,0,1
EndSplineSet
EndChar

StartChar: three
Encoding: 51 51 22
Width: 363
Flags: W
LayerCount: 2
Fore
SplineSet
207 552 m 0,0,1
 331 552 331 552 333 450 c 0,2,3
 333 419 333 419 327 405.5 c 128,-1,4
 321 392 321 392 295 363 c 0,5,6
 277 341 277 341 278 338 c 256,7,8
 279 335 279 335 305 323 c 2,9,-1
 333 312 l 1,10,11
 333 184 333 184 327 176 c 1,12,13
 320 176 320 176 311 153 c 0,14,15
 290 96 290 96 170 96 c 0,16,17
 124 96 124 96 111 99 c 128,-1,18
 98 102 98 102 87 116 c 0,19,20
 69 136 69 136 50 144 c 0,21,22
 13 158 13 158 47 179 c 0,23,24
 66 192 66 192 104 204.5 c 128,-1,25
 142 217 142 217 150 212 c 0,26,27
 157 207 157 207 153 190 c 0,28,29
 149 177 149 177 161 160.5 c 128,-1,30
 173 144 173 144 187 144 c 0,31,32
 212 144 212 144 244.5 178 c 128,-1,33
 277 212 277 212 277 238 c 0,34,35
 277 254 277 254 250.5 275 c 128,-1,36
 224 296 224 296 203 296 c 128,-1,37
 182 296 182 296 169 283 c 0,38,39
 147 260 147 260 137 294 c 0,40,41
 133 309 133 309 133 333 c 0,42,43
 133 359 133 359 136 369 c 128,-1,44
 139 379 139 379 149 384 c 0,45,46
 164 392 164 392 181 382 c 0,47,48
 196 371 196 371 224 387 c 0,49,50
 273 415 273 415 263 464 c 0,51,52
 259 482 259 482 247 493 c 128,-1,53
 235 504 235 504 219 504 c 0,54,55
 206 504 206 504 193 483 c 128,-1,56
 180 462 180 462 188 454 c 0,57,58
 197 445 197 445 197 439 c 0,59,60
 197 432 197 432 181.5 430 c 128,-1,61
 166 428 166 428 159 434 c 0,62,63
 156 437 156 437 146.5 438 c 128,-1,64
 137 439 137 439 123.5 439 c 128,-1,65
 110 439 110 439 98 438.5 c 128,-1,66
 86 438 86 438 71.5 437 c 128,-1,67
 57 436 57 436 52 436 c 1,68,69
 92 468 92 468 96 486 c 0,70,71
 101 501 101 501 131 528 c 0,72,73
 150 544 150 544 163.5 548 c 128,-1,74
 177 552 177 552 207 552 c 0,0,1
EndSplineSet
EndChar

StartChar: four
Encoding: 52 52 23
Width: 522
Flags: W
LayerCount: 2
Fore
SplineSet
181 269 m 1,0,1
 187 264 187 264 291 264 c 1,2,3
 297 371 297 371 294 391 c 0,4,5
 288 430 288 430 271 402 c 0,6,7
 265 393 265 393 257 375 c 0,8,9
 252 364 252 364 218.5 320.5 c 128,-1,10
 185 277 185 277 181 269 c 1,0,1
355 272 m 1,11,12
 456 272 456 272 466 281 c 0,13,14
 486 299 486 299 491 257 c 0,15,16
 492 247 492 247 492 233 c 0,17,18
 494 176 494 176 478 177 c 0,19,20
 472 177 472 177 466 186 c 0,21,22
 457 200 457 200 368 203 c 1,23,-1
 364 88 l 1,24,-1
 293 88 l 1,25,-1
 293 200 l 1,26,27
 250 200 250 200 163 202 c 128,-1,28
 76 204 76 204 33 204 c 1,29,30
 26 230 26 230 32 260.5 c 128,-1,31
 38 291 38 291 58 282 c 0,32,33
 70 277 70 277 104.5 316.5 c 128,-1,34
 139 356 139 356 187 428 c 0,35,36
 229 491 229 491 256 522 c 0,37,38
 266 532 266 532 301.5 533 c 128,-1,39
 337 534 337 534 361 532 c 1,40,-1
 355 272 l 1,11,12
EndSplineSet
EndChar

StartChar: five
Encoding: 53 53 24
Width: 412
Flags: W
LayerCount: 2
Fore
SplineSet
48 128 m 0,0,1
 16 128 16 128 43 154 c 0,2,3
 53 164 53 164 73 179 c 0,4,5
 103 202 103 202 114 207.5 c 128,-1,6
 125 213 125 213 133 207 c 0,7,8
 144 198 144 198 140 183 c 128,-1,9
 136 168 136 168 147.5 164 c 128,-1,10
 159 160 159 160 195 164 c 0,11,12
 238 169 238 169 253.5 185 c 128,-1,13
 269 201 269 201 274 242 c 128,-1,14
 279 283 279 283 273.5 297.5 c 128,-1,15
 268 312 268 312 245 324 c 0,16,17
 224 335 224 335 182 336 c 128,-1,18
 140 337 140 337 130 327 c 0,19,20
 113 310 113 310 108 338 c 0,21,22
 105 363 105 363 106 446 c 2,23,-1
 108 564 l 1,24,25
 144 557 144 557 254 556 c 0,26,27
 314 556 314 556 331 558 c 128,-1,28
 348 560 348 560 353 570 c 0,29,30
 359 581 359 581 367 583 c 128,-1,31
 375 585 375 585 380 576 c 0,32,33
 384 567 384 567 379 520 c 0,34,35
 377 497 377 497 374 488.5 c 128,-1,36
 371 480 371 480 370 477 c 128,-1,37
 369 474 369 474 357 477.5 c 128,-1,38
 345 481 345 481 340 482 c 0,39,40
 253 474 253 474 231.5 467 c 128,-1,41
 210 460 210 460 206 437 c 0,42,43
 205 428 205 428 213 422.5 c 128,-1,44
 221 417 221 417 245 409 c 0,45,46
 319 384 319 384 349.5 337.5 c 128,-1,47
 380 291 380 291 372 218 c 0,48,49
 366 160 366 160 358.5 146.5 c 128,-1,50
 351 133 351 133 314 116 c 0,51,52
 283 101 283 101 261.5 97.5 c 128,-1,53
 240 94 240 94 182 93 c 0,54,55
 123 92 123 92 107.5 94.5 c 128,-1,56
 92 97 92 97 80 110 c 0,57,58
 64 128 64 128 48 128 c 0,0,1
EndSplineSet
EndChar

StartChar: six
Encoding: 54 54 25
Width: 408
Flags: W
LayerCount: 2
Fore
SplineSet
114 224 m 0,0,1
 114 182 114 182 125 172 c 128,-1,2
 136 162 136 162 188 158 c 0,3,4
 229 154 229 154 239.5 165.5 c 128,-1,5
 250 177 250 177 250 226 c 0,6,7
 250 269 250 269 232 286 c 0,8,9
 208 308 208 308 187 307.5 c 128,-1,10
 166 307 166 307 136 286 c 0,11,12
 121 276 121 276 117.5 266 c 128,-1,13
 114 256 114 256 114 224 c 0,0,1
378 466 m 0,14,15
 378 458 378 458 346 448.5 c 128,-1,16
 314 439 314 439 307 444 c 0,17,18
 300 447 300 447 304 464 c 0,19,20
 306 474 306 474 302.5 477 c 128,-1,21
 299 480 299 480 285 479 c 0,22,23
 253 478 253 478 219.5 462.5 c 128,-1,24
 186 447 186 447 172 425 c 0,25,26
 153 396 153 396 156.5 387 c 128,-1,27
 160 378 160 378 193 373 c 0,28,29
 266 364 266 364 301 304 c 0,30,31
 318 275 318 275 318 224 c 128,-1,32
 318 173 318 173 301 144 c 0,33,34
 285 115 285 115 257 103.5 c 128,-1,35
 229 92 229 92 168 90 c 2,36,-1
 99 86 l 1,37,38
 87 96 87 96 65 118 c 128,-1,39
 43 140 43 140 31 150 c 1,40,-1
 31 249 l 2,41,42
 31 322 31 322 34 342.5 c 128,-1,43
 37 363 37 363 53 394 c 0,44,45
 86 459 86 459 141 508 c 128,-1,46
 196 557 196 557 258 577 c 0,47,48
 280 584 280 584 287.5 583 c 128,-1,49
 295 582 295 582 314 572 c 0,50,51
 330 564 330 564 354 524.5 c 128,-1,52
 378 485 378 485 378 466 c 0,14,15
EndSplineSet
EndChar

StartChar: seven
Encoding: 55 55 26
Width: 435
Flags: W
LayerCount: 2
Fore
SplineSet
283 283 m 128,-1,1
 283 273 283 273 273 270 c 0,2,3
 263 266 263 266 245 202 c 128,-1,4
 227 138 227 138 229 116 c 0,5,6
 232 93 232 93 211 87 c 0,7,8
 188 80 188 80 148 80.5 c 128,-1,9
 108 81 108 81 103 88 c 0,10,11
 98 96 98 96 127 126 c 128,-1,12
 156 156 156 156 175 218 c 0,13,14
 195 280 195 280 195 285 c 1,15,16
 188 287 188 287 178 287 c 128,-1,17
 168 287 168 287 150 285.5 c 128,-1,18
 132 284 132 284 127 284 c 1,19,20
 124 368 124 368 134 380 c 0,21,22
 142 390 142 390 146 390.5 c 128,-1,23
 150 391 150 391 161 383 c 0,24,25
 171 374 171 374 198.5 372 c 128,-1,26
 226 370 226 370 233 378 c 0,27,28
 238 386 238 386 243 415 c 128,-1,29
 248 444 248 444 237.5 448 c 128,-1,30
 227 452 227 452 164 446 c 128,-1,31
 101 440 101 440 84 434.5 c 128,-1,32
 67 429 67 429 67 415 c 0,33,34
 67 399 67 399 49 402 c 0,35,36
 36 403 36 403 33.5 413.5 c 128,-1,37
 31 424 31 424 30 476 c 0,38,39
 28 547 28 547 33 554 c 0,40,41
 36 560 36 560 58 555 c 0,42,43
 88 547 88 547 249 543 c 0,44,45
 323 541 323 541 337.5 530.5 c 128,-1,46
 352 520 352 520 337 477 c 0,47,48
 331 462 331 462 310 382 c 0,49,50
 307 373 307 373 311.5 371.5 c 128,-1,51
 316 370 316 370 333 374 c 0,52,53
 359 378 359 378 369 386 c 0,54,55
 380 395 380 395 391.5 382 c 128,-1,56
 403 369 403 369 404 344 c 0,57,58
 406 300 406 300 399.5 294 c 128,-1,59
 393 288 393 288 343 290 c 0,60,0
 283 293 283 293 283 283 c 128,-1,1
EndSplineSet
EndChar

StartChar: eight
Encoding: 56 56 27
Width: 302
Flags: W
LayerCount: 2
Fore
SplineSet
185 252 m 0,0,1
 157 272 157 272 150 271 c 128,-1,2
 143 270 143 270 118 243 c 0,3,4
 99 222 99 222 93.5 196.5 c 128,-1,5
 88 171 88 171 99 155 c 0,6,7
 110 138 110 138 147 130.5 c 128,-1,8
 184 123 184 123 201 134 c 0,9,10
 227 151 227 151 222 189 c 128,-1,11
 217 227 217 227 185 252 c 0,0,1
93 440 m 0,12,13
 93 410 93 410 97 397 c 128,-1,14
 101 384 101 384 117 368 c 0,15,16
 140 342 140 342 153 347 c 0,17,18
 173 355 173 355 193.5 375 c 128,-1,19
 214 395 214 395 220 412 c 0,20,21
 227 434 227 434 221 465 c 128,-1,22
 215 496 215 496 200 513 c 0,23,24
 189 526 189 526 179.5 527 c 128,-1,25
 170 528 170 528 145 520 c 0,26,27
 114 510 114 510 103.5 494 c 128,-1,28
 93 478 93 478 93 440 c 0,12,13
149 568 m 0,29,30
 196 568 196 568 216.5 558 c 128,-1,31
 237 548 237 548 254 518 c 0,32,33
 272 485 272 485 272 422 c 0,34,35
 273 376 273 376 269.5 365 c 128,-1,36
 266 354 266 354 243 334 c 2,37,-1
 213 306 l 1,38,-1
 233 288 l 2,39,40
 269 254 269 254 268 168 c 0,41,42
 267 122 267 122 259 107.5 c 128,-1,43
 251 93 251 93 220 83 c 0,44,45
 162 66 162 66 105 81 c 0,46,47
 70 91 70 91 53.5 111 c 128,-1,48
 37 131 37 131 33 171 c 0,49,50
 23 264 23 264 73 298 c 0,51,52
 84 306 84 306 88 309 c 128,-1,53
 92 312 92 312 93.5 315.5 c 128,-1,54
 95 319 95 319 92.5 320.5 c 128,-1,55
 90 322 90 322 84 326 c 0,56,57
 74 332 74 332 69 346 c 128,-1,58
 64 360 64 360 53 366 c 0,59,60
 22 385 22 385 33 477 c 0,61,62
 37 507 37 507 43 518 c 128,-1,63
 49 529 49 529 70 545 c 0,64,65
 90 560 90 560 105 564 c 128,-1,66
 120 568 120 568 149 568 c 0,29,30
EndSplineSet
EndChar

StartChar: nine
Encoding: 57 57 28
Width: 351
Flags: W
LayerCount: 2
Fore
SplineSet
200 320 m 0,0,1
 229 320 229 320 244 329.5 c 128,-1,2
 259 339 259 339 266 363 c 0,3,4
 274 389 274 389 263.5 414.5 c 128,-1,5
 253 440 253 440 230 448 c 0,6,7
 206 457 206 457 194.5 454 c 128,-1,8
 183 451 183 451 164 429 c 0,9,10
 147 410 147 410 144.5 401 c 128,-1,11
 142 392 142 392 146 372 c 0,12,13
 153 342 153 342 164.5 331 c 128,-1,14
 176 320 176 320 200 320 c 0,0,1
70 176 m 0,15,16
 104 176 104 176 114 188 c 0,17,18
 123 199 123 199 130.5 195 c 128,-1,19
 138 191 138 191 138 175 c 0,20,21
 138 162 138 162 144 161 c 128,-1,22
 150 160 150 160 169 171 c 0,23,24
 187 181 187 181 202.5 205 c 128,-1,25
 218 229 218 229 218 246 c 0,26,27
 218 258 218 258 210.5 261 c 128,-1,28
 203 264 203 264 170 264 c 0,29,30
 136 264 136 264 126.5 268 c 128,-1,31
 117 272 117 272 102 294 c 0,32,33
 65 350 65 350 99 440 c 0,34,35
 114 480 114 480 124.5 493 c 128,-1,36
 135 506 135 506 158 517 c 0,37,38
 206 538 206 538 238 521 c 128,-1,39
 270 504 270 504 302 442 c 0,40,41
 321 401 321 401 320.5 377.5 c 128,-1,42
 320 354 320 354 299 273 c 0,43,44
 279 198 279 198 256.5 158.5 c 128,-1,45
 234 119 234 119 201 102 c 0,46,47
 132 67 132 67 98 98 c 0,48,49
 71 123 71 123 50 138 c 0,50,51
 2 176 2 176 70 176 c 0,15,16
EndSplineSet
EndChar

StartChar: colon
Encoding: 58 58 29
Width: 200
Flags: W
LayerCount: 2
Fore
SplineSet
63 158 m 0,0,1
 113 205 113 205 153 168 c 0,2,3
 167 154 167 154 169.5 140.5 c 128,-1,4
 172 127 172 127 166 98 c 0,5,6
 159 65 159 65 115.5 59 c 128,-1,7
 72 53 72 53 43 81 c 0,8,9
 26 97 26 97 30.5 114.5 c 128,-1,10
 35 132 35 132 63 158 c 0,0,1
170 359 m 0,11,12
 170 329 170 329 150 313 c 0,13,14
 130 296 130 296 112 296 c 0,15,16
 96 296 96 296 69.5 313 c 128,-1,17
 43 330 43 330 38 344 c 0,18,19
 34 357 34 357 45.5 382 c 128,-1,20
 57 407 57 407 72 416 c 0,21,22
 87 426 87 426 119 421 c 128,-1,23
 151 416 151 416 160 403 c 0,24,25
 170 390 170 390 170 359 c 0,11,12
EndSplineSet
EndChar

StartChar: semicolon
Encoding: 59 59 30
Width: 194
Flags: W
LayerCount: 2
Fore
SplineSet
138 180 m 0,0,1
 161 159 161 159 158 124 c 128,-1,2
 155 89 155 89 142.5 59.5 c 128,-1,3
 130 30 130 30 112 6 c 0,4,5
 102 -8 102 -8 75 -8.5 c 128,-1,6
 48 -9 48 -9 38 4 c 0,7,8
 27 18 27 18 32 30.5 c 128,-1,9
 37 43 37 43 54 43 c 0,10,11
 82 43 82 43 85 60 c 128,-1,12
 88 77 88 77 62 86 c 0,13,14
 40 94 40 94 34.5 115 c 128,-1,15
 29 136 29 136 43 162 c 0,16,17
 49 172 49 172 59.5 181.5 c 128,-1,18
 70 191 70 191 78 193 c 0,19,20
 104 200 104 200 113.5 198 c 128,-1,21
 123 196 123 196 138 180 c 0,0,1
63 414 m 128,-1,23
 82 434 82 434 104 431.5 c 128,-1,24
 126 429 126 429 145 405 c 0,25,26
 167 376 167 376 165.5 360 c 128,-1,27
 164 344 164 344 138 328 c 0,28,29
 114 313 114 313 90 315 c 128,-1,30
 66 317 66 317 50 336 c 0,31,32
 37 349 37 349 40.5 371.5 c 128,-1,22
 44 394 44 394 63 414 c 128,-1,23
EndSplineSet
EndChar

StartChar: less
Encoding: 60 60 31
Width: 508
Flags: W
LayerCount: 2
Fore
SplineSet
465 384 m 0,0,1
 452 384 452 384 361 344 c 128,-1,2
 270 304 270 304 221 278 c 1,3,-1
 264 251 l 2,4,5
 322 214 322 214 372 200 c 128,-1,6
 422 186 422 186 438 202 c 0,7,8
 447 211 447 211 456 202 c 0,9,10
 464 194 464 194 456 170.5 c 128,-1,11
 448 147 448 147 432 132 c 0,12,13
 419 121 419 121 422 99 c 0,14,15
 424 85 424 85 422 82.5 c 128,-1,16
 420 80 420 80 407 84 c 0,17,18
 360 100 360 100 271.5 144 c 128,-1,19
 183 188 183 188 136 205 c 0,20,21
 91 223 91 223 61 243 c 0,22,23
 38 257 38 257 32.5 264 c 128,-1,24
 27 271 27 271 33 277 c 0,25,26
 58 302 58 302 240 389 c 0,27,28
 318 426 318 426 328 436 c 0,29,30
 333 441 333 441 367.5 455.5 c 128,-1,31
 402 470 402 470 408 481 c 0,32,33
 412 490 412 490 418 493.5 c 128,-1,34
 424 497 424 497 429 494 c 128,-1,35
 434 491 434 491 437 482 c 0,36,37
 450 441 450 441 478 390 c 0,38,39
 479 387 479 387 475.5 385.5 c 128,-1,40
 472 384 472 384 465 384 c 0,0,1
EndSplineSet
EndChar

StartChar: equal
Encoding: 61 61 32
Width: 420
Flags: W
LayerCount: 2
Fore
SplineSet
34 234 m 1,0,1
 57 237 57 237 378 237 c 1,2,-1
 380 211 l 2,3,4
 381 195 381 195 378 189.5 c 128,-1,5
 375 184 375 184 364 181 c 0,6,7
 337 174 337 174 192.5 176 c 128,-1,8
 48 178 48 178 40 186 c 0,9,10
 33 193 33 193 31 210.5 c 128,-1,11
 29 228 29 228 34 234 c 1,0,1
390 327 m 0,12,13
 390 308 390 308 354.5 302 c 128,-1,14
 319 296 319 296 205 296 c 0,15,16
 94 296 94 296 62 301.5 c 128,-1,17
 30 307 30 307 30 327 c 0,18,19
 30 348 30 348 55.5 354.5 c 128,-1,20
 81 361 81 361 175 362 c 0,21,22
 244 363 244 363 286.5 363 c 128,-1,23
 329 363 329 363 352 358.5 c 128,-1,24
 375 354 375 354 382.5 347 c 128,-1,25
 390 340 390 340 390 327 c 0,12,13
EndSplineSet
EndChar

StartChar: greater
Encoding: 62 62 33
Width: 474
Flags: W
LayerCount: 2
Fore
SplineSet
34 112 m 0,0,1
 30 112 30 112 30 124 c 128,-1,2
 30 136 30 136 33 155.5 c 128,-1,3
 36 175 36 175 42 198 c 0,4,5
 59 263 59 263 81 260 c 0,6,7
 86 259 86 259 91 253 c 0,8,9
 97 245 97 245 108 244.5 c 128,-1,10
 119 244 119 244 159 252 c 0,11,12
 218 263 218 263 249 279 c 0,13,14
 278 295 278 295 289 291 c 0,15,16
 299 288 299 288 309 298 c 0,17,18
 318 309 318 309 300 313 c 0,19,20
 293 314 293 314 281 316 c 0,21,22
 252 320 252 320 178 348 c 128,-1,23
 104 376 104 376 82 380 c 0,24,25
 71 382 71 382 62 385 c 128,-1,26
 53 388 53 388 48 391 c 128,-1,27
 43 394 43 394 44 396 c 0,28,29
 46 404 46 404 51 462 c 0,30,31
 57 526 57 526 68 519 c 0,32,33
 71 517 71 517 75 508 c 256,34,35
 79 499 79 499 93.5 490 c 128,-1,36
 108 481 108 481 166 453 c 0,37,38
 263 405 263 405 346 372 c 0,39,40
 412 346 412 346 430.5 329.5 c 128,-1,41
 449 313 449 313 441 287 c 0,42,43
 434 263 434 263 422 255 c 0,44,45
 367 228 367 228 246 190 c 128,-1,46
 125 152 125 152 73 127 c 0,47,48
 37 112 37 112 34 112 c 0,0,1
EndSplineSet
EndChar

StartChar: question
Encoding: 63 63 34
Width: 306
Flags: W
LayerCount: 2
Fore
SplineSet
101 128 m 0,0,1
 118 145 118 145 154.5 144.5 c 128,-1,2
 191 144 191 144 210 126 c 0,3,4
 227 110 227 110 227.5 97 c 128,-1,5
 228 84 228 84 211 66 c 0,6,7
 192 46 192 46 152 46 c 128,-1,8
 112 46 112 46 98 66 c 0,9,10
 74 101 74 101 101 128 c 0,0,1
117 235 m 0,11,12
 119 247 119 247 164.5 328 c 128,-1,13
 210 409 210 409 213 424 c 0,14,15
 218 446 218 446 217 456 c 128,-1,16
 216 466 216 466 206 479 c 0,17,18
 190 501 190 501 168 502 c 128,-1,19
 146 503 146 503 124 483 c 0,20,21
 109 468 109 468 105 462 c 128,-1,22
 101 456 101 456 104 452 c 128,-1,23
 107 448 107 448 121 442 c 0,24,25
 164 422 164 422 103 395 c 0,26,27
 100 394 100 394 97 393 c 0,28,29
 45 371 45 371 34.5 382 c 128,-1,30
 24 393 24 393 41 450 c 0,31,32
 64 527 64 527 122 548 c 0,33,34
 160 561 160 561 194 559.5 c 128,-1,35
 228 558 228 558 242 542 c 0,36,37
 256 525 256 525 267 487 c 128,-1,38
 278 449 278 449 274 430 c 0,39,40
 259 378 259 378 222 284 c 0,41,42
 208 248 208 248 207.5 232.5 c 128,-1,43
 207 217 207 217 220 209 c 0,44,45
 235 201 235 201 236 189.5 c 128,-1,46
 237 178 237 178 223 174 c 0,47,48
 158 155 158 155 118 169 c 0,49,50
 85 180 85 180 80.5 188 c 128,-1,51
 76 196 76 196 95 210 c 0,52,53
 117 226 117 226 117 235 c 0,11,12
EndSplineSet
EndChar

StartChar: at
Encoding: 64 64 35
Width: 493
Flags: W
LayerCount: 2
Fore
SplineSet
259 262 m 0,0,1
 267 284 267 284 262 378 c 1,2,-1
 236 349 l 2,3,4
 196 304 196 304 215 253 c 0,5,6
 221 237 221 237 236.5 240.5 c 128,-1,7
 252 244 252 244 259 262 c 0,0,1
306 332 m 0,8,9
 306 283 306 283 317 266 c 128,-1,10
 328 249 328 249 354 254 c 0,11,12
 384 260 384 260 402 305 c 128,-1,13
 420 350 420 350 399 368 c 0,14,15
 388 378 388 378 391 386 c 0,16,17
 399 410 399 410 354 444.5 c 128,-1,18
 309 479 309 479 266 481 c 0,19,20
 214 484 214 484 169 461 c 128,-1,21
 124 438 124 438 109 400 c 0,22,23
 97 368 97 368 89 368 c 0,24,25
 82 368 82 368 82 302 c 0,26,27
 82 241 82 241 95.5 211.5 c 128,-1,28
 109 182 109 182 149 157 c 0,29,30
 186 134 186 134 224.5 132.5 c 128,-1,31
 263 131 263 131 291 151 c 0,32,33
 316 169 316 169 347 164 c 0,34,35
 360 162 360 162 371 156.5 c 128,-1,36
 382 151 382 151 384 146 c 0,37,38
 388 135 388 135 365 116 c 128,-1,39
 342 97 342 97 324 96 c 0,40,41
 305 96 305 96 302 88 c 0,42,43
 295 78 295 78 223 80.5 c 128,-1,44
 151 83 151 83 132 94 c 0,45,46
 102 113 102 113 79.5 136.5 c 128,-1,47
 57 160 57 160 53 179 c 0,48,49
 49 204 49 204 39 210 c 0,50,51
 30 214 30 214 30 298 c 0,52,53
 30 351 30 351 33.5 371 c 128,-1,54
 37 391 37 391 49 412 c 0,55,56
 104 508 104 508 205 533 c 0,57,58
 245 543 245 543 256.5 543 c 128,-1,59
 268 543 268 543 299 533 c 0,60,61
 364 514 364 514 397.5 481.5 c 128,-1,62
 431 449 431 449 450 388 c 0,63,64
 485 270 485 270 434 224 c 0,65,66
 406 198 406 198 359 188 c 128,-1,67
 312 178 312 178 296 194 c 0,68,69
 290 201 290 201 285 201 c 128,-1,70
 280 201 280 201 266 194 c 0,71,72
 245 183 245 183 220 184.5 c 128,-1,73
 195 186 195 186 179 199 c 0,74,75
 166 209 166 209 163 221 c 128,-1,76
 160 233 160 233 160 269 c 0,77,78
 159 315 159 315 170 342.5 c 128,-1,79
 181 370 181 370 210 395 c 0,80,81
 257 435 257 435 281.5 419 c 128,-1,82
 306 403 306 403 306 332 c 0,8,9
EndSplineSet
EndChar

StartChar: A
Encoding: 65 65 36
Width: 533
Flags: W
LayerCount: 2
Fore
SplineSet
299 406 m 0,0,1
 276 460 276 460 256 398 c 0,2,3
 246 366 246 366 227 330 c 0,4,5
 206 294 206 294 212 290 c 0,6,7
 217 286 217 286 277 286 c 128,-1,8
 337 286 337 286 342 291 c 128,-1,9
 347 296 347 296 299 406 c 0,0,1
425 88 m 0,10,11
 338 88 338 88 337 103 c 0,12,13
 337 108 337 108 343 115 c 0,14,15
 352 125 352 125 344.5 147 c 128,-1,16
 337 169 337 169 320 182 c 0,17,18
 302 196 302 196 261 198.5 c 128,-1,19
 220 201 220 201 203 189 c 0,20,21
 182 174 182 174 194 92 c 0,22,23
 195 81 195 81 184 78.5 c 128,-1,24
 173 76 173 76 120 74 c 0,25,26
 36 71 36 71 30 84 c 0,27,28
 27 93 27 93 53 122 c 0,29,30
 75 145 75 145 87.5 168 c 128,-1,31
 100 191 100 191 123 248 c 0,32,33
 134 276 134 276 151.5 327.5 c 128,-1,34
 169 379 169 379 189 422 c 0,35,36
 216 478 216 478 216 489 c 0,37,38
 216 504 216 504 239.5 528.5 c 128,-1,39
 263 553 263 553 279 554 c 0,40,41
 298 557 298 557 311 553 c 0,42,43
 322 549 322 549 349 487 c 128,-1,44
 376 425 376 425 403 340 c 0,45,46
 447 202 447 202 462.5 162 c 128,-1,47
 478 122 478 122 489 114 c 0,48,49
 515 96 515 96 489 91 c 0,50,51
 472 88 472 88 425 88 c 0,10,11
EndSplineSet
EndChar

StartChar: B
Encoding: 66 66 37
Width: 391
Flags: W
LayerCount: 2
Fore
SplineSet
112 267 m 0,0,1
 105 258 105 258 105 136 c 1,2,3
 145 134 145 134 192 140.5 c 128,-1,4
 239 147 239 147 251 158 c 0,5,6
 263 170 263 170 263.5 201 c 128,-1,7
 264 232 264 232 252 246 c 0,8,9
 243 257 243 257 228.5 261.5 c 128,-1,10
 214 266 214 266 177 269 c 0,11,12
 118 274 118 274 112 267 c 0,0,1
248 480 m 0,13,14
 213 498 213 498 120 496 c 1,15,-1
 126 364 l 1,16,-1
 165 364 l 2,17,18
 218 366 218 366 257.5 394.5 c 128,-1,19
 297 423 297 423 287 451 c 0,20,21
 284 460 284 460 248 480 c 0,13,14
361 417 m 0,22,23
 361 397 361 397 344 374 c 128,-1,24
 327 351 327 351 302 335 c 0,25,26
 285 324 285 324 286 320 c 1,27,28
 294 320 294 320 320 298 c 0,29,30
 338 282 338 282 341.5 270 c 128,-1,31
 345 258 345 258 345 210 c 2,32,-1
 345 146 l 1,33,34
 299 104 299 104 265.5 89.5 c 128,-1,35
 232 75 232 75 140 67 c 0,36,37
 40 58 40 58 31 96 c 0,38,39
 26 115 26 115 34 181 c 0,40,41
 37 207 37 207 39 366.5 c 128,-1,42
 41 526 41 526 44 551 c 1,43,44
 51 561 51 561 134.5 560 c 128,-1,45
 218 559 218 559 254 548 c 0,46,47
 301 534 301 534 331 497 c 128,-1,48
 361 460 361 460 361 417 c 0,22,23
EndSplineSet
EndChar

StartChar: C
Encoding: 67 67 38
Width: 531
Flags: W
LayerCount: 2
Fore
SplineSet
471 478 m 0,0,1
 471 476 471 476 488 450 c 128,-1,2
 505 424 505 424 500 418 c 0,3,4
 495 411 495 411 449 406 c 128,-1,5
 403 401 403 401 375 405 c 0,6,7
 365 407 365 407 359.5 408 c 128,-1,8
 354 409 354 409 351.5 411 c 128,-1,9
 349 413 349 413 349 415 c 128,-1,10
 349 417 349 417 352 421 c 0,11,12
 362 434 362 434 345.5 448.5 c 128,-1,13
 329 463 329 463 293 472 c 0,14,15
 269 482 269 482 250 473 c 128,-1,16
 231 464 231 464 222 464 c 0,17,18
 210 464 210 464 180.5 439 c 128,-1,19
 151 414 151 414 151 404 c 0,20,21
 151 395 151 395 134 372 c 0,22,23
 122 358 122 358 120 344 c 128,-1,24
 118 330 118 330 121 289 c 0,25,26
 125 231 125 231 131.5 216.5 c 128,-1,27
 138 202 138 202 168 181 c 0,28,29
 190 165 190 165 203.5 162.5 c 128,-1,30
 217 160 217 160 252 163 c 0,31,32
 314 169 314 169 322 180 c 128,-1,33
 330 191 330 191 317 225 c 1,34,35
 330 224 330 224 363.5 221 c 128,-1,36
 397 218 397 218 424.5 215.5 c 128,-1,37
 452 213 452 213 461 211 c 0,38,39
 469 209 469 209 470.5 204 c 128,-1,40
 472 199 472 199 467 193.5 c 128,-1,41
 462 188 462 188 451 184 c 0,42,43
 431 177 431 177 431 169 c 0,44,45
 431 160 431 160 401.5 132 c 128,-1,46
 372 104 372 104 352 93 c 0,47,48
 329 82 329 82 261.5 81.5 c 128,-1,49
 194 81 194 81 150 92 c 0,50,51
 109 102 109 102 88 118.5 c 128,-1,52
 67 135 67 135 49 170 c 1,53,54
 29 195 29 195 29 257 c 128,-1,55
 29 319 29 319 41 351 c 0,56,57
 67 437 67 437 90 455 c 0,58,59
 103 466 103 466 103 475 c 0,60,61
 103 490 103 490 137 515.5 c 128,-1,62
 171 541 171 541 205 552 c 0,63,64
 246 565 246 565 281.5 563 c 128,-1,65
 317 561 317 561 377 542 c 0,66,67
 414 531 414 531 442.5 511.5 c 128,-1,68
 471 492 471 492 471 478 c 0,0,1
EndSplineSet
EndChar

StartChar: D
Encoding: 68 68 39
Width: 520
Flags: W
LayerCount: 2
Fore
SplineSet
352 400 m 0,0,1
 307 420 307 420 178 426 c 1,2,3
 177 354 177 354 178.5 254 c 128,-1,4
 180 154 180 154 183 153 c 0,5,6
 188 148 188 148 243 150 c 0,7,8
 291 151 291 151 330.5 168.5 c 128,-1,9
 370 186 370 186 390 214 c 0,10,11
 404 234 404 234 408.5 279 c 128,-1,12
 413 324 413 324 403 354 c 0,13,14
 397 371 397 371 387 380 c 128,-1,15
 377 389 377 389 352 400 c 0,0,1
231 528 m 0,16,17
 251 528 251 528 294 516.5 c 128,-1,18
 337 505 337 505 350 504 c 0,19,20
 361 506 361 506 400 477 c 128,-1,21
 439 448 439 448 440 448 c 0,22,23
 445 448 445 448 469 399 c 0,24,25
 485 365 485 365 487.5 346 c 128,-1,26
 490 327 490 327 488 269 c 0,27,28
 486 214 486 214 482.5 196 c 128,-1,29
 479 178 479 178 466 162 c 0,30,31
 431 120 431 120 354 91 c 0,32,33
 310 74 310 74 202 73 c 0,34,35
 162 73 162 73 128 71.5 c 128,-1,36
 94 70 94 70 76 70 c 128,-1,37
 58 70 58 70 30 73 c 1,38,39
 32 75 32 75 40.5 81.5 c 128,-1,40
 49 88 49 88 54 92 c 128,-1,41
 59 96 59 96 66 100 c 128,-1,42
 73 104 73 104 78 104 c 0,43,44
 88 104 88 104 88 162 c 0,45,46
 88 170 88 170 89 213 c 128,-1,47
 90 256 90 256 90.5 301.5 c 128,-1,48
 91 347 91 347 91 395.5 c 128,-1,49
 91 444 91 444 88 477.5 c 128,-1,50
 85 511 85 511 79 515 c 0,51,52
 68 539 68 539 71 546 c 0,53,54
 79 558 79 558 150 540 c 0,55,56
 202 528 202 528 231 528 c 0,16,17
EndSplineSet
EndChar

StartChar: E
Encoding: 69 69 40
Width: 461
Flags: W
LayerCount: 2
Fore
SplineSet
236 560 m 0,0,1
 239 560 239 560 244 560 c 0,2,3
 384 560 384 560 406 552 c 128,-1,4
 428 544 428 544 423 494 c 0,5,6
 423 491 423 491 423 490 c 0,7,8
 419 448 419 448 409 441.5 c 128,-1,9
 399 435 399 435 380 452 c 0,10,11
 358 467 358 467 327 477 c 0,12,13
 281 491 281 491 224.5 483 c 128,-1,14
 168 475 168 475 154 453 c 0,15,16
 147 442 147 442 148.5 405.5 c 128,-1,17
 150 369 150 369 158 362 c 0,18,19
 170 352 170 352 221 347 c 0,20,21
 256 343 256 343 271.5 346 c 128,-1,22
 287 349 287 349 316 363 c 0,23,24
 346 379 346 379 354 380 c 128,-1,25
 362 381 362 381 369 371 c 0,26,27
 380 356 380 356 380 311 c 0,28,29
 380 265 380 265 367.5 255.5 c 128,-1,30
 355 246 355 246 309 258 c 0,31,32
 271 267 271 267 220.5 262.5 c 128,-1,33
 170 258 170 258 156 244 c 0,34,35
 145 233 145 233 156 211 c 0,36,37
 163 197 163 197 174.5 191.5 c 128,-1,38
 186 186 186 186 221 178 c 0,39,40
 279 165 279 165 315.5 172.5 c 128,-1,41
 352 180 352 180 384 209 c 0,42,43
 418 241 418 241 426 230 c 0,44,45
 434 220 434 220 430.5 164 c 128,-1,46
 427 108 427 108 418 98 c 0,47,48
 410 88 410 88 223 88 c 0,49,50
 32 88 32 88 30 100 c 0,51,52
 29 104 29 104 40 110 c 0,53,54
 49 115 49 115 51 151.5 c 128,-1,55
 53 188 53 188 52 324 c 0,56,57
 51 457 51 457 49 496.5 c 128,-1,58
 47 536 47 536 40 544 c 0,59,60
 29 556 29 556 33.5 562.5 c 128,-1,61
 38 569 38 569 56 565 c 0,62,63
 78 560 78 560 236 560 c 0,0,1
EndSplineSet
EndChar

StartChar: F
Encoding: 70 70 41
Width: 434
Flags: W
LayerCount: 2
Fore
SplineSet
392 440 m 128,-1,1
 380 440 380 440 376 448 c 0,2,3
 363 470 363 470 301 477.5 c 128,-1,4
 239 485 239 485 201 468 c 0,5,6
 179 459 179 459 171.5 443 c 128,-1,7
 164 427 164 427 164 387 c 0,8,9
 164 364 164 364 168 357.5 c 128,-1,10
 172 351 172 351 188 344 c 0,11,12
 211 334 211 334 244 338 c 128,-1,13
 277 342 277 342 296 358 c 0,14,15
 318 375 318 375 334 369 c 0,16,17
 346 364 346 364 349.5 352.5 c 128,-1,18
 353 341 353 341 354 297 c 0,19,20
 356 253 356 253 353.5 242.5 c 128,-1,21
 351 232 351 232 341 232 c 0,22,23
 327 232 327 232 319 240 c 0,24,25
 308 251 308 251 254 255 c 128,-1,26
 200 259 200 259 184 250 c 0,27,28
 169 243 169 243 166.5 232 c 128,-1,29
 164 221 164 221 164 172 c 0,30,31
 164 104 164 104 172 100 c 0,32,33
 195 85 195 85 154 81 c 0,34,35
 138 80 138 80 112 80 c 0,36,37
 45 80 45 80 41 91 c 128,-1,38
 37 102 37 102 48 113 c 0,39,40
 56 119 56 119 58 151.5 c 128,-1,41
 60 184 60 184 59 283 c 0,42,43
 59 448 59 448 60 452 c 0,44,45
 63 463 63 463 55.5 495 c 128,-1,46
 48 527 48 527 38 541 c 0,47,48
 28 558 28 558 31 567 c 0,49,50
 36 575 36 575 209 575 c 128,-1,51
 382 575 382 575 392 567 c 0,52,53
 404 556 404 556 404 498 c 128,-1,0
 404 440 404 440 392 440 c 128,-1,1
EndSplineSet
EndChar

StartChar: G
Encoding: 71 71 42
Width: 527
Flags: W
LayerCount: 2
Fore
SplineSet
291 209 m 0,0,1
 291 224 291 224 286 228 c 128,-1,2
 281 232 281 232 261 234 c 0,3,4
 243 235 243 235 236.5 239.5 c 128,-1,5
 230 244 230 244 227 256 c 0,6,7
 218 291 218 291 235 297.5 c 128,-1,8
 252 304 252 304 356 304 c 0,9,10
 451 304 451 304 468 301.5 c 128,-1,11
 485 299 485 299 492 285 c 0,12,13
 500 268 500 268 495.5 254 c 128,-1,14
 491 240 491 240 477 235 c 0,15,16
 430 220 430 220 418 191 c 0,17,18
 412 177 412 177 403.5 170.5 c 128,-1,19
 395 164 395 164 390 150 c 0,20,21
 377 110 377 110 336 91.5 c 128,-1,22
 295 73 295 73 216 72 c 0,23,24
 142 72 142 72 112.5 84.5 c 128,-1,25
 83 97 83 97 60 138 c 0,26,27
 14 218 14 218 40 361 c 0,28,29
 53 430 53 430 71.5 456 c 128,-1,30
 90 482 90 482 149 514 c 0,31,32
 190 536 190 536 207 539.5 c 128,-1,33
 224 543 224 543 269 541 c 0,34,35
 308 539 308 539 326.5 534 c 128,-1,36
 345 529 345 529 365 515 c 0,37,38
 416 480 416 480 439 437 c 0,39,40
 452 411 452 411 440 402.5 c 128,-1,41
 428 394 428 394 380 393 c 0,42,43
 323 392 323 392 303 398 c 128,-1,44
 283 404 283 404 278 421 c 0,45,46
 267 460 267 460 227.5 450 c 128,-1,47
 188 440 188 440 162 393 c 0,48,49
 150 370 150 370 146.5 351 c 128,-1,50
 143 332 143 332 144 295 c 0,51,52
 145 219 145 219 170 186.5 c 128,-1,53
 195 154 195 154 239 168 c 0,54,55
 277 181 277 181 284 186.5 c 128,-1,56
 291 192 291 192 291 209 c 0,0,1
EndSplineSet
EndChar

StartChar: H
Encoding: 72 72 43
Width: 478
Flags: W
LayerCount: 2
Fore
SplineSet
113 564 m 0,0,1
 164 564 164 564 178 561.5 c 128,-1,2
 192 559 192 559 194 550 c 0,3,4
 197 537 197 537 177 518 c 0,5,6
 159 502 159 502 156.5 488 c 128,-1,7
 154 474 154 474 155 410 c 2,8,-1
 155 344 l 1,9,-1
 336 344 l 1,10,11
 336 354 336 354 335.5 381 c 128,-1,12
 335 408 335 408 334 429.5 c 128,-1,13
 333 451 333 451 331.5 475 c 128,-1,14
 330 499 330 499 326.5 513.5 c 128,-1,15
 323 528 323 528 318 530 c 0,16,17
 296 553 296 553 334 557 c 0,18,19
 351 559 351 559 385 558 c 2,20,-1
 448 556 l 1,21,22
 446 505 446 505 432 490 c 0,23,24
 420 478 420 478 420 454 c 0,25,26
 418 335 418 335 421 228 c 128,-1,27
 424 121 424 121 428 117 c 0,28,29
 442 95 442 95 429 91 c 0,30,31
 421 88 421 88 368 88 c 0,32,33
 300 88 300 88 300 99 c 0,34,35
 300 112 300 112 308 116 c 0,36,37
 314 118 314 118 316 144 c 128,-1,38
 318 170 318 170 324 172 c 0,39,40
 332 178 332 178 332 264 c 1,41,-1
 152 264 l 1,42,43
 157 135 157 135 172 115 c 0,44,45
 188 94 188 94 188 85 c 0,46,47
 190 82 190 82 150.5 80.5 c 128,-1,48
 111 79 111 79 72 80.5 c 128,-1,49
 33 82 33 82 36 87 c 0,50,51
 36 95 36 95 54 126 c 0,52,53
 67 148 67 148 69.5 177 c 128,-1,54
 72 206 72 206 72 330 c 2,55,-1
 72 503 l 1,56,57
 27 544 27 544 30 558 c 0,58,59
 34 564 34 564 113 564 c 0,0,1
EndSplineSet
EndChar

StartChar: I
Encoding: 73 73 44
Width: 218
Flags: W
LayerCount: 2
Fore
SplineSet
188 82 m 0,0,1
 188 79 188 79 150.5 77.5 c 128,-1,2
 113 76 113 76 73.5 77 c 128,-1,3
 34 78 34 78 31 82 c 0,4,5
 25 86 25 86 44 118 c 0,6,7
 58 141 58 141 61 171 c 128,-1,8
 64 201 64 201 64 333 c 0,9,10
 64 458 64 458 61.5 490.5 c 128,-1,11
 59 523 59 523 49 534 c 0,12,13
 34 551 34 551 40 559 c 0,14,15
 44 567 44 567 112 567.5 c 128,-1,16
 180 568 180 568 184 560 c 0,17,18
 188 553 188 553 168 509 c 0,19,20
 155 480 155 480 152 455.5 c 128,-1,21
 149 431 149 431 148 347 c 0,22,23
 147 243 147 243 152 196 c 128,-1,24
 157 149 157 149 172 118 c 0,25,26
 188 88 188 88 188 82 c 0,0,1
EndSplineSet
EndChar

StartChar: J
Encoding: 74 74 45
Width: 438
Flags: W
LayerCount: 2
Fore
SplineSet
200 72 m 0,0,1
 162 72 162 72 149 75.5 c 128,-1,2
 136 79 136 79 120 94 c 0,3,4
 109 104 109 104 77 150 c 128,-1,5
 45 196 45 196 37 204 c 0,6,7
 16 216 16 216 53 221 c 0,8,9
 72 224 72 224 104 224 c 0,10,11
 170 224 170 224 177 214 c 0,12,13
 182 205 182 205 174 202 c 0,14,15
 165 199 165 199 152 186 c 1,16,17
 133 176 133 176 159 158 c 0,18,19
 184 141 184 141 196 148 c 0,20,21
 207 152 207 152 210 167 c 128,-1,22
 213 182 213 182 214 242 c 0,23,24
 217 389 217 389 205 449 c 0,25,26
 196 500 196 500 136 467 c 0,27,28
 107 451 107 451 95.5 459.5 c 128,-1,29
 84 468 84 468 84 506 c 0,30,31
 84 549 84 549 90 555 c 1,32,33
 122 560 122 560 408 556 c 1,34,35
 411 465 411 465 401 450 c 0,36,37
 397 444 397 444 360 463 c 0,38,39
 322 482 322 482 296 475 c 0,40,41
 283 472 283 472 289 463 c 0,42,43
 294 455 294 455 293.5 294.5 c 128,-1,44
 293 134 293 134 288 118 c 0,45,46
 280 90 280 90 263 81 c 128,-1,47
 246 72 246 72 200 72 c 0,0,1
EndSplineSet
EndChar

StartChar: K
Encoding: 75 75 46
Width: 452
Flags: W
LayerCount: 2
Fore
SplineSet
136 457 m 0,0,1
 136 396 136 396 142 374 c 128,-1,2
 148 352 148 352 165 352 c 0,3,4
 187 352 187 352 221.5 386.5 c 128,-1,5
 256 421 256 421 276 463 c 0,6,7
 292 498 292 498 293.5 507 c 128,-1,8
 295 516 295 516 284 523 c 0,9,10
 270 534 270 534 274 546 c 0,11,12
 279 558 279 558 347 558 c 0,13,14
 411 558 411 558 419 553 c 0,15,16
 428 546 428 546 411 528 c 0,17,18
 391 507 391 507 363.5 470 c 128,-1,19
 336 433 336 433 336 426 c 0,20,21
 336 418 336 418 319 403 c 0,22,23
 307 393 307 393 284 360.5 c 128,-1,24
 261 328 261 328 248 304 c 0,25,26
 240 288 240 288 254 274 c 0,27,28
 329 191 329 191 355 176 c 0,29,30
 376 164 376 164 396 137 c 128,-1,31
 416 110 416 110 416 95 c 0,32,33
 416 86 416 86 406 84 c 128,-1,34
 396 82 396 82 356 82 c 0,35,36
 312 83 312 83 305 85.5 c 128,-1,37
 298 88 298 88 301 101 c 0,38,39
 306 119 306 119 291 134 c 0,40,41
 250 172 250 172 210.5 206 c 128,-1,42
 171 240 171 240 167 240 c 0,43,44
 156 240 156 240 147.5 220 c 128,-1,45
 139 200 139 200 145 186 c 0,46,47
 148 178 148 178 151 146 c 128,-1,48
 154 114 154 114 162 106 c 0,49,50
 181 87 181 87 148 80 c 0,51,52
 128 75 128 75 94 78 c 0,53,54
 82 79 82 79 62 79 c 0,55,56
 39 79 39 79 35 82.5 c 128,-1,57
 31 86 31 86 42 106 c 0,58,59
 58 130 58 130 61.5 168 c 128,-1,60
 65 206 65 206 65 334 c 0,61,62
 65 455 65 455 62 480 c 128,-1,63
 59 505 59 505 44 525 c 0,64,65
 28 548 28 548 31 552.5 c 128,-1,66
 34 557 34 557 68 562 c 0,67,68
 96 566 96 566 101 567 c 0,69,70
 144 567 144 567 162 551 c 0,71,72
 176 538 176 538 153 523 c 0,73,74
 142 515 142 515 139 503 c 128,-1,75
 136 491 136 491 136 457 c 0,0,1
EndSplineSet
EndChar

StartChar: L
Encoding: 76 76 47
Width: 469
Flags: W
LayerCount: 2
Fore
SplineSet
69 544 m 0,0,1
 63 544 63 544 66 536 c 0,2,3
 70 528 70 528 79 528 c 0,4,5
 89 532 89 532 78 541 c 0,6,7
 72 545 72 545 69 544 c 0,0,1
102 568 m 0,8,9
 174 568 174 568 174 549 c 0,10,11
 174 541 174 541 161 527 c 0,12,13
 151 516 151 516 148.5 489 c 128,-1,14
 146 462 146 462 144 357 c 0,15,16
 141 205 141 205 152 190 c 128,-1,17
 163 175 163 175 226 174 c 0,18,19
 266 173 266 173 285.5 176 c 128,-1,20
 305 179 305 179 330 191 c 0,21,22
 369 209 369 209 392 230 c 0,23,24
 421 257 421 257 429 239 c 0,25,26
 436 224 436 224 437 162 c 2,27,-1
 439 82 l 1,28,29
 396 77 396 77 328 77 c 128,-1,30
 260 77 260 77 162.5 79.5 c 128,-1,31
 65 82 65 82 30 82 c 1,32,33
 30 120 30 120 37 123 c 0,34,35
 54 133 54 133 55 342 c 0,36,37
 56 498 56 498 42 525 c 0,38,39
 27 556 27 556 36 562 c 128,-1,40
 45 568 45 568 102 568 c 0,8,9
EndSplineSet
EndChar

StartChar: M
Encoding: 77 77 48
Width: 585
Flags: W
LayerCount: 2
Fore
SplineSet
188 272 m 0,0,1
 182 272 182 272 169 246 c 0,2,3
 156 221 156 221 160 161 c 0,4,5
 163 103 163 103 170 83 c 0,6,7
 174 71 174 71 168 67.5 c 128,-1,8
 162 64 162 64 132 62 c 0,9,10
 26 55 26 55 30 90 c 0,11,12
 31 101 31 101 43 114 c 0,13,14
 53 125 53 125 56.5 158.5 c 128,-1,15
 60 192 60 192 61 311 c 0,16,17
 63 433 63 433 61 465 c 128,-1,18
 59 497 59 497 50 507 c 0,19,20
 25 532 25 532 57 538 c 0,21,22
 76 542 76 542 118 541 c 0,23,24
 195 540 195 540 196 526 c 0,25,26
 196 520 196 520 185 509 c 0,27,28
 153 477 153 477 218 397 c 0,29,30
 254 354 254 354 254 346 c 0,31,32
 254 335 254 335 272.5 315.5 c 128,-1,33
 291 296 291 296 302 296 c 0,34,35
 316 296 316 296 332 326 c 0,36,37
 344 350 344 350 380 418 c 0,38,39
 409 470 409 470 412 488.5 c 128,-1,40
 415 507 415 507 397 518 c 0,41,42
 374 532 374 532 395 545 c 0,43,44
 408 552 408 552 432 554 c 0,45,46
 465 556 465 556 497.5 553 c 128,-1,47
 530 550 530 550 536 544 c 0,48,49
 544 538 544 538 529 516 c 0,50,51
 515 496 515 496 514 434 c 0,52,53
 513 363 513 363 523.5 257 c 128,-1,54
 534 151 534 151 545 125 c 0,55,56
 562 86 562 86 551.5 75.5 c 128,-1,57
 541 65 541 65 489 67 c 0,58,59
 427 71 427 71 424 75 c 0,60,61
 422 76 422 76 423 84 c 128,-1,62
 424 92 424 92 428 98 c 0,63,64
 443 126 443 126 441 187.5 c 128,-1,65
 439 249 439 249 425 279 c 0,66,67
 422 282 422 282 410.5 269.5 c 128,-1,68
 399 257 399 257 382.5 231 c 128,-1,69
 366 205 366 205 350 174 c 0,70,71
 326 127 326 127 309.5 112.5 c 128,-1,72
 293 98 293 98 278.5 110.5 c 128,-1,73
 264 123 264 123 246 168 c 0,74,75
 203 272 203 272 188 272 c 0,0,1
EndSplineSet
EndChar

StartChar: N
Encoding: 78 78 49
Width: 492
Flags: W
LayerCount: 2
Fore
SplineSet
334 465 m 0,0,1
 334 476 334 476 322.5 506 c 128,-1,2
 311 536 311 536 313 546 c 0,3,4
 315 555 315 555 370 557 c 128,-1,5
 425 559 425 559 445 551 c 0,6,7
 458 547 458 547 460 540.5 c 128,-1,8
 462 534 462 534 458 514 c 0,9,10
 452 483 452 483 444 478 c 0,11,12
 435 473 435 473 436 313 c 128,-1,13
 437 153 437 153 445 142 c 128,-1,14
 453 131 453 131 462 67 c 1,15,-1
 346 67 l 1,16,17
 346 83 346 83 346 95 c 128,-1,18
 346 107 346 107 346 116.5 c 128,-1,19
 346 126 346 126 344.5 134.5 c 128,-1,20
 343 143 343 143 339.5 151.5 c 128,-1,21
 336 160 336 160 329.5 169.5 c 128,-1,22
 323 179 323 179 313 190 c 0,23,24
 278 230 278 230 278 241 c 0,25,26
 278 249 278 249 217.5 316.5 c 128,-1,27
 157 384 157 384 144 391 c 0,28,29
 134 395 134 395 133 382 c 0,30,31
 130 369 130 369 132 298 c 0,32,33
 135 119 135 119 153 98 c 0,34,35
 167 80 167 80 130 75 c 0,36,37
 113 73 113 73 85 74 c 0,38,39
 42 75 42 75 33.5 82.5 c 128,-1,40
 25 90 25 90 38 113 c 0,41,42
 46 125 46 125 46 310 c 0,43,44
 44 520 44 520 42 527 c 0,45,46
 41 529 41 529 37 534 c 0,47,48
 26 547 26 547 52 551 c 0,49,50
 68 553 68 553 102 554 c 0,51,52
 148 557 148 557 156 554.5 c 128,-1,53
 164 552 164 552 174 522 c 128,-1,54
 184 492 184 492 235.5 426 c 128,-1,55
 287 360 287 360 298 340 c 0,56,57
 349 247 349 247 355 317 c 0,58,59
 356 338 356 338 353 374 c 0,60,61
 348 433 348 433 341 437 c 0,62,63
 334 440 334 440 334 465 c 0,0,1
EndSplineSet
EndChar

StartChar: O
Encoding: 79 79 50
Width: 435
Flags: W
LayerCount: 2
Fore
SplineSet
269 422 m 0,0,1
 248 437 248 437 237.5 438.5 c 128,-1,2
 227 440 227 440 202 432 c 0,3,4
 159 418 159 418 136.5 371 c 128,-1,5
 114 324 114 324 121 261 c 0,6,7
 124 230 124 230 129 216.5 c 128,-1,8
 134 203 134 203 149 190 c 0,9,10
 167 174 167 174 182 170 c 128,-1,11
 197 166 197 166 233 168 c 0,12,13
 276 171 276 171 300 222.5 c 128,-1,14
 324 274 324 274 316 335 c 128,-1,15
 308 396 308 396 269 422 c 0,0,1
153 531 m 0,16,17
 180 541 180 541 228.5 541 c 128,-1,18
 277 541 277 541 303 530 c 0,19,20
 327 519 327 519 363 463 c 0,21,22
 391 420 391 420 396.5 403.5 c 128,-1,23
 402 387 402 387 404 332 c 0,24,25
 405 282 405 282 401.5 260.5 c 128,-1,26
 398 239 398 239 381 194 c 0,27,28
 359 138 359 138 339 116.5 c 128,-1,29
 319 95 319 95 284 87 c 0,30,31
 184 68 184 68 114 98.5 c 128,-1,32
 44 129 44 129 33 197 c 0,33,34
 28 233 28 233 33 299 c 128,-1,35
 38 365 38 365 49 401 c 0,36,37
 66 458 66 458 89.5 487 c 128,-1,38
 113 516 113 516 153 531 c 0,16,17
EndSplineSet
EndChar

StartChar: P
Encoding: 80 80 51
Width: 418
Flags: W
LayerCount: 2
Fore
SplineSet
157 399 m 0,0,1
 157 360 157 360 168.5 345.5 c 128,-1,2
 180 331 180 331 215 324 c 0,3,4
 277 312 277 312 309 369 c 0,5,6
 328 406 328 406 321.5 444 c 128,-1,7
 315 482 315 482 291 498 c 0,8,9
 277 503 277 503 249 494 c 128,-1,10
 221 485 221 485 193 467 c 0,11,12
 166 450 166 450 161.5 441.5 c 128,-1,13
 157 433 157 433 157 399 c 0,0,1
272 248 m 2,14,15
 226 248 226 248 208.5 245 c 128,-1,16
 191 242 191 242 177 231 c 0,17,18
 164 221 164 221 160.5 210 c 128,-1,19
 157 199 157 199 157 170 c 0,20,21
 157 125 157 125 173 106 c 0,22,23
 195 77 195 77 185 71 c 0,24,25
 176 64 176 64 113 66 c 0,26,27
 37 70 37 70 31 74 c 0,28,29
 25 82 25 82 41 94 c 0,30,31
 63 113 63 113 70.5 157.5 c 128,-1,32
 78 202 78 202 82 342 c 0,33,34
 85 474 85 474 83.5 500 c 128,-1,35
 82 526 82 526 69 540 c 0,36,37
 51 558 51 558 55 566 c 0,38,39
 58 570 58 570 116 574 c 0,40,41
 151 576 151 576 164.5 573.5 c 128,-1,42
 178 571 178 571 187 562 c 0,43,44
 202 547 202 547 217 553 c 0,45,46
 260 569 260 569 327 546 c 0,47,48
 357 535 357 535 369 521 c 128,-1,49
 381 507 381 507 385 481 c 128,-1,50
 389 455 389 455 387 395 c 0,51,52
 386 369 386 369 384.5 351 c 128,-1,53
 383 333 383 333 382 322 c 128,-1,54
 381 311 381 311 376 300 c 128,-1,55
 371 289 371 289 369 285 c 128,-1,56
 367 281 367 281 358 267.5 c 128,-1,57
 349 254 349 254 345 248 c 1,58,-1
 272 248 l 2,14,15
EndSplineSet
EndChar

StartChar: Q
Encoding: 81 81 52
Width: 457
Flags: W
LayerCount: 2
Fore
SplineSet
289 438 m 1,0,1
 263 465 263 465 228.5 463.5 c 128,-1,2
 194 462 194 462 163.5 438 c 128,-1,3
 133 414 133 414 134 386 c 0,4,5
 134 375 134 375 123 364 c 0,6,7
 113 354 113 354 114 297.5 c 128,-1,8
 115 241 115 241 125 229 c 0,9,10
 134 217 134 217 136 201 c 0,11,12
 138 176 138 176 171.5 159.5 c 128,-1,13
 205 143 205 143 245 142 c 1,14,-1
 240 199 l 2,15,16
 237 236 237 236 238.5 247 c 128,-1,17
 240 258 240 258 250 262 c 0,18,19
 262 271 262 271 286 242 c 128,-1,20
 310 213 310 213 311 200 c 0,21,22
 312 179 312 179 319 207 c 0,23,24
 328 243 328 243 331 288 c 0,25,26
 335 339 335 339 325 371.5 c 128,-1,27
 315 404 315 404 289 438 c 1,0,1
390 43 m 0,28,29
 390 23 390 23 385.5 19.5 c 128,-1,30
 381 16 381 16 358 16 c 0,31,32
 337 16 337 16 329 20 c 128,-1,33
 321 24 321 24 314 40 c 0,34,35
 291 84 291 84 255 70 c 0,36,37
 233 62 233 62 172 69 c 128,-1,38
 111 76 111 76 89 89 c 0,39,40
 29 126 29 126 30 292 c 0,41,42
 31 359 31 359 34 380.5 c 128,-1,43
 37 402 37 402 52 431 c 0,44,45
 71 471 71 471 107 503 c 128,-1,46
 143 535 143 535 176 543 c 0,47,48
 231 555 231 555 280.5 547 c 128,-1,49
 330 539 330 539 358 516 c 0,50,51
 363 512 363 512 372 494.5 c 128,-1,52
 381 477 381 477 388.5 460.5 c 128,-1,53
 396 444 396 444 404.5 423.5 c 128,-1,54
 413 403 413 403 414 400 c 0,55,56
 434 344 434 344 422 273 c 128,-1,57
 410 202 410 202 378 152 c 0,58,59
 348 105 348 105 378 80 c 0,60,61
 390 68 390 68 390 43 c 0,28,29
EndSplineSet
EndChar

StartChar: R
Encoding: 82 82 53
Width: 480
Flags: W
LayerCount: 2
Fore
SplineSet
316 467 m 0,0,1
 297 482 297 482 289.5 485 c 128,-1,2
 282 488 282 488 257 492 c 0,3,4
 240 496 240 496 213 485 c 0,5,6
 190 477 190 477 182 458 c 128,-1,7
 174 439 174 439 173 387 c 2,8,-1
 173 346 l 1,9,-1
 222 349 l 2,10,11
 290 354 290 354 315.5 369.5 c 128,-1,12
 341 385 341 385 341 422 c 0,13,14
 341 448 341 448 316 467 c 0,0,1
349 236 m 0,15,16
 349 225 349 225 373 189 c 0,17,18
 390 165 390 165 398 158.5 c 128,-1,19
 406 152 406 152 417 155 c 0,20,21
 435 159 435 159 443 145.5 c 128,-1,22
 451 132 451 132 450 100 c 2,23,-1
 450 68 l 1,24,25
 370 63 370 63 343 68 c 0,26,27
 327 71 327 71 322 77 c 128,-1,28
 317 83 317 83 313 104 c 128,-1,29
 309 125 309 125 299.5 144 c 128,-1,30
 290 163 290 163 274.5 184 c 128,-1,31
 259 205 259 205 253 217 c 0,32,33
 223 274 223 274 207 229 c 0,34,35
 199 206 199 206 192 154 c 0,36,37
 187 112 187 112 201 96 c 0,38,39
 230 64 230 64 176 60 c 0,40,41
 145 57 145 57 93 65 c 0,42,43
 31 73 31 73 30 83 c 0,44,45
 30 89 30 89 44 96 c 0,46,47
 59 105 59 105 77 131 c 0,48,49
 89 150 89 150 90.5 178.5 c 128,-1,50
 92 207 92 207 90 322 c 0,51,52
 88 484 88 484 74 518 c 0,53,54
 59 553 59 553 65 561 c 0,55,56
 69 568 69 568 79 562 c 0,57,58
 91 556 91 556 213 556 c 0,59,60
 302 556 302 556 323 553.5 c 128,-1,61
 344 551 344 551 362 538 c 0,62,63
 401 510 401 510 413.5 460.5 c 128,-1,64
 426 411 426 411 406 365 c 0,65,66
 395 342 395 342 385 332.5 c 128,-1,67
 375 323 375 323 353 313 c 0,68,69
 332 304 332 304 326 298 c 128,-1,70
 320 292 320 292 322 281 c 0,71,72
 324 271 324 271 336 257.5 c 128,-1,73
 348 244 348 244 349 236 c 0,15,16
EndSplineSet
EndChar

StartChar: S
Encoding: 83 83 54
Width: 434
Flags: W
LayerCount: 2
Fore
SplineSet
210 560 m 0,0,1
 262 560 262 560 292.5 545.5 c 128,-1,2
 323 531 323 531 342 497 c 0,3,4
 360 465 360 465 382 454 c 0,5,6
 407 442 407 442 403.5 427 c 128,-1,7
 400 412 400 412 371 402 c 0,8,9
 340 392 340 392 302 390.5 c 128,-1,10
 264 389 264 389 255 398 c 0,11,12
 251 402 251 402 250.5 407 c 128,-1,13
 250 412 250 412 254.5 420.5 c 128,-1,14
 259 429 259 429 264 435 c 128,-1,15
 269 441 269 441 274 448 c 128,-1,16
 279 455 279 455 281 458 c 2,17,-1
 260 476 l 2,18,19
 235 497 235 497 214.5 488.5 c 128,-1,20
 194 480 194 480 171 439 c 0,21,22
 159 417 159 417 171 394 c 0,23,24
 180 374 180 374 219 339 c 0,25,26
 276 289 276 289 299.5 264 c 128,-1,27
 323 239 323 239 335 213 c 0,28,29
 351 177 351 177 351 158 c 0,30,31
 350 122 350 122 322.5 102 c 128,-1,32
 295 82 295 82 247 81 c 0,33,34
 218 79 218 79 210 71 c 0,35,36
 196 57 196 57 129.5 87.5 c 128,-1,37
 63 118 63 118 63 140 c 0,38,39
 63 148 63 148 44 178 c 0,40,41
 23 207 23 207 36 217 c 0,42,43
 41 223 41 223 60.5 221.5 c 128,-1,44
 80 220 80 220 84 225 c 0,45,46
 88 233 88 233 111.5 232 c 128,-1,47
 135 231 135 231 148 221 c 0,48,49
 165 207 165 207 154 199 c 0,50,51
 130 179 130 179 171 163 c 0,52,53
 211 146 211 146 240 154 c 0,54,55
 249 156 249 156 251 161 c 0,56,57
 259 172 259 172 249 191 c 128,-1,58
 239 210 239 210 217 228 c 0,59,60
 177 263 177 263 135 308 c 0,61,62
 87 359 87 359 73.5 393.5 c 128,-1,63
 60 428 60 428 71 466 c 0,64,65
 81 503 81 503 89.5 515.5 c 128,-1,66
 98 528 98 528 124 542 c 0,67,68
 155 560 155 560 210 560 c 0,0,1
EndSplineSet
EndChar

StartChar: T
Encoding: 84 84 55
Width: 475
Flags: W
LayerCount: 2
Fore
SplineSet
437 424 m 0,0,1
 431 424 431 424 420 440 c 0,2,3
 413 450 413 450 401.5 453 c 128,-1,4
 390 456 390 456 356 456 c 0,5,6
 302 456 302 456 298 450 c 0,7,8
 294 442 294 442 292 286 c 0,9,10
 291 188 291 188 293 155.5 c 128,-1,11
 295 123 295 123 304 109 c 0,12,13
 317 89 317 89 317 82 c 0,14,15
 317 76 317 76 253 70.5 c 128,-1,16
 189 65 189 65 176 70 c 0,17,18
 154 79 154 79 184 110 c 0,19,20
 196 123 196 123 199 148 c 128,-1,21
 202 173 202 173 205 293 c 2,22,-1
 209 456 l 1,23,-1
 143 456 l 2,24,25
 96 456 96 456 85.5 453 c 128,-1,26
 75 450 75 450 68 436 c 0,27,28
 58 416 58 416 46 418 c 128,-1,29
 34 420 34 420 31 479 c 0,30,31
 28 536 28 536 32 549 c 0,32,33
 31 555 31 555 112.5 557.5 c 128,-1,34
 194 560 194 560 303.5 560 c 128,-1,35
 413 560 413 560 436 561 c 1,36,37
 444 541 444 541 444.5 484.5 c 128,-1,38
 445 428 445 428 437 424 c 0,0,1
EndSplineSet
EndChar

StartChar: U
Encoding: 85 85 56
Width: 473
Flags: W
LayerCount: 2
Fore
SplineSet
157 386 m 0,0,1
 157 183 157 183 183 162 c 0,2,3
 196 152 196 152 219.5 150.5 c 128,-1,4
 243 149 243 149 259 157 c 0,5,6
 279 167 279 167 293.5 207.5 c 128,-1,7
 308 248 308 248 303 281 c 0,8,9
 298 311 298 311 307 315 c 0,10,11
 316 321 316 321 316 414 c 0,12,13
 316 477 316 477 313 495 c 128,-1,14
 310 513 310 513 299 525 c 0,15,16
 277 549 277 549 300 556 c 0,17,18
 316 560 316 560 365 560 c 0,19,20
 443 560 443 560 443 543 c 0,21,22
 443 534 443 534 423 517 c 2,23,-1
 400 498 l 1,24,-1
 395 326 l 2,25,26
 392 223 392 223 388 184 c 128,-1,27
 384 145 384 145 374.5 126 c 128,-1,28
 365 107 365 107 340 93 c 0,29,30
 313 76 313 76 240 76 c 0,31,32
 191 76 191 76 174 79.5 c 128,-1,33
 157 83 157 83 131 100 c 0,34,35
 94 122 94 122 85 148 c 0,36,37
 76 178 76 178 73 320 c 0,38,39
 70 438 70 438 65 471.5 c 128,-1,40
 60 505 60 505 42 530 c 0,41,42
 26 549 26 549 31 558 c 0,43,44
 35 564 35 564 108 564 c 0,45,46
 156 563 156 563 170.5 560.5 c 128,-1,47
 185 558 185 558 190 548 c 0,48,49
 195 539 195 539 193 533 c 128,-1,50
 191 527 191 527 178 518 c 0,51,52
 162 507 162 507 159.5 490.5 c 128,-1,53
 157 474 157 474 157 386 c 0,0,1
EndSplineSet
EndChar

StartChar: V
Encoding: 86 86 57
Width: 514
Flags: W
LayerCount: 2
Fore
SplineSet
308 382 m 0,0,1
 315 394 315 394 318.5 418 c 128,-1,2
 322 442 322 442 330 453 c 0,3,4
 344 471 344 471 342 495.5 c 128,-1,5
 340 520 340 520 324 530 c 0,6,7
 306 543 306 543 315 552 c 0,8,9
 323 561 323 561 399.5 556.5 c 128,-1,10
 476 552 476 552 483 542 c 0,11,12
 488 532 488 532 473 521 c 0,13,14
 457 507 457 507 411.5 413 c 128,-1,15
 366 319 366 319 366 300 c 0,16,17
 366 280 366 280 358 280 c 1,18,19
 351 274 351 274 342.5 240.5 c 128,-1,20
 334 207 334 207 326 200 c 0,21,22
 310 175 310 175 299 143 c 0,23,24
 283 102 283 102 273.5 91 c 128,-1,25
 264 80 264 80 248 87 c 0,26,27
 236 92 236 92 221.5 127.5 c 128,-1,28
 207 163 207 163 205 165 c 0,29,30
 198 174 198 174 187 205 c 0,31,32
 187 211 187 211 167.5 254.5 c 128,-1,33
 148 298 148 298 122 355 c 128,-1,34
 96 412 96 412 86 438 c 0,35,36
 86 442 86 442 58 487 c 0,37,38
 22 542 22 542 34 554 c 0,39,40
 39 559 39 559 112 557 c 0,41,42
 157 556 157 556 171.5 553.5 c 128,-1,43
 186 551 186 551 188 543 c 0,44,45
 191 529 191 529 174 526 c 0,46,47
 160 522 160 522 158 498.5 c 128,-1,48
 156 475 156 475 169 446 c 0,49,50
 188 406 188 406 233 276 c 0,51,52
 244 243 244 243 264 250 c 0,53,54
 270 256 270 256 287.5 316.5 c 128,-1,55
 305 377 305 377 308 382 c 0,0,1
EndSplineSet
EndChar

StartChar: W
Encoding: 87 87 58
Width: 680
Flags: W
LayerCount: 2
Fore
SplineSet
99 552 m 0,0,1
 126 552 126 552 141.5 550 c 128,-1,2
 157 548 157 548 164 543.5 c 128,-1,3
 171 539 171 539 169.5 531.5 c 128,-1,4
 168 524 168 524 160 512 c 128,-1,5
 152 500 152 500 152 494 c 128,-1,6
 152 488 152 488 159 474 c 0,7,8
 170 451 170 451 190 396 c 0,9,10
 230 284 230 284 246 284 c 0,11,12
 256 284 256 284 274.5 329 c 128,-1,13
 293 374 293 374 300 414 c 0,14,15
 308 467 308 467 299 482 c 0,16,17
 285 505 285 505 309 508 c 0,18,19
 321 509 321 509 344 507 c 0,20,21
 401 503 401 503 401 487 c 0,22,23
 401 482 401 482 394 474 c 0,24,25
 375 451 375 451 393 418 c 0,26,27
 403 401 403 401 422 343 c 0,28,29
 444 278 444 278 454 277 c 0,30,31
 461 276 461 276 472 293 c 0,32,33
 494 326 494 326 507 417.5 c 128,-1,34
 520 509 520 509 506 526 c 0,35,36
 488 546 488 546 529 550 c 0,37,38
 546 552 546 552 574 552 c 0,39,40
 657 552 657 552 649 534 c 0,41,42
 647 529 647 529 640 524 c 0,43,44
 622 508 622 508 606 429 c 0,45,46
 593 361 593 361 544 249 c 128,-1,47
 495 137 495 137 482 98 c 0,48,49
 471 69 471 69 456 72 c 0,50,51
 448 74 448 74 445 88 c 0,52,53
 443 98 443 98 435.5 102.5 c 128,-1,54
 428 107 428 107 426 113 c 0,55,56
 422 130 422 130 383 219 c 0,57,58
 368 254 368 254 363.5 258 c 128,-1,59
 359 262 359 262 348 251 c 0,60,61
 325 227 325 227 306 165 c 0,62,63
 279 80 279 80 246 80 c 0,64,65
 232 80 232 80 225.5 86.5 c 128,-1,66
 219 93 219 93 215 107 c 128,-1,67
 211 121 211 121 206 128 c 0,68,69
 200 136 200 136 142.5 286 c 128,-1,70
 85 436 85 436 82 442 c 0,71,72
 77 452 77 452 74 463 c 128,-1,73
 71 474 71 474 66.5 483 c 128,-1,74
 62 492 62 492 50 506 c 0,75,76
 26 534 26 534 30 544 c 0,77,78
 34 552 34 552 99 552 c 0,0,1
EndSplineSet
EndChar

StartChar: X
Encoding: 88 88 59
Width: 598
Flags: W
LayerCount: 2
Fore
SplineSet
424 226 m 0,0,1
 423 223 423 223 488.5 154 c 128,-1,2
 554 85 554 85 552 81 c 0,3,4
 552 72 552 72 488 72 c 0,5,6
 447 72 447 72 434 74.5 c 128,-1,7
 421 77 421 77 418 86 c 0,8,9
 405 118 405 118 357 172.5 c 128,-1,10
 309 227 309 227 297 223 c 0,11,12
 291 221 291 221 259 184 c 128,-1,13
 227 147 227 147 223 138 c 2,14,-1
 185 102 l 2,15,16
 161 81 161 81 148.5 76.5 c 128,-1,17
 136 72 136 72 100 72 c 0,18,19
 48 72 48 72 48 82 c 0,20,21
 48 101 48 101 153 210 c 0,22,23
 222 279 222 279 228 295 c 0,24,25
 232 308 232 308 214 331.5 c 128,-1,26
 196 355 196 355 134 418 c 0,27,28
 80 472 80 472 80 480 c 128,-1,29
 80 488 80 488 69 488 c 0,30,31
 61 488 61 488 47 505.5 c 128,-1,32
 33 523 33 523 30 537 c 0,33,34
 29 541 29 541 34 546 c 128,-1,35
 39 551 39 551 48 553 c 0,36,37
 71 559 71 559 103 556 c 0,38,39
 125 554 125 554 135 549.5 c 128,-1,40
 145 545 145 545 155 531 c 0,41,42
 160 524 160 524 189.5 491.5 c 128,-1,43
 219 459 219 459 224 446 c 0,44,45
 224 437 224 437 257.5 402.5 c 128,-1,46
 291 368 291 368 299 368 c 0,47,48
 308 368 308 368 326 386.5 c 128,-1,49
 344 405 344 405 344 414 c 0,50,51
 344 426 344 426 356 430 c 0,52,53
 369 435 369 435 387 461 c 0,54,55
 400 481 400 481 435 520 c 0,56,57
 457 543 457 543 468 547.5 c 128,-1,58
 479 552 479 552 516 552 c 0,59,60
 551 552 551 552 559.5 549.5 c 128,-1,61
 568 547 568 547 568 537 c 0,62,63
 568 525 568 525 551 505 c 128,-1,64
 534 485 534 485 484 439 c 0,65,66
 402 363 402 363 369 318 c 0,67,68
 361 309 361 309 365 300.5 c 128,-1,69
 369 292 369 292 391 268 c 0,70,71
 424 233 424 233 424 226 c 0,0,1
EndSplineSet
EndChar

StartChar: Y
Encoding: 89 89 60
Width: 507
Flags: W
LayerCount: 2
Fore
SplineSet
403 552 m 0,0,1
 444 552 444 552 458.5 549 c 128,-1,2
 473 546 473 546 476 538 c 0,3,4
 481 526 481 526 465 513 c 0,5,6
 455 504 455 504 434.5 477.5 c 128,-1,7
 414 451 414 451 414 446 c 0,8,9
 414 443 414 443 371 398 c 0,10,11
 329 353 329 353 306 306 c 0,12,13
 291 274 291 274 288 257.5 c 128,-1,14
 285 241 285 241 289 197 c 0,15,16
 293 134 293 134 306 115 c 0,17,18
 322 90 322 90 312 85 c 0,19,20
 301 80 301 80 246 80 c 0,21,22
 179 80 179 80 175 90 c 0,23,24
 173 97 173 97 190 118 c 0,25,26
 206 139 206 139 206 205 c 0,27,28
 206 273 206 273 198 276 c 0,29,30
 190 280 190 280 190 295 c 0,31,32
 190 306 190 306 141 382.5 c 128,-1,33
 92 459 92 459 57 502 c 0,34,35
 19 547 19 547 34 562 c 0,36,37
 38 566 38 566 90.5 563 c 128,-1,38
 143 560 143 560 157 555 c 0,39,40
 168 552 168 552 164 541 c 0,41,42
 154 517 154 517 186 450 c 128,-1,43
 218 383 218 383 244 372 c 0,44,45
 260 366 260 366 286.5 396 c 128,-1,46
 313 426 313 426 329 465 c 128,-1,47
 345 504 345 504 335 521 c 0,48,49
 320 548 320 548 344 551 c 0,50,51
 348 552 348 552 403 552 c 0,0,1
EndSplineSet
EndChar

StartChar: Z
Encoding: 90 90 61
Width: 468
Flags: W
LayerCount: 2
Fore
SplineSet
174 158 m 0,0,1
 174 152 174 152 251 152 c 0,2,3
 308 152 308 152 321.5 155.5 c 128,-1,4
 335 159 335 159 360 180 c 0,5,6
 397 212 397 212 411.5 205.5 c 128,-1,7
 426 199 426 199 433 146 c 0,8,9
 440 88 440 88 437 85 c 0,10,11
 392 79 392 79 30 75 c 1,12,-1
 32 114 l 2,13,14
 34 143 34 143 47 162 c 128,-1,15
 60 181 60 181 134 256 c 0,16,17
 226 348 226 348 254 381 c 0,18,19
 270 401 270 401 286 426.5 c 128,-1,20
 302 452 302 452 302 459 c 0,21,22
 302 464 302 464 208 464 c 0,23,24
 135 464 135 464 109.5 457.5 c 128,-1,25
 84 451 84 451 64 426 c 256,26,27
 44 401 44 401 35 451 c 0,28,29
 33 460 33 460 32 471 c 0,30,31
 29 501 29 501 34 516.5 c 128,-1,32
 39 532 39 532 54 552 c 1,33,34
 338 555 338 555 390 545 c 0,35,36
 403 542 403 542 406.5 534 c 128,-1,37
 410 526 410 526 412 498 c 0,38,39
 414 467 414 467 409 455 c 128,-1,40
 404 443 404 443 376 414 c 0,41,42
 355 392 355 392 332.5 357.5 c 128,-1,43
 310 323 310 323 296 308 c 0,44,45
 274 285 274 285 224 223.5 c 128,-1,46
 174 162 174 162 174 158 c 0,0,1
EndSplineSet
EndChar

StartChar: underscore
Encoding: 95 95 62
Width: 372
Flags: W
LayerCount: 2
Fore
SplineSet
32 21 m 1,0,1
 28 29 28 29 89.5 30 c 128,-1,2
 151 31 151 31 236 29 c 128,-1,3
 321 27 321 27 337 28 c 1,4,5
 341 -22 341 -22 342 -47 c 1,6,7
 184 -48 184 -48 33 -44 c 1,8,9
 30 14 30 14 32 21 c 1,0,1
EndSplineSet
EndChar

StartChar: grave
Encoding: 96 96 63
Width: 275
Flags: W
LayerCount: 2
Fore
SplineSet
30 498 m 0,0,1
 28 506 28 506 62.5 538 c 128,-1,2
 97 570 97 570 104 568 c 0,3,4
 113 568 113 568 169 521.5 c 128,-1,5
 225 475 225 475 236 458 c 0,6,7
 257 427 257 427 223 427 c 0,8,9
 207 427 207 427 180 432 c 0,10,11
 112 446 112 446 71 464 c 128,-1,12
 30 482 30 482 30 498 c 0,0,1
EndSplineSet
EndChar

StartChar: a
Encoding: 97 97 64
Width: 382
Flags: W
LayerCount: 2
Fore
SplineSet
185 318 m 0,0,1
 166 337 166 337 163 335 c 0,2,3
 142 333 142 333 123 310 c 128,-1,4
 104 287 104 287 96 254 c 0,5,6
 91 234 91 234 109 194.5 c 128,-1,7
 127 155 127 155 148 141 c 0,8,9
 162 131 162 131 185 128.5 c 128,-1,10
 208 126 208 126 213 134 c 0,11,12
 218 144 218 144 209 221 c 0,13,14
 201 300 201 300 185 318 c 0,0,1
206 406 m 0,15,16
 261 414 261 414 273.5 411.5 c 128,-1,17
 286 409 286 409 285 388 c 0,18,19
 281 324 281 324 281 150 c 0,20,21
 281 137 281 137 285 131.5 c 128,-1,22
 289 126 289 126 293.5 130.5 c 128,-1,23
 298 135 298 135 301 148 c 0,24,25
 305 167 305 167 317.5 172.5 c 128,-1,26
 330 178 330 178 343 167 c 0,27,28
 355 159 355 159 350 125.5 c 128,-1,29
 345 92 345 92 337 82 c 0,30,31
 328 71 328 71 296.5 72 c 128,-1,32
 265 73 265 73 261 84 c 0,33,34
 259 89 259 89 257 90.5 c 128,-1,35
 255 92 255 92 251.5 90.5 c 128,-1,36
 248 89 248 89 240 84 c 0,37,38
 219 70 219 70 169 72 c 128,-1,39
 119 74 119 74 97 90 c 0,40,41
 59 119 59 119 39.5 189.5 c 128,-1,42
 20 260 20 260 38 306 c 0,43,44
 55 350 55 350 92.5 372.5 c 128,-1,45
 130 395 130 395 206 406 c 0,15,16
EndSplineSet
EndChar

StartChar: b
Encoding: 98 98 65
Width: 348
Flags: W
LayerCount: 2
Fore
SplineSet
158 206 m 2,0,-1
 158 137 l 1,1,-1
 196 148 l 2,2,3
 262 168 262 168 262 212 c 0,4,5
 262 236 262 236 251 257.5 c 128,-1,6
 240 279 240 279 225 287 c 0,7,8
 184 305 184 305 171 289 c 128,-1,9
 158 273 158 273 158 206 c 2,0,-1
150 430 m 2,10,-1
 150 356 l 1,11,-1
 206 356 l 2,12,13
 246 355 246 355 257.5 352 c 128,-1,14
 269 349 269 349 282 334 c 0,15,16
 323 288 323 288 317.5 205.5 c 128,-1,17
 312 123 312 123 266 80 c 0,18,19
 251 66 251 66 235.5 63 c 128,-1,20
 220 60 220 60 167 60 c 0,21,22
 141 60 141 60 127 60.5 c 128,-1,23
 113 61 113 61 105 62.5 c 128,-1,24
 97 64 97 64 95 66 c 128,-1,25
 93 68 93 68 94 72 c 0,26,27
 99 85 99 85 100.5 257.5 c 128,-1,28
 102 430 102 430 98 446 c 0,29,30
 96 456 96 456 88.5 460 c 128,-1,31
 81 464 81 464 63 466 c 0,32,33
 34 468 34 468 30 484 c 128,-1,34
 26 500 26 500 50 519 c 0,35,36
 70 535 70 535 94 535.5 c 128,-1,37
 118 536 118 536 134 520 c 0,38,39
 144 510 144 510 147 494 c 128,-1,40
 150 478 150 478 150 430 c 2,10,-1
EndSplineSet
EndChar

StartChar: c
Encoding: 99 99 66
Width: 304
Flags: W
LayerCount: 2
Fore
SplineSet
85 372 m 0,0,1
 110 396 110 396 119.5 399.5 c 128,-1,2
 129 403 129 403 163 400 c 0,3,4
 215 396 215 396 243 372.5 c 128,-1,5
 271 349 271 349 266 314 c 0,6,7
 265 301 265 301 259.5 296.5 c 128,-1,8
 254 292 254 292 239 290 c 0,9,10
 222 288 222 288 216 292 c 128,-1,11
 210 296 210 296 205 312 c 0,12,13
 193 345 193 345 167 342 c 128,-1,14
 141 339 141 339 113 302 c 0,15,16
 94 276 94 276 87.5 232 c 128,-1,17
 81 188 81 188 92 161 c 0,18,19
 101 139 101 139 126.5 129 c 128,-1,20
 152 119 152 119 183 124 c 0,21,22
 200 128 200 128 205 132.5 c 128,-1,23
 210 137 210 137 209 150 c 0,24,25
 208 168 208 168 222.5 175.5 c 128,-1,26
 237 183 237 183 259 175 c 0,27,28
 270 170 270 170 273 165 c 128,-1,29
 276 160 276 160 273 146 c 0,30,31
 260 93 260 93 234 76.5 c 128,-1,32
 208 60 208 60 146 66 c 0,33,34
 87 71 87 71 63 98 c 128,-1,35
 39 125 39 125 32 194 c 0,36,37
 20 307 20 307 85 372 c 0,0,1
EndSplineSet
EndChar

StartChar: d
Encoding: 100 100 67
Width: 359
Flags: W
LayerCount: 2
Fore
SplineSet
89 199 m 0,0,1
 89 153 89 153 106 132.5 c 128,-1,2
 123 112 123 112 161 112 c 0,3,4
 193 112 193 112 193 120 c 0,5,6
 193 127 193 127 213 135 c 0,7,8
 224 139 224 139 228.5 149 c 128,-1,9
 233 159 233 159 236 186 c 0,10,11
 250 304 250 304 224 323 c 0,12,13
 208 333 208 333 179.5 334.5 c 128,-1,14
 151 336 151 336 135 327 c 0,15,16
 117 316 117 316 103 277.5 c 128,-1,17
 89 239 89 239 89 199 c 0,0,1
297 286 m 0,18,19
 297 168 297 168 299.5 143 c 128,-1,20
 302 118 302 118 313 110 c 0,21,22
 329 99 329 99 329 74 c 128,-1,23
 329 49 329 49 314.5 47.5 c 128,-1,24
 300 46 300 46 267 67 c 2,25,-1
 237 86 l 1,26,27
 231 83 231 83 218.5 77 c 128,-1,28
 206 71 206 71 200.5 68.5 c 128,-1,29
 195 66 195 66 181 61.5 c 128,-1,30
 167 57 167 57 159 58 c 128,-1,31
 151 59 151 59 134 60 c 0,32,33
 89 68 89 68 72 82 c 128,-1,34
 55 96 55 96 42 140 c 0,35,36
 31 177 31 177 30.5 192.5 c 128,-1,37
 30 208 30 208 38 245 c 0,38,39
 56 322 56 322 91.5 354 c 128,-1,40
 127 386 127 386 191 382 c 2,41,-1
 233 380 l 1,42,43
 237 450 237 450 234 498 c 0,44,45
 232 530 232 530 242 542 c 0,46,47
 250 552 250 552 277 550.5 c 128,-1,48
 304 549 304 549 315 538 c 0,49,50
 320 533 320 533 309 491 c 0,51,52
 297 451 297 451 297 286 c 0,18,19
EndSplineSet
EndChar

StartChar: e
Encoding: 101 101 68
Width: 335
Flags: W
LayerCount: 2
Fore
SplineSet
83 302 m 0,0,1
 83 298 83 298 112.5 297.5 c 128,-1,2
 142 297 142 297 176.5 300 c 128,-1,3
 211 303 211 303 222 308 c 0,4,5
 235 314 235 314 233.5 322.5 c 128,-1,6
 232 331 232 331 215 348 c 0,7,8
 199 364 199 364 189 366 c 128,-1,9
 179 368 179 368 152 360 c 0,10,11
 134 355 134 355 108.5 333.5 c 128,-1,12
 83 312 83 312 83 302 c 0,0,1
120 411 m 0,13,14
 148 421 148 421 161 421.5 c 128,-1,15
 174 422 174 422 216 415 c 0,16,17
 320 401 320 401 293 291 c 1,18,19
 284 277 284 277 244 261 c 128,-1,20
 204 245 204 245 172 243 c 0,21,22
 117 238 117 238 76 231 c 1,23,-1
 89 203 l 2,24,25
 117 147 117 147 194 167 c 0,26,27
 226 178 226 178 235 192 c 0,28,29
 243 206 243 206 265.5 207.5 c 128,-1,30
 288 209 288 209 299 196 c 0,31,32
 320 170 320 170 269 130 c 0,33,34
 239 105 239 105 221 101.5 c 128,-1,35
 203 98 203 98 154 105 c 0,36,37
 105 111 105 111 84 125 c 128,-1,38
 63 139 63 139 44 179 c 0,39,40
 27 214 27 214 30 268 c 0,41,42
 33 330 33 330 53.5 362.5 c 128,-1,43
 74 395 74 395 120 411 c 0,13,14
EndSplineSet
EndChar

StartChar: f
Encoding: 102 102 69
Width: 338
Flags: W
LayerCount: 2
Fore
SplineSet
110 431 m 0,0,1
 109 493 109 493 135 518.5 c 128,-1,2
 161 544 161 544 220 542 c 0,3,4
 287 539 287 539 296 494 c 0,5,6
 298 483 298 483 306 462 c 0,7,8
 310 452 310 452 306 450 c 128,-1,9
 302 448 302 448 281 450 c 0,10,11
 264 452 264 452 257.5 454.5 c 128,-1,12
 251 457 251 457 252 463 c 0,13,14
 254 474 254 474 243 481 c 128,-1,15
 232 488 232 488 213 488 c 128,-1,16
 194 488 194 488 185 477 c 128,-1,17
 176 466 176 466 168 434 c 0,18,19
 162 408 162 408 168 399 c 128,-1,20
 174 390 174 390 194 398 c 0,21,22
 205 402 205 402 221.5 387.5 c 128,-1,23
 238 373 238 373 238 359 c 0,24,25
 238 348 238 348 215.5 338 c 128,-1,26
 193 328 193 328 169 328 c 0,27,28
 155 328 155 328 152.5 318 c 128,-1,29
 150 308 150 308 150 250 c 0,30,31
 150 173 150 173 162 140 c 0,32,33
 168 124 168 124 170 117.5 c 128,-1,34
 172 111 172 111 169 106.5 c 128,-1,35
 166 102 166 102 162.5 102 c 128,-1,36
 159 102 159 102 144 100.5 c 128,-1,37
 129 99 129 99 118 98 c 0,38,39
 82 94 82 94 76 96 c 128,-1,40
 70 98 70 98 73 113 c 0,41,42
 94 199 94 199 94 262 c 0,43,44
 94 304 94 304 91 312.5 c 128,-1,45
 88 321 88 321 72 325 c 0,46,47
 43 331 43 331 36.5 335.5 c 128,-1,48
 30 340 30 340 30 356 c 128,-1,49
 30 372 30 372 46.5 382 c 128,-1,50
 63 392 63 392 91 392 c 0,51,52
 104 392 104 392 107 398 c 128,-1,53
 110 404 110 404 110 431 c 0,0,1
EndSplineSet
EndChar

StartChar: g
Encoding: 103 103 70
Width: 281
Flags: W
LayerCount: 2
Fore
SplineSet
166 337 m 0,0,1
 153 344 153 344 149.5 344 c 128,-1,2
 146 344 146 344 134 336 c 0,3,4
 117 324 117 324 76 206 c 1,5,-1
 102 182 l 2,6,7
 121 163 121 163 127.5 161.5 c 128,-1,8
 134 160 134 160 160 168 c 0,9,10
 184 176 184 176 190 183 c 128,-1,11
 196 190 196 190 197 212 c 0,12,13
 200 245 200 245 189.5 287 c 128,-1,14
 179 329 179 329 166 337 c 0,0,1
238 283 m 0,15,16
 238 254 238 254 246 194 c 0,17,18
 256 133 256 133 248 70.5 c 128,-1,19
 240 8 240 8 218 -23 c 0,20,21
 197 -53 197 -53 176 -63 c 0,22,23
 143 -78 143 -78 97 -68 c 128,-1,24
 51 -58 51 -58 38 -33 c 0,25,26
 27 -11 27 -11 31 15.5 c 128,-1,27
 35 42 35 42 53 63 c 0,28,29
 75 89 75 89 89 83 c 0,30,31
 100 78 100 78 100.5 67.5 c 128,-1,32
 101 57 101 57 90 15 c 0,33,34
 86 2 86 2 90 -3.5 c 128,-1,35
 94 -9 94 -9 109 -15 c 0,36,37
 141 -29 141 -29 160 -8 c 128,-1,38
 179 13 179 13 186 70 c 2,39,-1
 190 104 l 1,40,41
 96 97 96 97 57 143.5 c 128,-1,42
 18 190 18 190 46 278 c 0,43,44
 60 322 60 322 80.5 352 c 128,-1,45
 101 382 101 382 120 386 c 0,46,47
 145 391 145 391 156 389.5 c 128,-1,48
 167 388 167 388 191 376 c 0,49,50
 218 363 218 363 228 342.5 c 128,-1,51
 238 322 238 322 238 283 c 0,15,16
EndSplineSet
EndChar

StartChar: h
Encoding: 104 104 71
Width: 352
Flags: W
LayerCount: 2
Fore
SplineSet
322 122 m 0,0,1
 322 109 322 109 314.5 106.5 c 128,-1,2
 307 104 307 104 269 104 c 0,3,4
 230 104 230 104 224 106.5 c 128,-1,5
 218 109 218 109 222 122 c 0,6,7
 230 145 230 145 231.5 209 c 128,-1,8
 233 273 233 273 226 287 c 0,9,10
 210 316 210 316 167 295 c 0,11,12
 154 289 154 289 149.5 275.5 c 128,-1,13
 145 262 145 262 141 214 c 0,14,15
 133 143 133 143 143 129 c 0,16,17
 157 111 157 111 146 107 c 0,18,19
 137 104 137 104 95 104 c 2,20,-1
 36 104 l 1,21,22
 48 165 48 165 58 183 c 0,23,24
 71 207 71 207 65.5 330.5 c 128,-1,25
 60 454 60 454 43 499 c 0,26,27
 27 546 27 546 31 554 c 0,28,29
 35 558 35 558 54 558.5 c 128,-1,30
 73 559 73 559 100.5 557.5 c 128,-1,31
 128 556 128 556 133 556 c 1,32,-1
 139 386 l 1,33,-1
 191 390 l 2,34,35
 228 393 228 393 246 390.5 c 128,-1,36
 264 388 264 388 277 370 c 128,-1,37
 290 352 290 352 294 323.5 c 128,-1,38
 298 295 298 295 302 236 c 0,39,40
 307 157 307 157 315 149 c 0,41,42
 322 140 322 140 322 122 c 0,0,1
EndSplineSet
EndChar

StartChar: i
Encoding: 105 105 72
Width: 204
Flags: W
LayerCount: 2
Fore
SplineSet
174 102 m 0,0,1
 174 96 174 96 102 96 c 0,2,3
 72 96 72 96 57 97 c 128,-1,4
 42 98 42 98 35 102.5 c 128,-1,5
 28 107 28 107 30 113.5 c 128,-1,6
 32 120 32 120 42 133 c 0,7,8
 55 149 55 149 54.5 235 c 128,-1,9
 54 321 54 321 41 349 c 0,10,11
 27 376 27 376 36 386 c 0,12,13
 43 394 43 394 99 395.5 c 128,-1,14
 155 397 155 397 163 390 c 0,15,16
 170 386 170 386 159 373 c 0,17,18
 148 359 148 359 149.5 258 c 128,-1,19
 151 157 151 157 162 134 c 0,20,21
 174 106 174 106 174 102 c 0,0,1
104 512 m 0,22,23
 141 512 141 512 153.5 486 c 128,-1,24
 166 460 166 460 142 434 c 0,25,26
 128 418 128 418 105.5 416.5 c 128,-1,27
 83 415 83 415 64 429 c 0,28,29
 48 440 48 440 47.5 450.5 c 128,-1,30
 47 461 47 461 62 486 c 0,31,32
 72 501 72 501 80.5 506.5 c 128,-1,33
 89 512 89 512 104 512 c 0,22,23
EndSplineSet
EndChar

StartChar: j
Encoding: 106 106 73
Width: 320
Flags: W
LayerCount: 2
Fore
SplineSet
81 -37 m 0,0,1
 68 -25 68 -25 62.5 -4 c 128,-1,2
 57 17 57 17 45 28 c 0,3,4
 16 57 16 57 44 72 c 0,5,6
 65 81 65 81 87 81 c 128,-1,7
 109 81 109 81 125 70.5 c 128,-1,8
 141 60 141 60 137 47 c 0,9,10
 133 35 133 35 144.5 17.5 c 128,-1,11
 156 0 156 0 167 0 c 0,12,13
 175 0 175 0 186 28 c 128,-1,14
 197 56 197 56 197 178 c 0,15,16
 197 262 197 262 193.5 285 c 128,-1,17
 190 308 190 308 176 335 c 0,18,19
 156 371 156 371 160 380 c 0,20,21
 163 389 163 389 219.5 388.5 c 128,-1,22
 276 388 276 388 286 378 c 0,23,24
 294 370 294 370 276 330 c 0,25,26
 263 304 263 304 259.5 276 c 128,-1,27
 256 248 256 248 253 142 c 0,28,29
 250 27 250 27 247 6.5 c 128,-1,30
 244 -14 244 -14 228 -31 c 0,31,32
 214 -46 214 -46 201 -50 c 128,-1,33
 188 -54 188 -54 153 -55 c 128,-1,34
 118 -56 118 -56 106 -53 c 128,-1,35
 94 -50 94 -50 81 -37 c 0,0,1
232 416 m 0,36,37
 209 416 209 416 187 431 c 128,-1,38
 165 446 165 446 165 462 c 0,39,40
 165 473 165 473 185 493 c 0,41,42
 197 505 197 505 208 508.5 c 128,-1,43
 219 512 219 512 244 510 c 0,44,45
 272 508 272 508 277.5 504.5 c 128,-1,46
 283 501 283 501 284 482 c 0,47,48
 287 452 287 452 273 434 c 128,-1,49
 259 416 259 416 232 416 c 0,36,37
EndSplineSet
EndChar

StartChar: k
Encoding: 107 107 74
Width: 367
Flags: W
LayerCount: 2
Fore
SplineSet
236 116 m 0,0,1
 236 122 236 122 216 141.5 c 128,-1,2
 196 161 196 161 196 166 c 0,3,4
 195 170 195 170 186.5 183.5 c 128,-1,5
 178 197 178 197 167.5 213 c 128,-1,6
 157 229 157 229 154 235 c 1,7,8
 130 156 130 156 135 118 c 0,9,10
 139 88 139 88 133 85 c 0,11,12
 128 81 128 81 81.5 87.5 c 128,-1,13
 35 94 35 94 30 99 c 128,-1,14
 25 104 25 104 50 138 c 0,15,16
 81 182 81 182 88.5 261.5 c 128,-1,17
 96 341 96 341 77 416 c 0,18,19
 66 457 66 457 64 474 c 0,20,21
 59 504 59 504 48 504 c 0,22,23
 35 504 35 504 31.5 513.5 c 128,-1,24
 28 523 28 523 37 532 c 0,25,26
 48 544 48 544 80 554 c 0,27,28
 119 569 119 569 128.5 561.5 c 128,-1,29
 138 554 138 554 142 506 c 0,30,31
 145 472 145 472 154 440 c 128,-1,32
 163 408 163 408 164 372 c 0,33,34
 164 333 164 333 173 333 c 0,35,36
 183 333 183 333 228 378 c 0,37,38
 290 439 290 439 303 426 c 0,39,40
 308 421 308 421 307.5 391.5 c 128,-1,41
 307 362 307 362 302 355 c 0,42,43
 299 351 299 351 246 302 c 0,44,45
 210 269 210 269 205.5 260.5 c 128,-1,46
 201 252 201 252 214 242 c 0,47,48
 230 228 230 228 245 198 c 0,49,50
 258 173 258 173 268.5 169.5 c 128,-1,51
 279 166 279 166 297 180 c 0,52,53
 308 188 308 188 313.5 190 c 128,-1,54
 319 192 319 192 323 188.5 c 128,-1,55
 327 185 327 185 332 175 c 0,56,57
 343 155 343 155 331.5 121.5 c 128,-1,58
 320 88 320 88 303 88 c 0,59,60
 283 88 283 88 259.5 98 c 128,-1,61
 236 108 236 108 236 116 c 0,0,1
EndSplineSet
EndChar

StartChar: l
Encoding: 108 108 75
Width: 255
Flags: W
LayerCount: 2
Fore
SplineSet
144 176 m 0,0,1
 151 173 151 173 184.5 189 c 128,-1,2
 218 205 218 205 224 199 c 0,3,4
 228 192 228 192 219.5 159.5 c 128,-1,5
 211 127 211 127 201 114 c 0,6,7
 193 104 193 104 138.5 104 c 128,-1,8
 84 104 84 104 63 114 c 2,9,-1
 43 122 l 1,10,11
 43 137 43 137 43.5 191.5 c 128,-1,12
 44 246 44 246 44 287.5 c 128,-1,13
 44 329 44 329 43 379 c 128,-1,14
 42 429 42 429 40 462.5 c 128,-1,15
 38 496 38 496 35 508 c 0,16,17
 33 516 33 516 31.5 521 c 128,-1,18
 30 526 30 526 30.5 530 c 128,-1,19
 31 534 31 534 31.5 536 c 128,-1,20
 32 538 32 538 36.5 539 c 128,-1,21
 41 540 41 540 44 540.5 c 128,-1,22
 47 541 47 541 56 541.5 c 128,-1,23
 65 542 65 542 71 542 c 0,24,25
 124 547 124 547 137 526 c 0,26,27
 145 514 145 514 128 501 c 0,28,29
 120 496 120 496 115.5 450 c 128,-1,30
 111 404 111 404 115 380 c 0,31,32
 117 373 117 373 115 295 c 0,33,34
 114 221 114 221 119.5 198.5 c 128,-1,35
 125 176 125 176 144 176 c 0,0,1
EndSplineSet
EndChar

StartChar: m
Encoding: 109 109 76
Width: 504
Flags: W
LayerCount: 2
Fore
SplineSet
269 88 m 0,0,1
 243 88 243 88 235.5 110.5 c 128,-1,2
 228 133 228 133 228 215 c 2,3,-1
 228 318 l 1,4,-1
 207 327 l 2,5,6
 188 335 188 335 172 331.5 c 128,-1,7
 156 328 156 328 156 315 c 0,8,9
 156 304 156 304 148 304 c 128,-1,10
 140 304 140 304 140 220 c 128,-1,11
 140 136 140 136 148 132 c 0,12,13
 156 129 156 129 156 107 c 0,14,15
 156 93 156 93 149 90.5 c 128,-1,16
 142 88 142 88 105 88 c 0,17,18
 46 88 46 88 46 103 c 0,19,20
 46 108 46 108 51 115 c 0,21,22
 59 131 59 131 62 213 c 128,-1,23
 65 295 65 295 67 308 c 0,24,25
 72 337 72 337 70.5 344.5 c 128,-1,26
 69 352 69 352 58 354 c 0,27,28
 41 356 41 356 33 370 c 128,-1,29
 25 384 25 384 35 395 c 0,30,31
 47 409 47 409 73.5 408 c 128,-1,32
 100 407 100 407 108 391 c 0,33,34
 112 383 112 383 115 381 c 128,-1,35
 118 379 118 379 122 380 c 128,-1,36
 126 381 126 381 136 387 c 0,37,38
 159 402 159 402 190 399.5 c 128,-1,39
 221 397 221 397 242 380 c 0,40,41
 267 360 267 360 272 361 c 0,42,43
 275 361 275 361 294 380 c 0,44,45
 298 384 298 384 302 388 c 0,46,47
 332 417 332 417 358.5 416.5 c 128,-1,48
 385 416 385 416 414 386 c 0,49,50
 439 359 439 359 446.5 332 c 128,-1,51
 454 305 454 305 460 216 c 0,52,53
 468 121 468 121 472 106 c 0,54,55
 476 93 476 93 471 91 c 128,-1,56
 466 89 466 89 432 92 c 0,57,58
 391 96 391 96 385 99.5 c 128,-1,59
 379 103 379 103 386 118 c 0,60,61
 394 133 394 133 399 206 c 0,62,63
 406 333 406 333 363 328 c 0,64,65
 351 327 351 327 337 316 c 0,66,67
 309 294 309 294 309 170 c 0,68,69
 309 124 309 124 300.5 106 c 128,-1,70
 292 88 292 88 269 88 c 0,0,1
EndSplineSet
EndChar

StartChar: n
Encoding: 110 110 77
Width: 375
Flags: W
LayerCount: 2
Fore
SplineSet
64 417 m 0,0,1
 68 425 68 425 89.5 420.5 c 128,-1,2
 111 416 111 416 117 406 c 0,3,4
 122 398 122 398 148 412 c 0,5,6
 172 424 172 424 212 421.5 c 128,-1,7
 252 419 252 419 268 404 c 0,8,9
 283 391 283 391 302.5 352 c 128,-1,10
 322 313 322 313 327 288 c 0,11,12
 329 278 329 278 334.5 192.5 c 128,-1,13
 340 107 340 107 344 95 c 0,14,15
 346 89 346 89 343.5 85.5 c 128,-1,16
 341 82 341 82 329 80 c 128,-1,17
 317 78 317 78 295 78 c 0,18,19
 285 78 285 78 268 77 c 0,20,21
 249 76 249 76 243 76.5 c 128,-1,22
 237 77 237 77 231.5 83.5 c 128,-1,23
 226 90 226 90 236 105 c 0,24,25
 246 126 246 126 241 208.5 c 128,-1,26
 236 291 236 291 223 306 c 0,27,28
 197 333 197 333 160 302 c 0,29,30
 140 284 140 284 131 228 c 0,31,32
 122 170 122 170 124 153.5 c 128,-1,33
 126 137 126 137 144 124 c 0,34,35
 164 108 164 108 163 102.5 c 128,-1,36
 162 97 162 97 140 88 c 0,37,38
 123 81 123 81 81 81.5 c 128,-1,39
 39 82 39 82 31 90 c 1,40,41
 30 109 30 109 47 193 c 128,-1,42
 64 277 64 277 65 293 c 0,43,44
 67 326 67 326 64.5 339 c 128,-1,45
 62 352 62 352 49 374 c 0,46,47
 28 410 28 410 39 415 c 0,48,49
 43 417 43 417 51 412 c 0,50,51
 60 407 60 407 64 417 c 0,0,1
EndSplineSet
EndChar

StartChar: o
Encoding: 111 111 78
Width: 327
Flags: W
LayerCount: 2
Fore
SplineSet
188 354 m 0,0,1
 173 367 173 367 150.5 367.5 c 128,-1,2
 128 368 128 368 117 355 c 0,3,4
 92 324 92 324 87 259.5 c 128,-1,5
 82 195 82 195 102 162 c 0,6,7
 119 135 119 135 136 132 c 0,8,9
 157 127 157 127 186 140 c 128,-1,10
 215 153 215 153 222 172 c 0,11,12
 236 209 236 209 224.5 270.5 c 128,-1,13
 213 332 213 332 188 354 c 0,0,1
78 410 m 0,14,15
 140 462 140 462 218 411 c 0,16,17
 242 396 242 396 252 383.5 c 128,-1,18
 262 371 262 371 272 340 c 0,19,20
 286 297 286 297 293 238.5 c 128,-1,21
 300 180 300 180 293 166 c 0,22,23
 288 157 288 157 275 141 c 128,-1,24
 262 125 262 125 257 116 c 0,25,26
 246 98 246 98 213 89 c 128,-1,27
 180 80 180 80 141 84 c 0,28,29
 79 92 79 92 54 132.5 c 128,-1,30
 29 173 29 173 30 262 c 0,31,32
 31 329 31 329 40.5 357.5 c 128,-1,33
 50 386 50 386 78 410 c 0,14,15
EndSplineSet
EndChar

StartChar: p
Encoding: 112 112 79
Width: 370
Flags: W
LayerCount: 2
Fore
SplineSet
132 282 m 0,0,1
 132 235 132 235 137 210 c 0,2,3
 147 175 147 175 195.5 171 c 128,-1,4
 244 167 244 167 269 198 c 0,5,6
 305 246 305 246 252 312 c 0,7,8
 232 337 232 337 217 341 c 128,-1,9
 202 345 202 345 155 338 c 0,10,11
 138 336 138 336 135 328.5 c 128,-1,12
 132 321 132 321 132 282 c 0,0,1
44 400 m 128,-1,14
 44 408 44 408 67 408 c 128,-1,15
 90 408 90 408 97 400 c 0,16,17
 104 393 104 393 150 402 c 0,18,19
 192 411 192 411 238 401 c 0,20,21
 274 393 274 393 293.5 373.5 c 128,-1,22
 313 354 313 354 329 310 c 0,23,24
 339 281 339 281 340 233 c 128,-1,25
 341 185 341 185 331 166 c 2,26,-1
 316 136 l 2,27,28
 308 121 308 121 272.5 112.5 c 128,-1,29
 237 104 237 104 191 106 c 2,30,-1
 132 108 l 1,31,32
 133 62 133 62 129.5 10 c 128,-1,33
 126 -42 126 -42 121 -46 c 0,34,35
 116 -56 116 -56 79 -56 c 0,36,37
 57 -56 57 -56 49 -52.5 c 128,-1,38
 41 -49 41 -49 35 -37 c 0,39,40
 26 -16 26 -16 31 -2 c 0,41,42
 34 5 34 5 35.5 7 c 128,-1,43
 37 9 37 9 40 7 c 128,-1,44
 43 5 43 5 48 -2 c 0,45,46
 51 -6 51 -6 54 -8.5 c 128,-1,47
 57 -11 57 -11 59.5 -11.5 c 128,-1,48
 62 -12 62 -12 63 -10 c 0,49,50
 78 307 78 307 55 364 c 0,51,13
 44 392 44 392 44 400 c 128,-1,14
EndSplineSet
EndChar

StartChar: q
Encoding: 113 113 80
Width: 379
Flags: W
LayerCount: 2
Fore
SplineSet
216 322 m 0,0,1
 182 357 182 357 145 336.5 c 128,-1,2
 108 316 108 316 94 254 c 0,3,4
 84 208 84 208 88 186 c 128,-1,5
 92 164 92 164 113 153 c 0,6,7
 129 146 129 146 138.5 147.5 c 128,-1,8
 148 149 148 149 177 163 c 2,9,-1
 219 184 l 1,10,-1
 228 242 l 2,11,12
 236 285 236 285 234 295 c 128,-1,13
 232 305 232 305 216 322 c 0,0,1
262 -56 m 0,14,15
 239 -56 239 -56 222.5 -21.5 c 128,-1,16
 206 13 206 13 206 59 c 2,17,-1
 206 102 l 1,18,19
 150 86 150 86 108 86 c 0,20,21
 62 86 62 86 47 119 c 128,-1,22
 32 152 32 152 31 255 c 2,23,-1
 31 322 l 1,24,25
 36 326 36 326 49.5 339 c 128,-1,26
 63 352 63 352 69.5 357.5 c 128,-1,27
 76 363 76 363 89.5 373 c 128,-1,28
 103 383 103 383 113.5 387 c 128,-1,29
 124 391 124 391 138.5 395 c 128,-1,30
 153 399 153 399 168 399 c 0,31,32
 187 400 187 400 217.5 387 c 128,-1,33
 248 374 248 374 265 358 c 0,34,35
 281 344 281 344 283.5 303.5 c 128,-1,36
 286 263 286 263 275 214 c 0,37,38
 265 174 265 174 262.5 114.5 c 128,-1,39
 260 55 260 55 267 37 c 0,40,41
 272 25 272 25 287 33 c 0,42,43
 303 41 303 41 323.5 38.5 c 128,-1,44
 344 36 344 36 348 26 c 0,45,46
 351 16 351 16 313.5 -20 c 128,-1,47
 276 -56 276 -56 262 -56 c 0,14,15
EndSplineSet
EndChar

StartChar: r
Encoding: 114 114 81
Width: 307
Flags: W
LayerCount: 2
Fore
SplineSet
213 317 m 0,0,1
 213 341 213 341 176 341 c 128,-1,2
 139 341 139 341 126 317 c 0,3,4
 118 303 118 303 119.5 216.5 c 128,-1,5
 121 130 121 130 129 106 c 0,6,7
 133 93 133 93 127.5 90.5 c 128,-1,8
 122 88 122 88 89 88 c 0,9,10
 49 88 49 88 48 94 c 0,11,12
 48 97 48 97 50 102 c 0,13,14
 56 113 56 113 60 229 c 0,15,16
 62 310 62 310 59.5 328 c 128,-1,17
 57 346 57 346 45 356 c 0,18,19
 22 376 22 376 35 392.5 c 128,-1,20
 48 409 48 409 74 400 c 0,21,22
 89 394 89 394 149 398 c 0,23,24
 190 401 190 401 201 398.5 c 128,-1,25
 212 396 212 396 230 379 c 0,26,27
 265 345 265 345 274 313.5 c 128,-1,28
 283 282 283 282 260 275 c 1,29,30
 245 266 245 266 229 284.5 c 128,-1,31
 213 303 213 303 213 317 c 0,0,1
EndSplineSet
EndChar

StartChar: s
Encoding: 115 115 82
Width: 282
Flags: W
LayerCount: 2
Fore
SplineSet
182 258 m 0,0,1
 200 246 200 246 214 219.5 c 128,-1,2
 228 193 228 193 229 164 c 128,-1,3
 230 135 230 135 208 114 c 0,4,5
 192 100 192 100 182.5 97 c 128,-1,6
 173 94 173 94 137 98 c 0,7,8
 111 101 111 101 97 104 c 128,-1,9
 83 107 83 107 65 114 c 128,-1,10
 47 121 47 121 39 134 c 128,-1,11
 31 147 31 147 30 166 c 0,12,13
 28 197 28 197 39.5 204.5 c 128,-1,14
 51 212 51 212 71 194 c 0,15,16
 108 160 108 160 148 160 c 0,17,18
 189 160 189 160 174 187 c 0,19,20
 162 210 162 210 114 242 c 0,21,22
 78 267 78 267 69.5 281 c 128,-1,23
 61 295 61 295 61 331 c 0,24,25
 61 358 61 358 69 372 c 128,-1,26
 77 386 77 386 101 403 c 0,27,28
 105 408 105 408 117 411 c 128,-1,29
 129 414 129 414 147 414 c 128,-1,30
 165 414 165 414 181.5 414 c 128,-1,31
 198 414 198 414 218.5 413 c 128,-1,32
 239 412 239 412 249 412 c 1,33,-1
 251 378 l 2,34,35
 253 349 253 349 247 346 c 128,-1,36
 241 343 241 343 198 355 c 0,37,38
 125 374 125 374 111 339 c 0,39,40
 107 329 107 329 131 302.5 c 128,-1,41
 155 276 155 276 182 258 c 0,0,1
EndSplineSet
EndChar

StartChar: t
Encoding: 116 116 83
Width: 294
Flags: W
LayerCount: 2
Fore
SplineSet
219 328 m 1,0,-1
 137 328 l 1,1,-1
 139 246 l 2,2,3
 141 145 141 145 164 143 c 0,4,5
 177 143 177 143 204 173 c 0,6,7
 236 209 236 209 256 197 c 0,8,9
 274 185 274 185 256 150 c 0,10,11
 251 139 251 139 242 128 c 0,12,13
 224 105 224 105 213.5 100.5 c 128,-1,14
 203 96 203 96 170 96 c 0,15,16
 123 96 123 96 100 115 c 0,17,18
 84 129 84 129 81 144.5 c 128,-1,19
 78 160 78 160 76 231 c 0,20,21
 75 297 75 297 72 312.5 c 128,-1,22
 69 328 69 328 58 328 c 0,23,24
 42 328 42 328 34 345 c 0,25,26
 26 361 26 361 34.5 372.5 c 128,-1,27
 43 384 43 384 63 384 c 0,28,29
 78 384 78 384 81.5 397.5 c 128,-1,30
 85 411 85 411 80 426 c 128,-1,31
 75 441 75 441 68 445 c 0,32,33
 57 452 57 452 57.5 455.5 c 128,-1,34
 58 459 58 459 70 468 c 0,35,36
 87 481 87 481 110 478 c 0,37,38
 127 477 127 477 130.5 470 c 128,-1,39
 134 463 134 463 136 430 c 2,40,-1
 139 385 l 1,41,-1
 176 382 l 2,42,43
 203 380 203 380 209 376.5 c 128,-1,44
 215 373 215 373 216 354 c 2,45,-1
 219 328 l 1,0,-1
EndSplineSet
EndChar

StartChar: u
Encoding: 117 117 84
Width: 338
Flags: W
LayerCount: 2
Fore
SplineSet
211 293 m 0,0,1
 211 298 211 298 211 309 c 0,2,3
 212 391 212 391 220 403 c 0,4,5
 227 414 227 414 259 413 c 0,6,7
 261 413 261 413 264 413 c 0,8,9
 272 413 272 413 276 413 c 0,10,11
 277 401 277 401 278 321.5 c 128,-1,12
 279 242 279 242 282.5 190 c 128,-1,13
 286 138 286 138 294 137 c 1,14,15
 332 96 332 96 270 96 c 0,16,17
 248 96 248 96 239.5 99 c 128,-1,18
 231 102 231 102 229 111 c 0,19,20
 227 119 227 119 225.5 121 c 128,-1,21
 224 123 224 123 221 121 c 128,-1,22
 218 119 218 119 210 111 c 0,23,24
 194 94 194 94 148.5 95 c 128,-1,25
 103 96 103 96 82 114 c 0,26,27
 60 132 60 132 52.5 165 c 128,-1,28
 45 198 45 198 43 274 c 0,29,30
 43 362 43 362 34 382 c 0,31,32
 27 400 27 400 31 409 c 0,33,34
 34 413 34 413 46.5 414 c 128,-1,35
 59 415 59 415 79 413.5 c 128,-1,36
 99 412 99 412 103 412 c 1,37,38
 103 403 103 403 104 331.5 c 128,-1,39
 105 260 105 260 107.5 215.5 c 128,-1,40
 110 171 110 171 116 162 c 0,41,42
 126 147 126 147 158.5 153.5 c 128,-1,43
 191 160 191 160 204 179 c 0,44,45
 211 191 211 191 211 293 c 0,0,1
EndSplineSet
EndChar

StartChar: v
Encoding: 118 118 85
Width: 392
Flags: W
LayerCount: 2
Fore
SplineSet
351 382 m 0,0,1
 341 371 341 371 335.5 360 c 128,-1,2
 330 349 330 349 322 341 c 0,3,4
 314 334 314 334 296 287.5 c 128,-1,5
 278 241 278 241 260 188.5 c 128,-1,6
 242 136 242 136 239 130 c 0,7,8
 232 113 232 113 222 107 c 128,-1,9
 212 101 212 101 202 107 c 128,-1,10
 192 113 192 113 185 131 c 0,11,12
 177 149 177 149 140.5 208 c 128,-1,13
 104 267 104 267 95 290 c 0,14,15
 89 305 89 305 71 333 c 128,-1,16
 53 361 53 361 40.5 384.5 c 128,-1,17
 28 408 28 408 31 422 c 0,18,19
 35 428 35 428 87.5 427.5 c 128,-1,20
 140 427 140 427 145 422 c 0,21,22
 151 418 151 418 138 394 c 0,23,24
 130 377 130 377 132 366 c 128,-1,25
 134 355 134 355 154 316 c 0,26,27
 191 244 191 244 198 241 c 0,28,29
 203 239 203 239 208 251 c 0,30,31
 209 254 209 254 212 262 c 0,32,33
 216 272 216 272 230.5 307 c 128,-1,34
 245 342 245 342 253.5 368 c 128,-1,35
 262 394 262 394 266 420 c 1,36,-1
 310 418 l 2,37,38
 362 415 362 415 363 402 c 0,39,40
 363 394 363 394 351 382 c 0,0,1
EndSplineSet
EndChar

StartChar: w
Encoding: 119 119 86
Width: 521
Flags: W
LayerCount: 2
Fore
SplineSet
273 372 m 0,0,1
 287 372 287 372 302 336 c 0,2,3
 323 282 323 282 354 233 c 1,4,5
 395 313 395 313 399 364 c 2,6,-1
 402 404 l 1,7,-1
 446 404 l 2,8,9
 477 404 477 404 483 401 c 128,-1,10
 489 398 489 398 491 384 c 0,11,12
 493 365 493 365 481 355 c 128,-1,13
 469 345 469 345 442 267 c 0,14,15
 388 107 388 107 363 99 c 0,16,17
 349 95 349 95 338.5 110 c 128,-1,18
 328 125 328 125 310 177 c 0,19,20
 292 232 292 232 282 240 c 0,21,22
 264 256 264 256 239 197 c 0,23,24
 233 182 233 182 226 162 c 0,25,26
 214 125 214 125 207.5 116.5 c 128,-1,27
 201 108 201 108 184 106 c 0,28,29
 162 104 162 104 153 115 c 128,-1,30
 144 126 144 126 131 172 c 0,31,32
 116 228 116 228 100.5 259.5 c 128,-1,33
 85 291 85 291 52 342 c 0,34,35
 21 388 21 388 36 403 c 0,36,37
 41 408 41 408 68.5 404.5 c 128,-1,38
 96 401 96 401 103 394 c 0,39,40
 106 392 106 392 138 303.5 c 128,-1,41
 170 215 170 215 174 213 c 0,42,43
 177 209 177 209 189 227 c 0,44,45
 198 243 198 243 210 269 c 0,46,47
 245 344 245 344 253.5 358 c 128,-1,48
 262 372 262 372 273 372 c 0,0,1
EndSplineSet
EndChar

StartChar: x
Encoding: 120 120 87
Width: 347
Flags: W
LayerCount: 2
Fore
SplineSet
250 202 m 0,0,1
 273 177 273 177 283 158.5 c 128,-1,2
 293 140 293 140 302 128 c 0,3,4
 319 105 319 105 316 96.5 c 128,-1,5
 313 88 313 88 286 88 c 0,6,7
 264 88 264 88 252 95.5 c 128,-1,8
 240 103 240 103 208 137 c 2,9,-1
 161 186 l 1,10,-1
 134 139 l 2,11,12
 114 105 114 105 105 98.5 c 128,-1,13
 96 92 96 92 68 90 c 0,14,15
 30 87 30 87 30 96 c 0,16,17
 30 102 30 102 71 158 c 0,18,19
 115 215 115 215 121 232.5 c 128,-1,20
 127 250 127 250 112 272 c 0,21,22
 102 287 102 287 97 296.5 c 128,-1,23
 92 306 92 306 86.5 314 c 128,-1,24
 81 322 81 322 65 339 c 0,25,26
 37 371 37 371 40 379 c 0,27,28
 43 389 43 389 75 390.5 c 128,-1,29
 107 392 107 392 114 382 c 0,30,31
 120 374 120 374 144 344.5 c 128,-1,32
 168 315 168 315 173 309 c 1,33,34
 210 351 210 351 214 371 c 0,35,36
 219 388 219 388 254 392 c 0,37,38
 292 396 292 396 296 394 c 0,39,40
 324 382 324 382 220 251 c 0,41,42
 214 242 214 242 250 202 c 0,0,1
EndSplineSet
EndChar

StartChar: y
Encoding: 121 121 88
Width: 321
Flags: W
LayerCount: 2
Fore
SplineSet
68 400 m 0,0,1
 91 400 91 400 97 395.5 c 128,-1,2
 103 391 103 391 108 370 c 0,3,4
 117 339 117 339 117 304 c 0,5,6
 119 237 119 237 134 204 c 128,-1,7
 149 171 149 171 175 178 c 0,8,9
 198 184 198 184 207 213 c 128,-1,10
 216 242 216 242 217 312 c 2,11,-1
 217 396 l 1,12,-1
 247 398 l 2,13,14
 275 400 275 400 286 388.5 c 128,-1,15
 297 377 297 377 285 358 c 0,16,17
 273 341 273 341 272 252 c 0,18,19
 267 -7 267 -7 252 -33 c 0,20,21
 245 -48 245 -48 220.5 -60 c 128,-1,22
 196 -72 196 -72 173 -72 c 128,-1,23
 150 -72 150 -72 115.5 -56 c 128,-1,24
 81 -40 81 -40 72 -26 c 0,25,26
 53 6 53 6 56.5 35 c 128,-1,27
 60 64 60 64 83 64 c 0,28,29
 97 64 97 64 111 49.5 c 128,-1,30
 125 35 125 35 125 20 c 0,31,32
 125 -16 125 -16 179 2 c 0,33,34
 200 8 200 8 207 15.5 c 128,-1,35
 214 23 214 23 214 42 c 0,36,37
 214 49 214 49 215.5 63 c 128,-1,38
 217 77 217 77 216.5 85 c 128,-1,39
 216 93 216 93 214 102.5 c 128,-1,40
 212 112 212 112 204 114.5 c 128,-1,41
 196 117 196 117 183 114 c 0,42,43
 156 107 156 107 126.5 124.5 c 128,-1,44
 97 142 97 142 83 169 c 0,45,46
 76 178 76 178 58.5 269.5 c 128,-1,47
 41 361 41 361 35 369 c 0,48,49
 27 374 27 374 31 387 c 128,-1,50
 35 400 35 400 68 400 c 0,0,1
EndSplineSet
EndChar

StartChar: z
Encoding: 122 122 89
Width: 362
Flags: W
LayerCount: 2
Fore
SplineSet
331 96 m 1,0,1
 215 98 215 98 134 88 c 0,2,3
 82 81 82 81 59.5 85 c 128,-1,4
 37 89 37 89 32 106 c 0,5,6
 28 118 28 118 64 156.5 c 128,-1,7
 100 195 100 195 215 303 c 0,8,9
 231 317 231 317 240 330 c 128,-1,10
 249 343 249 343 246 346 c 0,11,12
 242 350 242 350 193.5 352.5 c 128,-1,13
 145 355 145 355 103 353 c 0,14,15
 86 353 86 353 68 335 c 0,16,17
 49 316 49 316 38.5 323.5 c 128,-1,18
 28 331 28 331 30 362 c 0,19,20
 34 397 34 397 40 406 c 0,21,22
 47 416 47 416 135 415 c 0,23,24
 213 414 213 414 242.5 410.5 c 128,-1,25
 272 407 272 407 287 397.5 c 128,-1,26
 302 388 302 388 321 359 c 1,27,28
 294 300 294 300 238 248 c 0,29,30
 219 231 219 231 183.5 199.5 c 128,-1,31
 148 168 148 168 129 151 c 1,32,33
 138 151 138 151 163.5 152 c 128,-1,34
 189 153 189 153 209.5 154 c 128,-1,35
 230 155 230 155 253 156.5 c 128,-1,36
 276 158 276 158 291.5 160.5 c 128,-1,37
 307 163 307 163 311 166 c 0,38,39
 326 178 326 178 329 161 c 0,40,41
 331 152 331 152 331 130 c 2,42,-1
 331 96 l 1,0,1
EndSplineSet
EndChar

StartChar: uni0093
Encoding: 147 147 90
Width: 295
Flags: W
LayerCount: 2
Fore
SplineSet
262 403 m 0,0,1
 262 380 262 380 245.5 358 c 128,-1,2
 229 336 229 336 213 336 c 0,3,4
 166 336 166 336 166 424 c 0,5,6
 166 473 166 473 174.5 496.5 c 128,-1,7
 183 520 183 520 205 527 c 0,8,9
 226 534 226 534 234 534 c 128,-1,10
 242 534 242 534 255 527 c 0,11,12
 267 521 267 521 264 515.5 c 128,-1,13
 261 510 261 510 236 486 c 2,14,-1
 202 453 l 1,15,16
 222 451 222 451 227.5 450 c 128,-1,17
 233 449 233 449 244 444 c 128,-1,18
 255 439 255 439 258.5 429.5 c 128,-1,19
 262 420 262 420 262 403 c 0,0,1
126 403 m 0,20,21
 126 380 126 380 109.5 358 c 128,-1,22
 93 336 93 336 77 336 c 0,23,24
 30 336 30 336 30 424 c 0,25,26
 30 473 30 473 38.5 496.5 c 128,-1,27
 47 520 47 520 69 527 c 0,28,29
 90 534 90 534 98 534 c 128,-1,30
 106 534 106 534 119 527 c 0,31,32
 131 521 131 521 128 515.5 c 128,-1,33
 125 510 125 510 100 486 c 2,34,-1
 66 453 l 1,35,36
 86 451 86 451 91.5 450 c 128,-1,37
 97 449 97 449 108 444 c 128,-1,38
 119 439 119 439 122.5 429.5 c 128,-1,39
 126 420 126 420 126 403 c 0,20,21
EndSplineSet
EndChar

StartChar: uni0094
Encoding: 148 148 91
Width: 295
Flags: W
LayerCount: 2
Fore
SplineSet
265 472 m 0,0,1
 265 417 265 417 256 397 c 128,-1,2
 247 377 247 377 221 367.5 c 128,-1,3
 195 358 195 358 177 368 c 0,4,5
 164 375 164 375 166.5 380.5 c 128,-1,6
 169 386 169 386 194 410 c 2,7,-1
 229 443 l 1,8,9
 183 448 183 448 175 458 c 0,10,11
 158 481 158 481 177 522 c 0,12,13
 195 562 195 562 223 559 c 0,14,15
 237 558 237 558 249 544 c 0,16,17
 265 528 265 528 265 472 c 0,0,1
129 472 m 0,18,19
 129 417 129 417 120 397 c 128,-1,20
 111 377 111 377 85 367.5 c 128,-1,21
 59 358 59 358 41 368 c 0,22,23
 28 375 28 375 30.5 380.5 c 128,-1,24
 33 386 33 386 58 410 c 2,25,-1
 93 443 l 1,26,27
 47 448 47 448 39 458 c 0,28,29
 22 481 22 481 41 522 c 0,30,31
 59 562 59 562 87 559 c 0,32,33
 101 558 101 558 113 544 c 0,34,35
 129 528 129 528 129 472 c 0,18,19
EndSplineSet
EndChar

StartChar: exclamdown
Encoding: 161 161 92
Width: 179
Flags: W
LayerCount: 2
Fore
SplineSet
102 240 m 0,0,1
 112 241 112 241 119.5 220.5 c 128,-1,2
 127 200 127 200 131 166.5 c 128,-1,3
 135 133 135 133 138 100.5 c 128,-1,4
 141 68 141 68 143 34.5 c 128,-1,5
 145 1 145 1 146 -10 c 0,6,7
 151 -54 151 -54 141 -67 c 128,-1,8
 131 -80 131 -80 93 -80 c 0,9,10
 69 -80 69 -80 59.5 -76.5 c 128,-1,11
 50 -73 50 -73 42 -60 c 0,12,13
 30 -42 30 -42 30 -14 c 128,-1,14
 30 14 30 14 41 79 c 0,15,16
 61 197 61 197 84 226 c 0,17,18
 96 240 96 240 102 240 c 0,0,1
115 384 m 0,19,20
 135 384 135 384 145.5 341 c 128,-1,21
 156 298 156 298 140 282 c 0,22,23
 129 271 129 271 103 273 c 128,-1,24
 77 275 77 275 65 288 c 0,25,26
 50 305 50 305 56 330.5 c 128,-1,27
 62 356 62 356 84 370 c 0,28,29
 105 384 105 384 115 384 c 0,19,20
EndSplineSet
EndChar

StartChar: cent
Encoding: 162 162 93
Width: 335
Flags: W
LayerCount: 2
Fore
SplineSet
158 328 m 0,0,1
 112 328 112 328 97 264 c 0,2,3
 85 213 85 213 97 191 c 0,4,5
 100 184 100 184 106 188 c 256,6,7
 112 192 112 192 135 236.5 c 128,-1,8
 158 281 158 281 169 309 c 0,9,10
 174 322 174 322 172 325 c 128,-1,11
 170 328 170 328 158 328 c 0,0,1
274 368 m 0,12,13
 280 368 280 368 290 347 c 0,14,15
 299 328 299 328 289.5 320 c 128,-1,16
 280 312 280 312 256 317 c 0,17,18
 241 320 241 320 234.5 312 c 128,-1,19
 228 304 228 304 210 266 c 0,20,21
 203 250 203 250 185 214.5 c 128,-1,22
 167 179 167 179 161 158 c 0,23,24
 163 152 163 152 177.5 152.5 c 128,-1,25
 192 153 192 153 215.5 160.5 c 128,-1,26
 239 168 239 168 256 179 c 0,27,28
 274 190 274 190 284.5 193.5 c 128,-1,29
 295 197 295 197 300 193 c 128,-1,30
 305 189 305 189 305 176 c 0,31,32
 305 147 305 147 265.5 125.5 c 128,-1,33
 226 104 226 104 174 104 c 2,34,-1
 133 104 l 1,35,-1
 112 62 l 2,36,37
 98 35 98 35 90 27 c 128,-1,38
 82 19 82 19 65 18 c 0,39,40
 33 15 33 15 30.5 27 c 128,-1,41
 28 39 28 39 51 82 c 0,42,43
 69 115 69 115 72 126.5 c 128,-1,44
 75 138 75 138 68 146 c 0,45,46
 57 157 57 157 48 202 c 0,47,48
 41 242 41 242 50.5 281 c 128,-1,49
 60 320 60 320 83 342 c 0,50,51
 99 358 99 358 129.5 371 c 128,-1,52
 160 384 160 384 182 384 c 0,53,54
 195 384 195 384 202.5 390 c 128,-1,55
 210 396 210 396 219 415 c 0,56,57
 224 425 224 425 228.5 441.5 c 128,-1,58
 233 458 233 458 236 466 c 128,-1,59
 239 474 239 474 250 480.5 c 128,-1,60
 261 487 261 487 281 486 c 0,61,62
 294 485 294 485 297 480.5 c 128,-1,63
 300 476 300 476 298 460 c 0,64,65
 294 431 294 431 286 420 c 0,66,67
 279 409 279 409 274.5 396.5 c 128,-1,68
 270 384 270 384 270 376.5 c 128,-1,69
 270 369 270 369 274 368 c 0,12,13
EndSplineSet
EndChar

StartChar: sterling
Encoding: 163 163 94
Width: 385
Flags: W
LayerCount: 2
Fore
SplineSet
111 124 m 1,0,1
 113 137 113 137 104 136 c 0,2,3
 93 135 93 135 84 124 c 0,4,5
 80 119 80 119 79.5 116.5 c 128,-1,6
 79 114 79 114 81.5 113 c 128,-1,7
 84 112 84 112 91 112 c 0,8,9
 105 112 105 112 111 124 c 1,0,1
196 381 m 0,10,11
 196 367 196 367 201.5 363 c 128,-1,12
 207 359 207 359 229 358 c 0,13,14
 273 355 273 355 275 333 c 0,15,16
 277 316 277 316 249 306 c 0,17,18
 235 302 235 302 217 301 c 2,19,-1
 181 301 l 1,20,-1
 169 255 l 2,21,22
 155 208 155 208 156.5 188.5 c 128,-1,23
 158 169 158 169 176 162 c 0,24,25
 196 153 196 153 196 144 c 0,26,27
 196 136 196 136 232 136 c 128,-1,28
 268 136 268 136 296 162 c 0,29,30
 315 178 315 178 322.5 180 c 128,-1,31
 330 182 330 182 338 174 c 0,32,33
 346 165 346 165 346 159.5 c 128,-1,34
 346 154 346 154 336 138 c 0,35,36
 316 104 316 104 260.5 91.5 c 128,-1,37
 205 79 205 79 182 102 c 0,38,39
 172 113 172 113 167.5 112 c 128,-1,40
 163 111 163 111 150 98 c 0,41,42
 140 87 140 87 128.5 83.5 c 128,-1,43
 117 80 117 80 90 80 c 0,44,45
 61 80 61 80 52 83.5 c 128,-1,46
 43 87 43 87 36 100 c 0,47,48
 26 120 26 120 33.5 141.5 c 128,-1,49
 41 163 41 163 62 174 c 0,50,51
 90 187 90 187 99 244 c 128,-1,52
 108 301 108 301 84 308 c 0,53,54
 72 312 72 312 70 323 c 128,-1,55
 68 334 68 334 77 343 c 128,-1,56
 86 352 86 352 100 352 c 0,57,58
 112 352 112 352 132 406 c 0,59,60
 149 453 149 453 172.5 487 c 128,-1,61
 196 521 196 521 215 528 c 0,62,63
 232 535 232 535 275 535 c 0,64,65
 301 536 301 536 312.5 532 c 128,-1,66
 324 528 324 528 337 514 c 0,67,68
 349 501 349 501 352.5 490.5 c 128,-1,69
 356 480 356 480 355 461 c 0,70,71
 354 439 354 439 349.5 433.5 c 128,-1,72
 345 428 345 428 329 426 c 0,73,74
 306 423 306 423 298 431.5 c 128,-1,75
 290 440 290 440 303 455 c 0,76,77
 313 465 313 465 311.5 468.5 c 128,-1,78
 310 472 310 472 293 478 c 128,-1,79
 276 484 276 484 268 482 c 128,-1,80
 260 480 260 480 244 466 c 0,81,82
 196 426 196 426 196 381 c 0,10,11
EndSplineSet
EndChar

StartChar: yen
Encoding: 165 165 95
Width: 375
Flags: W
LayerCount: 2
Fore
SplineSet
113 356 m 2,0,-1
 88 407 l 2,1,2
 63 458 63 458 65 465 c 0,3,4
 65 480 65 480 58 480 c 0,5,6
 50 480 50 480 41 505 c 128,-1,7
 32 530 32 530 36 540 c 0,8,9
 40 553 40 553 74 550 c 0,10,11
 100 548 100 548 105.5 542.5 c 128,-1,12
 111 537 111 537 119 504 c 0,13,14
 129 465 129 465 148.5 421.5 c 128,-1,15
 168 378 168 378 178 372 c 0,16,17
 188 365 188 365 205 389 c 128,-1,18
 222 413 222 413 254 478 c 0,19,20
 280 530 280 530 289 541 c 128,-1,21
 298 552 298 552 314 552 c 0,22,23
 334 552 334 552 342 540 c 128,-1,24
 350 528 350 528 340 512 c 0,25,26
 336 505 336 505 307.5 452.5 c 128,-1,27
 279 400 279 400 268 386 c 2,28,-1
 248 360 l 1,29,-1
 279 360 l 2,30,31
 312 361 312 361 321.5 346 c 128,-1,32
 331 331 331 331 329 296 c 1,33,34
 320 295 320 295 303 295.5 c 128,-1,35
 286 296 286 296 266 296 c 128,-1,36
 246 296 246 296 228.5 295.5 c 128,-1,37
 211 295 211 295 200.5 292 c 128,-1,38
 190 289 190 289 193 284 c 0,39,40
 193 267 193 267 282 271 c 0,41,42
 309 273 309 273 319.5 261 c 128,-1,43
 330 249 330 249 325 224 c 0,44,45
 319 200 319 200 311 198 c 0,46,47
 274 191 274 191 209 193 c 1,48,49
 209 116 209 116 218 106 c 0,50,51
 238 86 238 86 195 81 c 0,52,53
 185 80 185 80 172 80 c 0,54,55
 138 80 138 80 132.5 87 c 128,-1,56
 127 94 127 94 141 120 c 0,57,58
 156 146 156 146 153 194 c 1,59,60
 47 187 47 187 34 196 c 0,61,62
 31 199 31 199 30.5 205 c 128,-1,63
 30 211 30 211 31 219.5 c 128,-1,64
 32 228 32 228 33 234 c 128,-1,65
 34 240 34 240 36 249 c 128,-1,66
 38 258 38 258 38 260 c 2,67,-1
 100 264 l 2,68,69
 159 268 159 268 156.5 278 c 128,-1,70
 154 288 154 288 93 290 c 2,71,-1
 37 292 l 1,72,-1
 37 320 l 2,73,74
 37 341 37 341 42 344.5 c 128,-1,75
 47 348 47 348 76 350 c 0,76,77
 113 354 113 354 113 356 c 2,0,-1
EndSplineSet
EndChar

StartChar: section
Encoding: 167 167 96
Width: 271
Flags: W
LayerCount: 2
Fore
SplineSet
179 298 m 0,0,1
 169 310 169 310 148 323 c 0,2,3
 133 333 133 333 129.5 332.5 c 128,-1,4
 126 332 126 332 123 319 c 0,5,6
 119 305 119 305 103.5 305 c 128,-1,7
 88 305 88 305 81 296 c 0,8,9
 72 284 72 284 71.5 279.5 c 128,-1,10
 71 275 71 275 79 261 c 0,11,12
 94 240 94 240 129 236 c 0,13,14
 167 230 167 230 177 235 c 0,15,16
 188 240 188 240 188.5 262 c 128,-1,17
 189 284 189 284 179 298 c 0,0,1
191 424 m 0,18,19
 166 424 166 424 155 440.5 c 128,-1,20
 144 457 144 457 161 469 c 0,21,22
 177 482 177 482 169 497 c 128,-1,23
 161 512 161 512 138 512 c 0,24,25
 110 512 110 512 101 498.5 c 128,-1,26
 92 485 92 485 97 450 c 0,27,28
 102 421 102 421 116 403 c 128,-1,29
 130 385 130 385 187 338 c 0,30,31
 233 299 233 299 235 261 c 128,-1,32
 237 223 237 223 193 202 c 0,33,34
 186 198 186 198 180.5 195.5 c 128,-1,35
 175 193 175 193 171.5 190 c 128,-1,36
 168 187 168 187 166.5 185 c 128,-1,37
 165 183 165 183 165.5 180.5 c 128,-1,38
 166 178 166 178 167.5 176 c 128,-1,39
 169 174 169 174 173 172 c 0,40,41
 190 161 190 161 205.5 127 c 128,-1,42
 221 93 221 93 221 68 c 0,43,44
 221 36 221 36 205 22 c 128,-1,45
 189 8 189 8 138 -2 c 0,46,47
 109 -8 109 -8 97 -7.5 c 128,-1,48
 85 -7 85 -7 71 1 c 0,49,50
 42 18 42 18 48.5 53 c 128,-1,51
 55 88 55 88 87 88 c 0,52,53
 103 88 103 88 107 74.5 c 128,-1,54
 111 61 111 61 99 52 c 0,55,56
 76 36 76 36 96 33 c 0,57,58
 103 32 103 32 116 32 c 0,59,60
 152 31 152 31 185 62 c 1,61,62
 159 117 159 117 145 132 c 0,63,64
 127 152 127 152 63 193 c 0,65,66
 48 203 48 203 41.5 213.5 c 128,-1,67
 35 224 35 224 32 245 c 0,68,69
 25 298 25 298 42.5 323.5 c 128,-1,70
 60 349 60 349 103 344 c 1,71,-1
 75 375 l 2,72,73
 38 415 38 415 36.5 465.5 c 128,-1,74
 35 516 35 516 70 547 c 0,75,76
 87 562 87 562 98.5 565 c 128,-1,77
 110 568 110 568 143 566 c 0,78,79
 204 562 204 562 228 532 c 128,-1,80
 252 502 252 502 231 456 c 0,81,82
 222 436 222 436 214.5 430 c 128,-1,83
 207 424 207 424 191 424 c 0,18,19
EndSplineSet
EndChar

StartChar: copyright
Encoding: 169 169 97
Width: 610
Flags: W
LayerCount: 2
Fore
SplineSet
318 456 m 0,0,1
 381 456 381 456 411 444 c 128,-1,2
 441 432 441 432 444 405 c 0,3,4
 447 379 447 379 437.5 373 c 128,-1,5
 428 367 428 367 403 379 c 0,6,7
 374 393 374 393 370 400 c 0,8,9
 364 410 364 410 329.5 407.5 c 128,-1,10
 295 405 295 405 275 394 c 0,11,12
 240 373 240 373 228 331 c 128,-1,13
 216 289 216 289 234 246 c 0,14,15
 245 220 245 220 261.5 210 c 128,-1,16
 278 200 278 200 312 200 c 0,17,18
 347 200 347 200 380 228 c 0,19,20
 422 263 422 263 443 254 c 256,21,22
 464 245 464 245 437 205 c 0,23,24
 421 182 421 182 380.5 155 c 128,-1,25
 340 128 340 128 320 128 c 0,26,27
 298 128 298 128 255.5 150 c 128,-1,28
 213 172 213 172 190 195 c 0,29,30
 171 215 171 215 166.5 228.5 c 128,-1,31
 162 242 162 242 160 285 c 0,32,33
 158 326 158 326 160.5 343 c 128,-1,34
 163 360 163 360 177 387 c 0,35,36
 200 433 200 433 224 444.5 c 128,-1,37
 248 456 248 456 318 456 c 0,0,1
436 488 m 128,-1,39
 422 488 422 488 419 495 c 0,40,41
 417 498 417 498 410 501 c 128,-1,42
 403 504 403 504 392 506 c 128,-1,43
 381 508 381 508 372 509.5 c 128,-1,44
 363 511 363 511 352 512.5 c 128,-1,45
 341 514 341 514 338 515 c 0,46,47
 319 519 319 519 258.5 512 c 128,-1,48
 198 505 198 505 185 498 c 0,49,50
 164 486 164 486 134.5 451.5 c 128,-1,51
 105 417 105 417 97 394 c 0,52,53
 78 340 78 340 90.5 267 c 128,-1,54
 103 194 103 194 135 166 c 0,55,56
 181 126 181 126 246.5 109 c 128,-1,57
 312 92 312 92 368 104 c 0,58,59
 414 114 414 114 437.5 130.5 c 128,-1,60
 461 147 461 147 488 186 c 0,61,62
 508 215 508 215 513 230 c 128,-1,63
 518 245 518 245 518 273 c 0,64,65
 517 351 517 351 508 390 c 128,-1,66
 499 429 499 429 475 458 c 0,67,38
 450 488 450 488 436 488 c 128,-1,39
30 318 m 0,68,69
 30 381 30 381 50 421 c 0,70,71
 73 465 73 465 117 507.5 c 128,-1,72
 161 550 161 550 196 560 c 0,73,74
 224 567 224 567 313 567 c 0,75,76
 396 568 396 568 432.5 555.5 c 128,-1,77
 469 543 469 543 506 502 c 0,78,79
 537 469 537 469 553 431 c 128,-1,80
 569 393 569 393 576 333 c 0,81,82
 582 284 582 284 580 269 c 128,-1,83
 578 254 578 254 564 221 c 0,84,85
 543 176 543 176 506.5 135 c 128,-1,86
 470 94 470 94 435 76 c 0,87,88
 359 39 359 39 232 70 c 0,89,90
 166 87 166 87 124 119 c 128,-1,91
 82 151 82 151 54 208 c 0,92,93
 38 239 38 239 34 258 c 128,-1,94
 30 277 30 277 30 318 c 0,68,69
EndSplineSet
EndChar

StartChar: ordfeminine
Encoding: 170 170 98
Width: 232
Flags: W
LayerCount: 2
Fore
SplineSet
118 405 m 0,0,1
 118 419 118 419 84 410 c 0,2,3
 72 407 72 407 70.5 400.5 c 128,-1,4
 69 394 69 394 78 388 c 0,5,6
 88 382 88 382 103 388.5 c 128,-1,7
 118 395 118 395 118 405 c 0,0,1
190 402 m 0,8,9
 197 404 197 404 199.5 397.5 c 128,-1,10
 202 391 202 391 202 374 c 2,11,-1
 202 356 l 1,12,-1
 134 350 l 2,13,14
 70 344 70 344 50 348.5 c 128,-1,15
 30 353 30 353 30 373 c 0,16,17
 30 408 30 408 56.5 434 c 128,-1,18
 83 460 83 460 110 452 c 0,19,20
 122 448 122 448 124.5 450 c 128,-1,21
 127 452 127 452 124 465 c 0,22,23
 118 485 118 485 118 490 c 0,24,25
 118 502 118 502 93 494 c 0,26,27
 74 488 74 488 68 478 c 0,28,29
 58 462 58 462 48 467 c 0,30,31
 35 474 35 474 39 494 c 128,-1,32
 43 514 43 514 59 527 c 0,33,34
 79 542 79 542 87.5 542.5 c 128,-1,35
 96 543 96 543 119 530 c 0,36,37
 142 515 142 515 151 484 c 0,38,39
 163 436 163 436 171.5 418 c 128,-1,40
 180 400 180 400 190 402 c 0,8,9
EndSplineSet
EndChar

StartChar: guillemotleft
Encoding: 171 171 99
Width: 706
Flags: W
LayerCount: 2
Fore
SplineSet
475 342 m 0,0,1
 438 325 438 325 437.5 319.5 c 128,-1,2
 437 314 437 314 471 296 c 0,3,4
 527 267 527 267 562 243.5 c 128,-1,5
 597 220 597 220 623 205 c 0,6,7
 648 191 648 191 654.5 182.5 c 128,-1,8
 661 174 661 174 661 156 c 128,-1,9
 661 138 661 138 658 133 c 128,-1,10
 655 128 655 128 643 128 c 0,11,12
 628 128 628 128 601.5 142 c 128,-1,13
 575 156 575 156 546 175 c 128,-1,14
 517 194 517 194 509 198 c 0,15,16
 483 211 483 211 451 238 c 128,-1,17
 419 265 419 265 399 278 c 0,18,19
 359 304 359 304 356 323 c 128,-1,20
 353 342 353 342 387 363 c 128,-1,21
 421 384 421 384 475 408.5 c 128,-1,22
 529 433 529 433 566 452 c 0,23,24
 647 495 647 495 661 493 c 0,25,26
 672 492 672 492 675 455 c 0,27,28
 677 429 677 429 674.5 422.5 c 128,-1,29
 672 416 672 416 659 414 c 0,30,31
 609 403 609 403 475 342 c 0,0,1
139 342 m 0,32,33
 102 325 102 325 101.5 319.5 c 128,-1,34
 101 314 101 314 135 296 c 0,35,36
 191 267 191 267 226 243.5 c 128,-1,37
 261 220 261 220 287 205 c 0,38,39
 312 191 312 191 318.5 182.5 c 128,-1,40
 325 174 325 174 325 156 c 128,-1,41
 325 138 325 138 322 133 c 128,-1,42
 319 128 319 128 307 128 c 0,43,44
 292 128 292 128 265.5 142 c 128,-1,45
 239 156 239 156 210 175 c 128,-1,46
 181 194 181 194 173 198 c 0,47,48
 150 209 150 209 115 238 c 128,-1,49
 80 267 80 267 63 278 c 0,50,51
 40 293 40 293 35 300.5 c 128,-1,52
 30 308 30 308 31 327 c 0,53,54
 31 328 31 328 31 331 c 0,55,56
 32 348 32 348 45 358 c 0,57,58
 62 371 62 371 190 434 c 1,59,-1
 191 434 l 1,60,-1
 192 435 l 1,61,-1
 193 435 l 1,62,-1
 194 436 l 1,63,-1
 195 436 l 1,64,-1
 196 437 l 1,65,-1
 197 437 l 1,66,-1
 198 438 l 1,67,-1
 199 438 l 1,68,-1
 200 439 l 1,69,-1
 201 439 l 1,70,-1
 202 440 l 1,71,-1
 203 440 l 1,72,-1
 204 441 l 1,73,-1
 205 441 l 1,74,-1
 206 442 l 1,75,-1
 207 442 l 1,76,-1
 209 443 l 2,77,78
 316 495 316 495 325 493 c 0,79,80
 336 492 336 492 339 455 c 0,81,82
 341 429 341 429 338.5 422.5 c 128,-1,83
 336 416 336 416 323 414 c 0,84,85
 273 403 273 403 139 342 c 0,32,33
EndSplineSet
EndChar

StartChar: logicalnot
Encoding: 172 172 100
Width: 426
Flags: W
LayerCount: 2
Fore
SplineSet
277 304 m 0,0,1
 263 304 263 304 257 292 c 1,2,3
 255 279 255 279 264 280 c 0,4,5
 275 281 275 281 284 292 c 0,6,7
 288 297 288 297 288.5 299.5 c 128,-1,8
 289 302 289 302 286.5 303 c 128,-1,9
 284 304 284 304 277 304 c 0,0,1
338 352 m 0,10,11
 364 352 364 352 372 329 c 128,-1,12
 380 306 380 306 380 232 c 0,13,14
 380 151 380 151 388 148 c 0,15,16
 411 134 411 134 377 130 c 0,17,18
 365 128 365 128 349 128 c 0,19,20
 290 128 290 128 294 144 c 0,21,22
 295 151 295 151 306 158 c 0,23,24
 317 166 317 166 320.5 177 c 128,-1,25
 324 188 324 188 324 218 c 0,26,27
 324 252 324 252 321.5 258.5 c 128,-1,28
 319 265 319 265 306 260 c 0,29,30
 266 248 266 248 251.5 250.5 c 128,-1,31
 237 253 237 253 217 275 c 0,32,33
 198 297 198 297 186 300.5 c 128,-1,34
 174 304 174 304 126 304 c 0,35,36
 82 304 82 304 71 301 c 128,-1,37
 60 298 60 298 57 287 c 0,38,39
 54 270 54 270 42 274 c 0,40,41
 32 277 32 277 30 326 c 0,42,43
 28 384 28 384 41 381 c 0,44,45
 46 379 46 379 52 368 c 0,46,47
 60 352 60 352 70.5 353 c 128,-1,48
 81 354 81 354 101 374 c 2,49,-1
 123 394 l 1,50,51
 126 387 126 387 130.5 375 c 128,-1,52
 135 363 135 363 136.5 361.5 c 128,-1,53
 138 360 138 360 148 356 c 128,-1,54
 158 352 158 352 172 352 c 128,-1,55
 186 352 186 352 216 352 c 0,56,57
 268 352 268 352 280 354 c 128,-1,58
 292 356 292 356 292 366 c 0,59,60
 292 381 292 381 301 390 c 0,61,62
 311 400 311 400 317 399 c 128,-1,63
 323 398 323 398 333 387 c 0,64,65
 340 379 340 379 339 375 c 128,-1,66
 338 371 338 371 328 363 c 0,67,68
 315 354 315 354 321 353 c 0,69,70
 324 352 324 352 338 352 c 0,10,11
EndSplineSet
EndChar

StartChar: registered
Encoding: 174 174 101
Width: 511
Flags: W
LayerCount: 2
Fore
SplineSet
220 407 m 0,0,1
 205 402 205 402 205 337 c 1,2,-1
 236 342 l 2,3,4
 280 349 280 349 302 378 c 0,5,6
 318 398 318 398 301 409 c 0,7,8
 290 416 290 416 261.5 415.5 c 128,-1,9
 233 415 233 415 220 407 c 0,0,1
275 464 m 0,10,11
 321 464 321 464 335 450 c 128,-1,12
 349 436 349 436 349 391 c 0,13,14
 349 360 349 360 345 347.5 c 128,-1,15
 341 335 341 335 324 315 c 2,16,-1
 298 286 l 1,17,-1
 314 257 l 2,18,19
 324 239 324 239 332 233.5 c 128,-1,20
 340 228 340 228 357 228 c 0,21,22
 390 228 390 228 388 211 c 0,23,24
 385 193 385 193 357 178 c 0,25,26
 344 172 344 172 333 171 c 0,27,28
 313 170 313 170 304 178.5 c 128,-1,29
 295 187 295 187 270 229 c 0,30,31
 214 327 214 327 210 263 c 0,32,33
 210 257 210 257 210 248 c 0,34,35
 212 210 212 210 217 190 c 0,36,37
 221 174 221 174 217.5 171 c 128,-1,38
 214 168 214 168 191 168 c 0,39,40
 149 168 149 168 151 184 c 0,41,42
 152 189 152 189 157 194 c 0,43,44
 167 205 167 205 165.5 287 c 128,-1,45
 164 369 164 369 153 400 c 0,46,47
 145 423 145 423 145 431.5 c 128,-1,48
 145 440 145 440 154 450 c 0,49,50
 175 473 175 473 185 456 c 0,51,52
 190 448 190 448 210 456 c 0,53,54
 228 464 228 464 275 464 c 0,10,11
331 503 m 0,55,56
 309 511 309 511 254.5 510.5 c 128,-1,57
 200 510 200 510 174 501 c 0,58,59
 146 492 146 492 113 446 c 0,60,61
 91 418 91 418 84 399.5 c 128,-1,62
 77 381 77 381 73 348 c 0,63,64
 67 294 67 294 73.5 248.5 c 128,-1,65
 80 203 80 203 96 186 c 0,66,67
 124 156 124 156 154 144 c 128,-1,68
 184 132 184 132 244 128 c 0,69,70
 309 123 309 123 336 130 c 128,-1,71
 363 137 363 137 394 166 c 0,72,73
 415 185 415 185 422.5 205 c 128,-1,74
 430 225 430 225 437 276 c 0,75,76
 441 307 441 307 438.5 326 c 128,-1,77
 436 345 436 345 423 380 c 0,78,79
 386 483 386 483 331 503 c 0,55,56
257 88 m 0,80,81
 192 88 192 88 173.5 92 c 128,-1,82
 155 96 155 96 117 118 c 0,83,84
 62 149 62 149 47 182 c 128,-1,85
 32 215 32 215 30 303 c 0,86,87
 29 360 29 360 32 382 c 128,-1,88
 35 404 35 404 45 424 c 0,89,90
 68 470 68 470 108.5 507 c 128,-1,91
 149 544 149 544 185 552 c 0,92,93
 246 566 246 566 321 544 c 0,94,95
 368 530 368 530 396.5 507.5 c 128,-1,96
 425 485 425 485 456 436 c 0,97,98
 474 407 474 407 478 390.5 c 128,-1,99
 482 374 482 374 481 324 c 0,100,101
 480 252 480 252 462 206 c 0,102,103
 433 134 433 134 393.5 111 c 128,-1,104
 354 88 354 88 257 88 c 0,80,81
EndSplineSet
EndChar

StartChar: paragraph
Encoding: 182 182 102
Width: 382
Flags: W
LayerCount: 2
Fore
SplineSet
288 536 m 2,0,1
 338 536 338 536 348.5 524.5 c 128,-1,2
 359 513 359 513 332 485 c 2,3,-1
 306 458 l 1,4,5
 306 72 306 72 312 16 c 0,6,7
 313 7 313 7 331 -1 c 128,-1,8
 349 -9 349 -9 346 -18 c 0,9,10
 343 -29 343 -29 297.5 -30.5 c 128,-1,11
 252 -32 252 -32 248 -22 c 0,12,13
 244 19 244 19 240 536 c 1,14,-1
 288 536 l 2,0,1
148 472 m 0,15,16
 132 472 132 472 122 448 c 0,17,18
 117 436 117 436 110.5 429.5 c 128,-1,19
 104 423 104 423 102 416 c 128,-1,20
 100 409 100 409 100 385 c 0,21,22
 100 345 100 345 115 317 c 128,-1,23
 130 289 130 289 153 288 c 0,24,25
 163 288 163 288 163 380 c 0,26,27
 162 445 162 445 160 458.5 c 128,-1,28
 158 472 158 472 148 472 c 0,15,16
212 -32 m 0,29,30
 208 -32 208 -32 161.5 -32 c 128,-1,31
 115 -32 115 -32 87.5 -30 c 128,-1,32
 60 -28 60 -28 56 -23 c 0,33,34
 48 -12 48 -12 70 6 c 128,-1,35
 92 24 92 24 120 28 c 2,36,-1
 156 33 l 1,37,-1
 156 214 l 1,38,-1
 117 239 l 2,39,40
 81 262 81 262 62 288 c 128,-1,41
 43 314 43 314 35 352 c 0,42,43
 29 381 29 381 31 393.5 c 128,-1,44
 33 406 33 406 47 435 c 0,45,46
 97 536 97 536 205 530 c 1,47,48
 210 498 210 498 211.5 302 c 128,-1,49
 213 106 213 106 212 -32 c 0,29,30
EndSplineSet
EndChar

StartChar: ordmasculine
Encoding: 186 186 103
Width: 272
Flags: W
LayerCount: 2
Fore
SplineSet
134 496 m 0,0,1
 115 496 115 496 96.5 475 c 128,-1,2
 78 454 78 454 78 434 c 0,3,4
 78 409 78 409 95.5 388.5 c 128,-1,5
 113 368 113 368 133 368 c 0,6,7
 173 368 173 368 186.5 407.5 c 128,-1,8
 200 447 200 447 170 476 c 0,9,10
 152 496 152 496 134 496 c 0,0,1
30 432 m 0,11,12
 30 486 30 486 58.5 510.5 c 128,-1,13
 87 535 87 535 148 535 c 0,14,15
 179 535 179 535 188 530.5 c 128,-1,16
 197 526 197 526 216 498 c 0,17,18
 242 461 242 461 242 422 c 0,19,20
 242 397 242 397 237 385.5 c 128,-1,21
 232 374 232 374 212 355 c 0,22,23
 191 336 191 336 178.5 332 c 128,-1,24
 166 328 166 328 131 328 c 0,25,26
 93 328 93 328 82.5 332 c 128,-1,27
 72 336 72 336 55 358 c 0,28,29
 39 377 39 377 34.5 390 c 128,-1,30
 30 403 30 403 30 432 c 0,11,12
EndSplineSet
EndChar

StartChar: guillemotright
Encoding: 187 187 104
Width: 717
Flags: W
LayerCount: 2
Fore
SplineSet
491 460 m 0,0,1
 541 435 541 435 577.5 420 c 128,-1,2
 614 405 614 405 648 384 c 0,3,4
 687 359 687 359 686 340 c 128,-1,5
 685 321 685 321 644 294 c 0,6,7
 626 282 626 282 593.5 254.5 c 128,-1,8
 561 227 561 227 534 214 c 0,9,10
 526 210 526 210 497 191 c 128,-1,11
 468 172 468 172 441.5 158 c 128,-1,12
 415 144 415 144 400 144 c 0,13,14
 388 144 388 144 385 149 c 128,-1,15
 382 154 382 154 382 172 c 128,-1,16
 382 190 382 190 388.5 198.5 c 128,-1,17
 395 207 395 207 420 221 c 128,-1,18
 445 235 445 235 480 259 c 128,-1,19
 515 283 515 283 572 312 c 0,20,21
 606 331 606 331 606 335 c 0,22,23
 606 342 606 342 568 358 c 0,24,25
 421 421 421 421 384 430 c 0,26,27
 373 432 373 432 369.5 439 c 128,-1,28
 366 446 366 446 366 467 c 0,29,30
 366 502 366 502 372 506 c 1,31,32
 375 514 375 514 393 507.5 c 128,-1,33
 411 501 411 501 491 460 c 0,0,1
155 460 m 0,34,35
 205 435 205 435 241.5 420 c 128,-1,36
 278 405 278 405 312 384 c 0,37,38
 351 359 351 359 350 340 c 128,-1,39
 349 321 349 321 308 294 c 0,40,41
 290 282 290 282 257.5 254.5 c 128,-1,42
 225 227 225 227 198 214 c 0,43,44
 190 210 190 210 161 191 c 128,-1,45
 132 172 132 172 105.5 158 c 128,-1,46
 79 144 79 144 64 144 c 0,47,48
 52 144 52 144 49 149 c 128,-1,49
 46 154 46 154 46 172 c 128,-1,50
 46 190 46 190 52.5 198.5 c 128,-1,51
 59 207 59 207 84 221 c 128,-1,52
 109 235 109 235 144 259 c 128,-1,53
 179 283 179 283 236 312 c 0,54,55
 270 331 270 331 270 335 c 0,56,57
 270 342 270 342 232 358 c 0,58,59
 85 421 85 421 48 430 c 0,60,61
 37 432 37 432 33.5 439 c 128,-1,62
 30 446 30 446 30 467 c 0,63,64
 30 502 30 502 36 506 c 1,65,66
 39 514 39 514 57 507.5 c 128,-1,67
 75 501 75 501 155 460 c 0,34,35
EndSplineSet
EndChar

StartChar: onequarter
Encoding: 188 188 105
Width: 535
Flags: W
LayerCount: 2
Fore
SplineSet
402 208 m 0,0,1
 402 240 402 240 395 240 c 0,2,3
 389 240 389 240 363.5 214 c 128,-1,4
 338 188 338 188 338 182 c 128,-1,5
 338 176 338 176 370 176 c 0,6,7
 394 176 394 176 398 180 c 128,-1,8
 402 184 402 184 402 208 c 0,0,1
446 260 m 2,9,-1
 446 188 l 1,10,-1
 474 184 l 2,11,12
 492 182 492 182 497 176.5 c 128,-1,13
 502 171 502 171 504 154 c 0,14,15
 506 134 506 134 502.5 131 c 128,-1,16
 499 128 499 128 479 128 c 0,17,18
 458 128 458 128 454 124 c 128,-1,19
 450 120 450 120 450 99 c 0,20,21
 450 80 450 80 446.5 76 c 128,-1,22
 443 72 443 72 428 74 c 0,23,24
 414 76 414 76 409 81 c 128,-1,25
 404 86 404 86 403 102 c 2,26,-1
 401 128 l 1,27,-1
 351 128 l 2,28,29
 257 130 257 130 249 141 c 0,30,31
 242 151 242 151 280 190 c 0,32,33
 281 191 281 191 283 193 c 0,34,35
 329 241 329 241 369 286 c 0,36,37
 413 337 413 337 429 334 c 0,38,39
 440 332 440 332 443 320.5 c 128,-1,40
 446 309 446 309 446 260 c 2,9,-1
399 520 m 0,41,42
 420 520 420 520 409 494 c 0,43,44
 393 459 393 459 270 296 c 0,45,46
 121 96 121 96 109 96 c 0,47,48
 88 96 88 96 99 122 c 0,49,50
 115 157 115 157 238 320 c 0,51,52
 387 520 387 520 399 520 c 0,41,42
154 268 m 0,53,54
 154 261 154 261 142.5 258.5 c 128,-1,55
 131 256 131 256 95 256 c 0,56,57
 31 256 31 256 30 268 c 0,58,59
 30 274 30 274 46 285 c 0,60,61
 60 295 60 295 63 307.5 c 128,-1,62
 66 320 66 320 66 373 c 0,63,64
 66 448 66 448 55 448 c 0,65,66
 27 448 27 448 51 483 c 0,67,68
 55 488 55 488 60 495 c 0,69,70
 90 536 90 536 100 524 c 256,71,72
 110 512 110 512 112 411 c 0,73,74
 113 329 113 329 116.5 313 c 128,-1,75
 120 297 120 297 134 290 c 0,76,77
 154 281 154 281 154 268 c 0,53,54
EndSplineSet
EndChar

StartChar: onehalf
Encoding: 189 189 106
Width: 543
Flags: W
LayerCount: 2
Fore
SplineSet
419 368 m 0,0,1
 464 368 464 368 477 353 c 128,-1,2
 490 338 490 338 490 286 c 0,3,4
 490 256 490 256 487 240 c 128,-1,5
 484 224 484 224 480 218.5 c 128,-1,6
 476 213 476 213 463 199.5 c 128,-1,7
 450 186 450 186 439 172 c 2,8,-1
 403 132 l 1,9,10
 422 130 422 130 447 130.5 c 128,-1,11
 472 131 472 131 482 140 c 0,12,13
 512 168 512 168 512 112 c 2,14,-1
 512 80 l 1,15,16
 507 80 507 80 446.5 79.5 c 128,-1,17
 386 79 386 79 349 81 c 128,-1,18
 312 83 312 83 314 90 c 0,19,20
 314 117 314 117 378 178 c 0,21,22
 418 216 418 216 429.5 253.5 c 128,-1,23
 441 291 441 291 418 304 c 0,24,25
 398 315 398 315 384 304 c 128,-1,26
 370 293 370 293 374 271 c 0,27,28
 378 254 378 254 374.5 251 c 128,-1,29
 371 248 371 248 350 248 c 0,30,31
 326 248 326 248 317.5 259.5 c 128,-1,32
 309 271 309 271 317 291.5 c 128,-1,33
 325 312 325 312 348 338 c 0,34,35
 368 358 368 358 379 363 c 128,-1,36
 390 368 390 368 419 368 c 0,0,1
117 96 m 0,37,38
 97 96 97 96 107 121 c 0,39,40
 120 156 120 156 235 329 c 0,41,42
 284 403 284 403 315 447.5 c 128,-1,43
 346 492 346 492 363 513.5 c 128,-1,44
 380 535 380 535 385 534 c 0,45,46
 399 530 399 530 397 516 c 0,47,48
 396 499 396 499 262 297.5 c 128,-1,49
 128 96 128 96 117 96 c 0,37,38
154 284 m 0,50,51
 154 277 154 277 142.5 274.5 c 128,-1,52
 131 272 131 272 95 272 c 0,53,54
 31 272 31 272 30 284 c 0,55,56
 30 290 30 290 46 301 c 0,57,58
 60 311 60 311 63 323.5 c 128,-1,59
 66 336 66 336 66 389 c 0,60,61
 66 464 66 464 55 464 c 0,62,63
 27 464 27 464 51 499 c 0,64,65
 55 504 55 504 60 511 c 0,66,67
 90 552 90 552 100 540 c 256,68,69
 110 528 110 528 112 427 c 0,70,71
 113 345 113 345 116.5 329 c 128,-1,72
 120 313 120 313 134 306 c 0,73,74
 154 297 154 297 154 284 c 0,50,51
EndSplineSet
EndChar

StartChar: questiondown
Encoding: 191 191 107
Width: 298
Flags: W
LayerCount: 2
Fore
SplineSet
30 27 m 0,0,1
 30 46 30 46 47.5 95 c 128,-1,2
 65 144 65 144 78 160 c 0,3,4
 88 173 88 173 100.5 200.5 c 128,-1,5
 113 228 113 228 113 236 c 0,6,7
 114 241 114 241 99 263 c 128,-1,8
 84 285 84 285 87 291 c 0,9,10
 97 297 97 297 156 294 c 0,11,12
 184 293 184 293 199 291 c 128,-1,13
 214 289 214 289 220 283.5 c 128,-1,14
 226 278 226 278 223 270.5 c 128,-1,15
 220 263 220 263 208 250 c 0,16,17
 175 212 175 212 141.5 149 c 128,-1,18
 108 86 108 86 101 46 c 0,19,20
 98 27 98 27 100.5 20 c 128,-1,21
 103 13 103 13 118 1 c 0,22,23
 140 -17 140 -17 168.5 -15 c 128,-1,24
 197 -13 197 -13 207 8 c 0,25,26
 214 22 214 22 212 27.5 c 128,-1,27
 210 33 210 33 196 46 c 0,28,29
 177 65 177 65 184 77 c 0,30,31
 191 88 191 88 223.5 104 c 128,-1,32
 256 120 256 120 260 113 c 0,33,34
 263 108 263 108 267 38 c 0,35,36
 269 -10 269 -10 266 -23 c 128,-1,37
 263 -36 263 -36 250 -47 c 0,38,39
 215 -77 215 -77 153 -69 c 0,40,41
 30 -52 30 -52 30 27 c 0,0,1
127 394 m 0,42,43
 147 414 147 414 157 415 c 128,-1,44
 167 416 167 416 184 397 c 0,45,46
 203 378 203 378 200 347 c 0,47,48
 199 325 199 325 194 320.5 c 128,-1,49
 189 316 189 316 167 314 c 0,50,51
 123 310 123 310 110 336.5 c 128,-1,52
 97 363 97 363 127 394 c 0,42,43
EndSplineSet
EndChar

StartChar: Agrave
Encoding: 192 192 108
Width: 462
Flags: W
LayerCount: 2
Fore
SplineSet
238 408 m 0,0,1
 228 408 228 408 214.5 381 c 128,-1,2
 201 354 201 354 201 334 c 0,3,4
 202 311 202 311 185 272 c 1,5,-1
 283 272 l 1,6,7
 266 345 266 345 261 366 c 0,8,9
 250 408 250 408 238 408 c 0,0,1
354 283 m 0,10,11
 372 247 372 247 379 224.5 c 128,-1,12
 386 202 386 202 405 163 c 0,13,14
 429 112 429 112 431 96.5 c 128,-1,15
 433 81 433 81 417 76 c 0,16,17
 398 70 398 70 385.5 82.5 c 128,-1,18
 373 95 373 95 348 144 c 2,19,-1
 317 203 l 1,20,-1
 181 209 l 1,21,22
 137 134 137 134 122 98 c 0,23,24
 115 80 115 80 108 76 c 128,-1,25
 101 72 101 72 78 72 c 0,26,27
 40 72 40 72 32.5 80 c 128,-1,28
 25 88 25 88 43 110 c 0,29,30
 72 145 72 145 150 372 c 0,31,32
 187 479 187 479 216 514 c 0,33,34
 227 526 227 526 231.5 527 c 128,-1,35
 236 528 236 528 247 522 c 0,36,37
 255 517 255 517 280 464.5 c 128,-1,38
 305 412 305 412 318 370 c 0,39,40
 327 340 327 340 354 283 c 0,10,11
223 648 m 0,41,42
 227 649 227 649 238 634.5 c 128,-1,43
 249 620 249 620 259.5 606 c 128,-1,44
 270 592 270 592 274 592 c 0,45,46
 281 592 281 592 281 568 c 0,47,48
 281 550 281 550 271 544.5 c 128,-1,49
 261 539 261 539 253 552 c 0,50,51
 250 560 250 560 237 560 c 0,52,53
 225 560 225 560 190 585 c 128,-1,54
 155 610 155 610 150 621 c 0,55,56
 138 653 138 653 154 673 c 0,57,58
 170 694 170 694 194 667 c 0,59,60
 211 648 211 648 223 648 c 0,41,42
EndSplineSet
EndChar

StartChar: Aacute
Encoding: 193 193 109
Width: 514
Flags: W
LayerCount: 2
Fore
SplineSet
283 395 m 0,0,1
 274 417 274 417 262 422.5 c 128,-1,2
 250 428 250 428 240 414 c 0,3,4
 233 404 233 404 211 345.5 c 128,-1,5
 189 287 189 287 191 284 c 0,6,7
 196 279 196 279 249 278.5 c 128,-1,8
 302 278 302 278 307 282 c 0,9,10
 310 286 310 286 299 319.5 c 128,-1,11
 288 353 288 353 292 358 c 0,12,13
 295 364 295 364 283 395 c 0,0,1
158 383 m 0,14,15
 163 406 163 406 200 464.5 c 128,-1,16
 237 523 237 523 264 536 c 1,17,18
 274 536 274 536 298.5 490.5 c 128,-1,19
 323 445 323 445 336 404 c 0,20,21
 358 331 358 331 432 199 c 0,22,23
 440 184 440 184 452 154.5 c 128,-1,24
 464 125 464 125 476 110 c 0,25,26
 488 94 488 94 480.5 87 c 128,-1,27
 473 80 473 80 444 80 c 0,28,29
 419 80 419 80 413.5 84 c 128,-1,30
 408 88 408 88 400 114 c 0,31,32
 387 154 387 154 349 228 c 1,33,-1
 257 228 l 2,34,35
 166 228 166 228 157 215 c 128,-1,36
 148 202 148 202 137 161.5 c 128,-1,37
 126 121 126 121 126 102 c 0,38,39
 126 86 126 86 120 83 c 128,-1,40
 114 80 114 80 78 80 c 0,41,42
 30 80 30 80 30 92 c 128,-1,43
 30 104 30 104 41 110 c 0,44,45
 49 115 49 115 71.5 157.5 c 128,-1,46
 94 200 94 200 94 210 c 0,47,48
 98 222 98 222 111 257 c 128,-1,49
 124 292 124 292 130 314 c 0,50,51
 142 358 142 358 151 365 c 0,52,53
 158 368 158 368 158 383 c 0,14,15
230 570 m 0,54,55
 230 581 230 581 264.5 619.5 c 128,-1,56
 299 658 299 658 318 668 c 0,57,58
 336 678 336 678 344 676.5 c 128,-1,59
 352 675 352 675 360 662 c 0,60,61
 371 645 371 645 359.5 623.5 c 128,-1,62
 348 602 348 602 320 584 c 0,63,64
 301 572 301 572 279.5 565 c 128,-1,65
 258 558 258 558 244 559.5 c 128,-1,66
 230 561 230 561 230 570 c 0,54,55
EndSplineSet
EndChar

StartChar: Acircumflex
Encoding: 194 194 110
Width: 467
Flags: W
LayerCount: 2
Fore
SplineSet
233 464 m 0,0,1
 221 464 221 464 187 377 c 128,-1,2
 153 290 153 290 161 281 c 0,3,4
 172 274 172 274 233 277.5 c 128,-1,5
 294 281 294 281 317 289 c 1,6,7
 312 303 312 303 300 334 c 128,-1,8
 288 365 288 365 278 389.5 c 128,-1,9
 268 414 268 414 260 430 c 0,10,11
 241 464 241 464 233 464 c 0,0,1
437 118 m 0,12,13
 437 96 437 96 433 92 c 128,-1,14
 429 88 429 88 405 88 c 2,15,-1
 373 88 l 1,16,17
 375 132 375 132 367 160.5 c 128,-1,18
 359 189 359 189 334 211 c 0,19,20
 318 226 318 226 246 230 c 2,21,-1
 175 234 l 1,22,23
 106 169 106 169 106 108 c 0,24,25
 106 98 106 98 99 95 c 128,-1,26
 92 92 92 92 68 90 c 0,27,28
 34 88 34 88 30.5 97.5 c 128,-1,29
 27 107 27 107 44 158 c 0,30,31
 53 185 53 185 75 256 c 128,-1,32
 97 327 97 327 109.5 362 c 128,-1,33
 122 397 122 397 145.5 447.5 c 128,-1,34
 169 498 169 498 196 534 c 0,35,36
 218 564 218 564 260 567 c 0,37,38
 273 568 273 568 291 545.5 c 128,-1,39
 309 523 309 523 314 499 c 0,40,41
 319 474 319 474 324.5 459.5 c 128,-1,42
 330 445 330 445 340 421.5 c 128,-1,43
 350 398 350 398 361 364 c 0,44,45
 390 277 390 277 401 264 c 0,46,47
 409 254 409 254 413 241.5 c 128,-1,48
 417 229 417 229 420.5 210.5 c 128,-1,49
 424 192 424 192 428 180 c 0,50,51
 437 148 437 148 437 118 c 0,12,13
258 688 m 0,52,53
 276 688 276 688 320.5 636.5 c 128,-1,54
 365 585 365 585 365 563 c 0,55,56
 365 535 365 535 337 547 c 0,57,58
 323 552 323 552 307 567 c 0,59,60
 282 590 282 590 259 596 c 0,61,62
 245 599 245 599 236.5 595 c 128,-1,63
 228 591 228 591 212 573 c 0,64,65
 175 530 175 530 151 554 c 0,66,67
 139 567 139 567 145.5 581 c 128,-1,68
 152 595 152 595 190 636 c 0,69,70
 239 688 239 688 258 688 c 0,52,53
EndSplineSet
EndChar

StartChar: Atilde
Encoding: 195 195 111
Width: 500
Flags: W
LayerCount: 2
Fore
SplineSet
190 294 m 1,0,1
 194 290 194 290 219 289.5 c 128,-1,2
 244 289 244 289 280 290.5 c 128,-1,3
 316 292 316 292 322 292 c 1,4,5
 322 320 322 320 315 339 c 128,-1,6
 308 358 308 358 289 393 c 0,7,8
 259 449 259 449 246 435 c 0,9,10
 242 431 242 431 239 422 c 0,11,12
 238 418 238 418 225.5 388 c 128,-1,13
 213 358 213 358 202 329.5 c 128,-1,14
 191 301 191 301 190 294 c 1,0,1
318 451 m 0,15,16
 318 440 318 440 329.5 425 c 128,-1,17
 341 410 341 410 342 406 c 0,18,19
 350 380 350 380 384 306.5 c 128,-1,20
 418 233 418 233 431 198 c 0,21,22
 454 134 454 134 463 125 c 0,23,24
 470 116 470 116 470 98 c 0,25,26
 470 85 470 85 464 82.5 c 128,-1,27
 458 80 458 80 434 80 c 0,28,29
 398 80 398 80 398 93 c 0,30,31
 398 102 398 102 389.5 122 c 128,-1,32
 381 142 381 142 365.5 173 c 128,-1,33
 350 204 350 204 349 207 c 2,34,-1
 284 210 l 2,35,36
 204 213 204 213 178 206.5 c 128,-1,37
 152 200 152 200 140 174 c 0,38,39
 127 146 127 146 135 123 c 0,40,41
 145 95 145 95 135.5 87.5 c 128,-1,42
 126 80 126 80 82 80 c 0,43,44
 30 80 30 80 30 92 c 0,45,46
 30 106 30 106 76 202 c 0,47,48
 150 357 150 357 150 374 c 0,49,50
 150 392 150 392 163.5 413 c 128,-1,51
 177 434 177 434 184 454 c 0,52,53
 200 500 200 500 222 528 c 0,54,55
 234 545 234 545 239.5 547.5 c 128,-1,56
 245 550 245 550 257 542 c 0,57,58
 275 530 275 530 296.5 498 c 128,-1,59
 318 466 318 466 318 451 c 0,15,16
138 562 m 0,60,61
 120 562 120 562 115 565 c 128,-1,62
 110 568 110 568 110 580 c 0,63,64
 110 598 110 598 132 611 c 0,65,66
 191 643 191 643 200.5 645.5 c 128,-1,67
 210 648 210 648 236 637 c 0,68,69
 263 624 263 624 276 625.5 c 128,-1,70
 289 627 289 627 304 646 c 0,71,72
 316 660 316 660 334.5 662.5 c 128,-1,73
 353 665 353 665 364 654 c 0,74,75
 385 633 385 633 356 617 c 0,76,77
 350 614 350 614 311 588 c 0,78,79
 288 571 288 571 264.5 569 c 128,-1,80
 241 567 241 567 230 580 c 0,81,82
 220 592 220 592 211 591.5 c 128,-1,83
 202 591 202 591 185 577 c 0,84,85
 166 562 166 562 138 562 c 0,60,61
EndSplineSet
EndChar

StartChar: Adieresis
Encoding: 196 196 112
Width: 508
Flags: W
LayerCount: 2
Fore
SplineSet
246 381 m 0,0,1
 246 370 246 370 227 321 c 128,-1,2
 208 272 208 272 210 263 c 0,3,4
 214 255 214 255 249.5 256 c 128,-1,5
 285 257 285 257 296 266 c 0,6,7
 305 273 305 273 304.5 281.5 c 128,-1,8
 304 290 304 290 294 323 c 0,9,10
 287 347 287 347 276 367.5 c 128,-1,11
 265 388 265 388 261 402 c 0,12,13
 256 421 256 421 250 408 c 0,14,15
 246 399 246 399 246 381 c 0,0,1
478 90 m 0,16,17
 479 87 479 87 475 85 c 128,-1,18
 471 83 471 83 463.5 82 c 128,-1,19
 456 81 456 81 446 80.5 c 128,-1,20
 436 80 436 80 425.5 80 c 128,-1,21
 415 80 415 80 404.5 80 c 128,-1,22
 394 80 394 80 386 80 c 128,-1,23
 378 80 378 80 372 80 c 1,24,-1
 377 102 l 2,25,26
 382 125 382 125 359.5 168.5 c 128,-1,27
 337 212 337 212 321 209 c 0,28,29
 309 207 309 207 248.5 205 c 128,-1,30
 188 203 188 203 171 202 c 1,31,32
 148 138 148 138 148 102 c 0,33,34
 147 80 147 80 130 79 c 0,35,36
 110 78 110 78 71 80.5 c 128,-1,37
 32 83 32 83 30 85 c 0,38,39
 26 89 26 89 51 114 c 0,40,41
 77 140 77 140 97 184 c 0,42,43
 115 223 115 223 136.5 282 c 128,-1,44
 158 341 158 341 158 352 c 0,45,46
 158 365 158 365 167 386.5 c 128,-1,47
 176 408 176 408 189 432.5 c 128,-1,48
 202 457 202 457 205 464 c 0,49,50
 219 495 219 495 233 510 c 0,51,52
 246 526 246 526 253 527 c 128,-1,53
 260 528 260 528 276 514 c 0,54,55
 290 501 290 501 326.5 434 c 128,-1,56
 363 367 363 367 369 342 c 0,57,58
 380 295 380 295 443 168 c 0,59,60
 478 100 478 100 478 90 c 0,16,17
302 617 m 0,61,62
 318 634 318 634 336 630 c 0,63,64
 353 628 353 628 360.5 606.5 c 128,-1,65
 368 585 368 585 362 564.5 c 128,-1,66
 356 544 356 544 339 544 c 0,67,68
 308 545 308 545 295 571.5 c 128,-1,69
 282 598 282 598 302 617 c 0,61,62
166 588 m 0,70,71
 166 613 166 613 176 622.5 c 128,-1,72
 186 632 186 632 210 630 c 0,73,74
 226 629 226 629 230 623 c 128,-1,75
 234 617 234 617 236 594 c 0,76,77
 237 574 237 574 234.5 565.5 c 128,-1,78
 232 557 232 557 221 552 c 0,79,80
 201 541 201 541 183.5 552.5 c 128,-1,81
 166 564 166 564 166 588 c 0,70,71
EndSplineSet
EndChar

StartChar: Aring
Encoding: 197 197 113
Width: 548
Flags: W
LayerCount: 2
Fore
SplineSet
285 436 m 0,0,1
 285 423 285 423 268.5 371 c 128,-1,2
 252 319 252 319 243 302 c 0,3,4
 235 288 235 288 241 282 c 0,5,6
 246 277 246 277 293 277 c 128,-1,7
 340 277 340 277 345 282 c 128,-1,8
 350 287 350 287 325 362 c 0,9,10
 287 466 287 466 285 436 c 0,0,1
333 490 m 0,11,12
 338 463 338 463 363 409.5 c 128,-1,13
 388 356 388 356 397 330 c 0,14,15
 411 292 411 292 438 232 c 128,-1,16
 465 172 465 172 477 140 c 0,17,18
 494 97 494 97 505 93 c 0,19,20
 533 83 533 83 506 76 c 0,21,22
 490 72 490 72 457 72 c 0,23,24
 396 72 396 72 395 85 c 0,25,26
 395 92 395 92 405 102 c 256,27,28
 415 112 415 112 404.5 137 c 128,-1,29
 394 162 394 162 370 190 c 0,30,31
 353 209 353 209 341.5 212.5 c 128,-1,32
 330 216 330 216 281 216 c 0,33,34
 223 216 223 216 203.5 205 c 128,-1,35
 184 194 184 194 161 148 c 0,36,37
 143 109 143 109 151 94 c 0,38,39
 160 81 160 81 154 75 c 0,40,41
 149 70 149 70 92 70.5 c 128,-1,42
 35 71 35 71 30 76 c 1,43,44
 32 84 32 84 69.5 128 c 128,-1,45
 107 172 107 172 110 184 c 0,46,47
 184 349 184 349 230 456 c 0,48,49
 248 495 248 495 258 510 c 0,50,51
 267 526 267 526 284.5 525.5 c 128,-1,52
 302 525 302 525 318.5 512.5 c 128,-1,53
 335 500 335 500 333 490 c 0,11,12
328 646 m 0,54,55
 325 657 325 657 320.5 660.5 c 128,-1,56
 316 664 316 664 308.5 660.5 c 128,-1,57
 301 657 301 657 288 644 c 128,-1,58
 275 631 275 631 273 625 c 128,-1,59
 271 619 271 619 278 608 c 0,60,61
 297 580 297 580 321 589 c 0,62,63
 341 597 341 597 328 646 c 0,54,55
252 674 m 0,64,65
 274 695 274 695 285.5 699.5 c 128,-1,66
 297 704 297 704 323 702 c 128,-1,67
 349 700 349 700 357 695.5 c 128,-1,68
 365 691 365 691 374 672 c 0,69,70
 382 655 382 655 389 610 c 0,71,72
 394 576 394 576 361.5 558.5 c 128,-1,73
 329 541 329 541 289.5 545 c 128,-1,74
 250 549 250 549 235 569 c 0,75,76
 219 589 219 589 219 616 c 0,77,78
 218 632 218 632 224.5 643.5 c 128,-1,79
 231 655 231 655 252 674 c 0,64,65
EndSplineSet
EndChar

StartChar: AE
Encoding: 198 198 114
Width: 659
Flags: W
LayerCount: 2
Fore
SplineSet
322 464 m 1,0,1
 315 464 315 464 267 384.5 c 128,-1,2
 219 305 219 305 224 300 c 0,3,4
 239 296 239 296 314 308 c 1,5,-1
 322 464 l 1,0,1
326 72 m 1,6,7
 328 177 328 177 316 232 c 1,8,-1
 271 232 l 2,9,10
 241 232 241 232 229 228 c 128,-1,11
 217 224 217 224 204 210 c 0,12,13
 144 143 144 143 167 72 c 1,14,15
 37 72 37 72 30 78 c 0,16,17
 30 80 30 80 34 85.5 c 128,-1,18
 38 91 38 91 46.5 99.5 c 128,-1,19
 55 108 55 108 65 115 c 0,20,21
 96 138 96 138 157 262 c 128,-1,22
 218 386 218 386 226 416 c 0,23,24
 233 443 233 443 257.5 471 c 128,-1,25
 282 499 282 499 310 514 c 0,26,27
 378 551 378 551 526 559 c 0,28,29
 618 563 618 563 624 559 c 0,30,31
 632 554 632 554 628 495 c 0,32,33
 626 458 626 458 623.5 447 c 128,-1,34
 621 436 621 436 612 434 c 0,35,36
 602 432 602 432 582.5 450 c 128,-1,37
 563 468 563 468 556 468 c 0,38,39
 548 468 548 468 522 471 c 128,-1,40
 496 474 496 474 480 474.5 c 128,-1,41
 464 475 464 475 442 470 c 2,42,-1
 410 458 l 1,43,-1
 410 338 l 1,44,-1
 453 334 l 2,45,46
 499 331 499 331 512.5 335.5 c 128,-1,47
 526 340 526 340 528 359 c 0,48,49
 530 375 530 375 539 381 c 128,-1,50
 548 387 548 387 558 381 c 128,-1,51
 568 375 568 375 573 359 c 0,52,53
 590 311 590 311 574 269 c 0,54,55
 568 252 568 252 556 249 c 128,-1,56
 544 246 544 246 536 259 c 0,57,58
 531 269 531 269 513 271.5 c 128,-1,59
 495 274 495 274 443 273 c 2,60,-1
 396 273 l 1,61,62
 397 265 397 265 399 232 c 128,-1,63
 401 199 401 199 403 175.5 c 128,-1,64
 405 152 405 152 409 146 c 0,65,66
 417 139 417 139 484.5 142 c 128,-1,67
 552 145 552 145 568 153 c 0,68,69
 586 162 586 162 604 178 c 0,70,71
 613 185 613 185 616.5 187.5 c 128,-1,72
 620 190 620 190 622.5 188.5 c 128,-1,73
 625 187 625 187 627 181 c 0,74,75
 631 165 631 165 609 76 c 1,76,-1
 326 72 l 1,6,7
EndSplineSet
EndChar

StartChar: Eacute
Encoding: 201 201 115
Width: 440
Flags: W
LayerCount: 2
Fore
SplineSet
309 480 m 128,-1,1
 297 480 297 480 279 489 c 0,2,3
 263 498 263 498 198 489 c 0,4,5
 132 480 132 480 116 463 c 128,-1,6
 100 446 100 446 104 388 c 2,7,-1
 108 332 l 1,8,-1
 160 330 l 2,9,10
 211 328 211 328 230 333 c 128,-1,11
 249 338 249 338 256 357 c 0,12,13
 264 377 264 377 283 374 c 0,14,15
 295 373 295 373 297.5 364 c 128,-1,16
 300 355 300 355 300 312 c 0,17,18
 300 274 300 274 297.5 262.5 c 128,-1,19
 295 251 295 251 286 250 c 0,20,21
 272 246 272 246 258 258 c 0,22,23
 248 266 248 266 208 271 c 128,-1,24
 168 276 168 276 128 274 c 0,25,26
 115 273 115 273 111.5 267.5 c 128,-1,27
 108 262 108 262 107 242 c 0,28,29
 107 214 107 214 101 186 c 0,30,31
 94 161 94 161 111.5 151.5 c 128,-1,32
 129 142 129 142 191 138 c 0,33,34
 234 135 234 135 251.5 137.5 c 128,-1,35
 269 140 269 140 298 156 c 0,36,37
 343 179 343 179 353 194 c 0,38,39
 366 211 366 211 379 206 c 128,-1,40
 392 201 392 201 392 136 c 2,41,-1
 392 72 l 1,42,-1
 31 72 l 1,43,44
 31 82 31 82 33.5 133 c 128,-1,45
 36 184 36 184 37 219 c 128,-1,46
 38 254 38 254 37.5 292 c 128,-1,47
 37 330 37 330 34 342 c 0,48,49
 28 364 28 364 31 418 c 0,50,51
 33 465 33 465 38 478 c 128,-1,52
 43 491 43 491 66 513 c 0,53,54
 99 544 99 544 123 551 c 0,55,56
 151 559 151 559 274 559 c 0,57,58
 283 559 283 559 300 559 c 0,59,60
 381 560 381 560 394 552 c 256,61,62
 407 544 407 544 409 508 c 0,63,64
 409 504 409 504 409 497 c 0,65,66
 410 486 410 486 410 480 c 0,67,68
 412 432 412 432 400 426 c 128,-1,69
 388 420 388 420 354 451 c 0,70,0
 321 480 321 480 309 480 c 128,-1,1
EndSplineSet
EndChar

StartChar: Ntilde
Encoding: 209 209 116
Width: 509
Flags: W
LayerCount: 2
Fore
SplineSet
411 524 m 0,0,1
 451 524 451 524 459 521 c 128,-1,2
 467 518 467 518 465 504 c 0,3,4
 460 437 460 437 462 272 c 128,-1,5
 464 107 464 107 469 102 c 0,6,7
 490 74 490 74 434 72 c 0,8,9
 403 72 403 72 396.5 75 c 128,-1,10
 390 78 390 78 390 91 c 0,11,12
 390 114 390 114 357 154 c 0,13,14
 342 173 342 173 314.5 207.5 c 128,-1,15
 287 242 287 242 274 258.5 c 128,-1,16
 261 275 261 275 240.5 300.5 c 128,-1,17
 220 326 220 326 208 339 c 128,-1,18
 196 352 196 352 182 367.5 c 128,-1,19
 168 383 168 383 157.5 392 c 128,-1,20
 147 401 147 401 138 406 c 1,21,-1
 140 333 l 2,22,23
 145 127 145 127 162 118 c 0,24,25
 174 110 174 110 174 92 c 0,26,27
 174 77 174 77 165 74.5 c 128,-1,28
 156 72 156 72 102 72 c 0,29,30
 31 72 31 72 30 83 c 0,31,32
 30 87 30 87 39 93 c 0,33,34
 47 96 47 96 62 130 c 0,35,36
 76 163 76 163 77 298 c 0,37,38
 79 437 79 437 70 479 c 0,39,40
 62 523 62 523 65 527 c 0,41,42
 70 532 70 532 115 529 c 0,43,44
 159 527 159 527 183 511 c 128,-1,45
 207 495 207 495 235 450 c 0,46,47
 276 386 276 386 325 321 c 0,48,49
 364 269 364 269 373 275 c 0,50,51
 385 282 385 282 380 386 c 0,52,53
 375 480 375 480 362 493 c 0,54,55
 339 517 339 517 372 522 c 0,56,57
 386 524 386 524 411 524 c 0,0,1
329 626 m 0,58,59
 346 649 346 649 354 646 c 0,60,61
 365 642 365 642 364 628 c 128,-1,62
 363 614 363 614 350 598 c 0,63,64
 333 577 333 577 300 575.5 c 128,-1,65
 267 574 267 574 243 593 c 2,66,-1
 221 610 l 1,67,-1
 199 589 l 2,68,69
 168 560 168 560 159.5 571 c 128,-1,70
 151 582 151 582 179 615 c 0,71,72
 216 660 216 660 270 628 c 0,73,74
 301 610 301 610 308.5 610 c 128,-1,75
 316 610 316 610 329 626 c 0,58,59
EndSplineSet
EndChar

StartChar: Odieresis
Encoding: 214 214 117
Width: 466
Flags: W
LayerCount: 2
Fore
SplineSet
137 177 m 0,0,1
 137 164 137 164 175 155 c 128,-1,2
 213 146 213 146 249 150 c 0,3,4
 284 154 284 154 296 160.5 c 128,-1,5
 308 167 308 167 333 194 c 0,6,7
 369 233 369 233 374 261 c 0,8,9
 384 314 384 314 362.5 380.5 c 128,-1,10
 341 447 341 447 307 466 c 0,11,12
 274 485 274 485 229 478 c 128,-1,13
 184 471 184 471 150 441 c 0,14,15
 135 428 135 428 116 397 c 0,16,17
 103 375 103 375 100 358 c 128,-1,18
 97 341 97 341 99 293 c 0,19,20
 100 246 100 246 104 230 c 128,-1,21
 108 214 108 214 120 202 c 0,22,23
 137 185 137 185 137 177 c 0,0,1
144 538 m 0,24,25
 193 555 193 555 260.5 545 c 128,-1,26
 328 535 328 535 368 504 c 0,27,28
 419 463 419 463 432.5 360 c 128,-1,29
 446 257 446 257 410 180 c 0,30,31
 382 119 382 119 323.5 92 c 128,-1,32
 265 65 265 65 189 78 c 0,33,34
 101 93 101 93 56 158 c 0,35,36
 37 185 37 185 33.5 202 c 128,-1,37
 30 219 30 219 30 280 c 0,38,39
 30 334 30 334 34 360.5 c 128,-1,40
 38 387 38 387 52 428 c 0,41,42
 72 484 72 484 89 504.5 c 128,-1,43
 106 525 106 525 144 538 c 0,24,25
284 648 m 0,44,45
 304 655 304 655 312 653.5 c 128,-1,46
 320 652 320 652 335 638 c 0,47,48
 350 625 350 625 352.5 603 c 128,-1,49
 355 581 355 581 344 570 c 0,50,51
 334 560 334 560 310 560 c 0,52,53
 273 561 273 561 262.5 598 c 128,-1,54
 252 635 252 635 284 648 c 0,44,45
209 605 m 0,55,56
 209 588 209 588 198.5 579 c 128,-1,57
 188 570 188 570 162 564 c 0,58,59
 136 559 136 559 129 569 c 0,60,61
 121 582 121 582 122 610 c 128,-1,62
 123 638 123 638 131 646 c 0,63,64
 150 665 150 665 179.5 649.5 c 128,-1,65
 209 634 209 634 209 605 c 0,55,56
EndSplineSet
EndChar

StartChar: multiply
Encoding: 215 215 118
Width: 438
Flags: W
LayerCount: 2
Fore
SplineSet
408 389 m 0,0,1
 402 372 402 372 291 257 c 1,2,3
 370 155 370 155 390 140 c 0,4,5
 398 133 398 133 399.5 126.5 c 128,-1,6
 401 120 401 120 396 106 c 0,7,8
 387 81 387 81 367 80.5 c 128,-1,9
 347 80 347 80 328 103 c 0,10,11
 309 127 309 127 228 214 c 1,12,13
 104 98 104 98 80 89 c 1,14,15
 63 90 63 90 30 120 c 1,16,17
 111 208 111 208 146 234 c 0,18,19
 175 256 175 256 179 262 c 0,20,21
 183 270 183 270 128 331 c 0,22,23
 93 370 93 370 84 384 c 128,-1,24
 75 398 75 398 80 408 c 0,25,26
 87 422 87 422 98 426 c 0,27,28
 113 432 113 432 125.5 424 c 128,-1,29
 138 416 138 416 181 370 c 2,30,-1
 240 308 l 1,31,32
 307 372 307 372 323 390 c 0,33,34
 343 413 343 413 357 417.5 c 128,-1,35
 371 422 371 422 388 411 c 0,36,37
 408 398 408 398 408 389 c 0,0,1
EndSplineSet
EndChar

StartChar: Oslash
Encoding: 216 216 119
Width: 427
Flags: W
LayerCount: 2
Fore
SplineSet
323 286 m 0,0,1
 320 379 320 379 306 379 c 0,2,3
 300 379 300 379 292 370 c 0,4,5
 278 354 278 354 231.5 281 c 128,-1,6
 185 208 185 208 175 186 c 0,7,8
 164 163 164 163 171 153.5 c 128,-1,9
 178 144 178 144 209 143 c 0,10,11
 286 138 286 138 306.5 164.5 c 128,-1,12
 327 191 327 191 323 286 c 0,0,1
165 431 m 0,13,14
 165 424 165 424 150 424 c 0,15,16
 134 424 134 424 126.5 408.5 c 128,-1,17
 119 393 119 393 111 340 c 0,18,19
 104 294 104 294 106 256 c 128,-1,20
 108 218 108 218 118 211 c 0,21,22
 124 208 124 208 197 317 c 0,23,24
 248 394 248 394 256.5 411.5 c 128,-1,25
 265 429 265 429 256 437 c 0,26,27
 240 449 240 449 202.5 446.5 c 128,-1,28
 165 444 165 444 165 431 c 0,13,14
343 517 m 2,29,30
 363 545 363 545 370.5 549 c 128,-1,31
 378 553 378 553 388 542 c 0,32,33
 399 531 399 531 396 515.5 c 128,-1,34
 393 500 393 500 373 474 c 0,35,36
 356 450 356 450 355 443 c 128,-1,37
 354 436 354 436 365 422 c 0,38,39
 402 376 402 376 396 254 c 0,40,41
 394 207 394 207 389 187 c 128,-1,42
 384 167 384 167 369 141 c 0,43,44
 342 97 342 97 313 84 c 128,-1,45
 284 71 284 71 220 75 c 0,46,47
 152 79 152 79 133 88 c 0,48,49
 130 91 130 91 126 92 c 128,-1,50
 122 93 122 93 118.5 92 c 128,-1,51
 115 91 115 91 111.5 89 c 128,-1,52
 108 87 108 87 104 83.5 c 128,-1,53
 100 80 100 80 97 76.5 c 128,-1,54
 94 73 94 73 91 68.5 c 128,-1,55
 88 64 88 64 86 61 c 128,-1,56
 84 58 84 58 81.5 54.5 c 128,-1,57
 79 51 79 51 79 50 c 0,58,59
 73 40 73 40 50 35 c 0,60,61
 34 31 34 31 31.5 33.5 c 128,-1,62
 29 36 29 36 33 49 c 0,63,64
 38 66 38 66 59 102 c 0,65,66
 72 125 72 125 73 134 c 128,-1,67
 74 143 74 143 66 158 c 0,68,69
 39 207 39 207 33.5 229.5 c 128,-1,70
 28 252 28 252 32 302 c 0,71,72
 41 407 41 407 91 461 c 0,73,74
 125 498 125 498 184.5 508.5 c 128,-1,75
 244 519 244 519 288 497 c 2,76,-1
 317 482 l 1,77,-1
 343 517 l 2,29,30
EndSplineSet
EndChar

StartChar: Udieresis
Encoding: 220 220 120
Width: 484
Flags: W
LayerCount: 2
Fore
SplineSet
343 350 m 0,0,1
 343 426 343 426 340 443.5 c 128,-1,2
 337 461 337 461 322 479 c 0,3,4
 302 505 302 505 305 515 c 0,5,6
 309 525 309 525 343.5 529.5 c 128,-1,7
 378 534 378 534 415 529 c 0,8,9
 437 526 437 526 444 521.5 c 128,-1,10
 451 517 451 517 453 506 c 0,11,12
 457 488 457 488 448 488 c 0,13,14
 423 488 423 488 423 378 c 0,15,16
 423 305 423 305 416 226 c 0,17,18
 412 175 412 175 407 155.5 c 128,-1,19
 402 136 402 136 387 117 c 0,20,21
 364 87 364 87 315.5 74 c 128,-1,22
 267 61 267 61 210 70 c 0,23,24
 139 81 139 81 103 151 c 0,25,26
 91 174 91 174 88.5 197.5 c 128,-1,27
 86 221 86 221 86 308 c 2,28,-1
 86 430 l 2,29,30
 84 433 84 433 66 460.5 c 128,-1,31
 48 488 48 488 38 507 c 128,-1,32
 28 526 28 526 31 532 c 0,33,34
 38 540 38 540 94 542 c 0,35,36
 158 545 158 545 175.5 529 c 128,-1,37
 193 513 193 513 164 478 c 0,38,39
 151 462 151 462 149.5 442 c 128,-1,40
 148 422 148 422 152 334 c 0,41,42
 158 210 158 210 169 183 c 0,43,44
 189 139 189 139 236 130.5 c 128,-1,45
 283 122 283 122 309 158 c 0,46,47
 329 185 329 185 336 226 c 128,-1,48
 343 267 343 267 343 350 c 0,0,1
338 552 m 0,49,50
 313 552 313 552 300 566.5 c 128,-1,51
 287 581 287 581 290 599.5 c 128,-1,52
 293 618 293 618 308 630 c 0,53,54
 333 650 333 650 364 634.5 c 128,-1,55
 395 619 395 619 387 590 c 0,56,57
 379 567 379 567 369.5 559.5 c 128,-1,58
 360 552 360 552 338 552 c 0,49,50
184 552 m 0,59,60
 151 552 151 552 145.5 574.5 c 128,-1,61
 140 597 140 597 165 626 c 0,62,63
 181 640 181 640 197.5 636 c 128,-1,64
 214 632 214 632 223.5 611.5 c 128,-1,65
 233 591 233 591 224 571 c 0,66,67
 219 560 219 560 211 556 c 128,-1,68
 203 552 203 552 184 552 c 0,59,60
EndSplineSet
EndChar

StartChar: aacute
Encoding: 225 225 121
Width: 325
Flags: W
LayerCount: 2
Fore
SplineSet
191 294 m 0,0,1
 181 316 181 316 167.5 318 c 128,-1,2
 154 320 154 320 130 306 c 0,3,4
 87 279 87 279 97 217 c 0,5,6
 105 174 105 174 133.5 158.5 c 128,-1,7
 162 143 162 143 188 168 c 0,8,9
 203 183 203 183 204 224.5 c 128,-1,10
 205 266 205 266 191 294 c 0,0,1
281 136 m 0,11,12
 293 136 293 136 295 121 c 128,-1,13
 297 106 297 106 287 95 c 0,14,15
 274 80 274 80 253 81 c 128,-1,16
 232 82 232 82 219 98 c 0,17,18
 209 110 209 110 204 110.5 c 128,-1,19
 199 111 199 111 189 102 c 0,20,21
 173 88 173 88 137 88 c 0,22,23
 112 88 112 88 100.5 93 c 128,-1,24
 89 98 89 98 71 118 c 0,25,26
 45 147 45 147 35 190 c 128,-1,27
 25 233 25 233 35 272 c 0,28,29
 64 383 64 383 186 389 c 0,30,31
 228 391 228 391 234 395 c 0,32,33
 247 409 247 409 251 378 c 0,34,35
 254 353 254 353 253 287 c 0,36,37
 250 136 250 136 281 136 c 0,11,12
268 513 m 0,38,39
 268 494 268 494 259 484.5 c 128,-1,40
 250 475 250 475 212 455 c 0,41,42
 184 441 184 441 157 422 c 0,43,44
 139 408 139 408 115 408 c 128,-1,45
 91 408 91 408 86 421 c 0,46,47
 82 431 82 431 102 451 c 128,-1,48
 122 471 122 471 168 502 c 0,49,50
 194 519 194 519 210 538 c 0,51,52
 225 557 225 557 246.5 548 c 128,-1,53
 268 539 268 539 268 513 c 0,38,39
EndSplineSet
EndChar

StartChar: atilde
Encoding: 227 227 122
Width: 383
Flags: W
LayerCount: 2
Fore
SplineSet
243 233 m 0,0,1
 243 298 243 298 238 315 c 0,2,3
 228 341 228 341 197 319 c 0,4,5
 175 304 175 304 159 273 c 0,6,7
 140 236 140 236 138.5 198.5 c 128,-1,8
 137 161 137 161 154 152 c 0,9,10
 184 136 184 136 223 154 c 0,11,12
 237 161 237 161 240 172 c 128,-1,13
 243 183 243 183 243 233 c 0,0,1
335 128 m 0,14,15
 347 128 347 128 351.5 115 c 128,-1,16
 356 102 356 102 347 92 c 0,17,18
 339 82 339 82 309 80.5 c 128,-1,19
 279 79 279 79 269 89 c 0,20,21
 260 98 260 98 244 89 c 0,22,23
 228 81 228 81 183 80.5 c 128,-1,24
 138 80 138 80 122 88 c 0,25,26
 102 98 102 98 88.5 133.5 c 128,-1,27
 75 169 75 169 75 210 c 0,28,29
 75 302 75 302 115 346 c 0,30,31
 132 366 132 366 144 370 c 128,-1,32
 156 374 156 374 204 375 c 0,33,34
 271 377 271 377 279 385 c 0,35,36
 289 395 289 395 299.5 391.5 c 128,-1,37
 310 388 310 388 312 377.5 c 128,-1,38
 314 367 314 367 306 355 c 0,39,40
 296 345 296 345 292 280 c 0,41,42
 288 218 288 218 307 172 c 0,43,44
 325 128 325 128 335 128 c 0,14,15
323 456 m 0,45,46
 323 441 323 441 301 426 c 0,47,48
 280 412 280 412 229 413 c 128,-1,49
 178 414 178 414 163 428 c 0,50,51
 153 436 153 436 146.5 436 c 128,-1,52
 140 436 140 436 120 428 c 0,53,54
 95 418 95 418 65.5 416.5 c 128,-1,55
 36 415 36 415 31 424 c 0,56,57
 28 433 28 433 45 439 c 0,58,59
 66 447 66 447 103 471 c 0,60,61
 139 494 139 494 151.5 495 c 128,-1,62
 164 496 164 496 193 478 c 0,63,64
 224 459 224 459 249 465 c 0,65,66
 276 470 276 470 284 478 c 0,67,68
 294 488 294 488 308.5 479 c 128,-1,69
 323 470 323 470 323 456 c 0,45,46
EndSplineSet
EndChar

StartChar: ae
Encoding: 230 230 123
Width: 477
Flags: W
LayerCount: 2
Fore
SplineSet
152 308 m 0,0,1
 152 300 152 300 129 287 c 0,2,3
 110 277 110 277 95 248.5 c 128,-1,4
 80 220 80 220 80 194 c 0,5,6
 80 175 80 175 99.5 150.5 c 128,-1,7
 119 126 119 126 130 130 c 0,8,9
 145 135 145 135 158 171 c 128,-1,10
 171 207 171 207 171 244 c 0,11,12
 171 296 171 296 162 305 c 0,13,14
 152 315 152 315 152 308 c 0,0,1
328 280 m 0,15,16
 370 280 370 280 380 291 c 128,-1,17
 390 302 390 302 370 326 c 0,18,19
 358 340 358 340 338 346.5 c 128,-1,20
 318 353 318 353 307 346 c 0,21,22
 300 342 300 342 288 322 c 0,23,24
 278 303 278 303 288.5 291.5 c 128,-1,25
 299 280 299 280 328 280 c 0,15,16
224 344 m 0,26,27
 222 344 222 344 221 339.5 c 128,-1,28
 220 335 220 335 221 328 c 128,-1,29
 222 321 222 321 225 314 c 0,30,31
 232 296 232 296 223.5 229.5 c 128,-1,32
 215 163 215 163 220 146 c 2,33,-1
 226 116 l 1,34,35
 236 148 236 148 239 257 c 0,36,37
 241 323 241 323 243.5 339 c 128,-1,38
 246 355 246 355 258 366 c 0,39,40
 301 405 301 405 358.5 396.5 c 128,-1,41
 416 388 416 388 436 339 c 0,42,43
 449 307 449 307 446 292.5 c 128,-1,44
 443 278 443 278 418 254 c 0,45,46
 372 208 372 208 316 208 c 0,47,48
 299 208 299 208 293.5 204 c 128,-1,49
 288 200 288 200 285 187 c 0,50,51
 283 174 283 174 287 167.5 c 128,-1,52
 291 161 291 161 307 151 c 0,53,54
 332 136 332 136 348 137 c 128,-1,55
 364 138 364 138 390 156 c 0,56,57
 433 186 433 186 444 168 c 0,58,59
 459 146 459 146 404 106 c 0,60,61
 345 64 345 64 283 88 c 0,62,63
 260 96 260 96 248 84 c 0,64,65
 237 74 237 74 224 73 c 128,-1,66
 211 72 211 72 203 80 c 128,-1,67
 195 88 195 88 170 76 c 0,68,69
 147 64 147 64 101 73 c 0,70,71
 54 83 54 83 42.5 99.5 c 128,-1,72
 31 116 31 116 30 173 c 0,73,74
 29 224 29 224 38.5 257 c 128,-1,75
 48 290 48 290 76 330 c 0,76,77
 108 377 108 377 168 370 c 0,78,79
 186 368 186 368 194 371 c 128,-1,80
 202 374 202 374 210 387 c 0,81,82
 222 405 222 405 229.5 407 c 128,-1,83
 237 409 237 409 247 397 c 128,-1,84
 257 385 257 385 244 365 c 0,85,86
 229 344 229 344 224 344 c 0,26,27
EndSplineSet
EndChar

StartChar: igrave
Encoding: 236 236 124
Width: 229
Flags: W
LayerCount: 2
Fore
SplineSet
134 80 m 0,0,1
 70 80 70 80 70 87 c 0,2,3
 70 96 70 96 84 113 c 0,4,5
 93 125 93 125 96 144.5 c 128,-1,6
 99 164 99 164 99 216 c 2,7,-1
 99 300 l 1,8,9
 80 299 80 299 70.5 300 c 128,-1,10
 61 301 61 301 53 308 c 128,-1,11
 45 315 45 315 46 330 c 0,12,13
 46 342 46 342 84 351 c 0,14,15
 121 359 121 359 133 376 c 0,16,17
 146 395 146 395 166 391.5 c 128,-1,18
 186 388 186 388 184 368 c 0,19,20
 180 303 180 303 182 209 c 128,-1,21
 184 115 184 115 189 110 c 0,22,23
 211 88 211 88 179 82 c 0,24,25
 164 80 164 80 134 80 c 0,0,1
30 491 m 0,26,27
 30 512 30 512 33 520 c 128,-1,28
 36 528 36 528 48 528 c 0,29,30
 61 528 61 528 117.5 480.5 c 128,-1,31
 174 433 174 433 174 422 c 0,32,33
 171 416 171 416 154 417 c 128,-1,34
 137 418 137 418 110 426 c 128,-1,35
 83 434 83 434 65 445 c 0,36,37
 42 459 42 459 36 467 c 128,-1,38
 30 475 30 475 30 491 c 0,26,27
EndSplineSet
EndChar

StartChar: iacute
Encoding: 237 237 125
Width: 213
Flags: W
LayerCount: 2
Fore
SplineSet
118 80 m 0,0,1
 54 80 54 80 54 87 c 0,2,3
 54 96 54 96 68 113 c 0,4,5
 77 125 77 125 80 144.5 c 128,-1,6
 83 164 83 164 83 216 c 2,7,-1
 83 300 l 1,8,9
 64 299 64 299 54.5 300 c 128,-1,10
 45 301 45 301 37 308 c 128,-1,11
 29 315 29 315 30 330 c 0,12,13
 30 342 30 342 68 351 c 0,14,15
 105 359 105 359 117 376 c 0,16,17
 130 395 130 395 150 391.5 c 128,-1,18
 170 388 170 388 168 368 c 0,19,20
 164 303 164 303 166 209 c 128,-1,21
 168 115 168 115 173 110 c 0,22,23
 195 88 195 88 163 82 c 0,24,25
 148 80 148 80 118 80 c 0,0,1
182 496 m 0,26,27
 182 482 182 482 173.5 472.5 c 128,-1,28
 165 463 165 463 136 446 c 0,29,30
 61 401 61 401 39 415 c 0,31,32
 34 419 34 419 34 425 c 128,-1,33
 34 431 34 431 41.5 441 c 128,-1,34
 49 451 49 451 63 464.5 c 128,-1,35
 77 478 77 478 99 497 c 0,36,37
 139 530 139 530 145 533 c 128,-1,38
 151 536 151 536 167 528 c 0,39,40
 182 519 182 519 182 496 c 0,26,27
EndSplineSet
EndChar

StartChar: icircumflex
Encoding: 238 238 126
Width: 304
Flags: W
LayerCount: 2
Fore
SplineSet
162 72 m 0,0,1
 98 72 98 72 98 79 c 0,2,3
 98 88 98 88 112 105 c 0,4,5
 121 117 121 117 124 136.5 c 128,-1,6
 127 156 127 156 127 208 c 2,7,-1
 127 292 l 1,8,9
 108 291 108 291 98.5 292 c 128,-1,10
 89 293 89 293 81 300 c 128,-1,11
 73 307 73 307 74 322 c 0,12,13
 74 334 74 334 112 343 c 0,14,15
 149 351 149 351 161 368 c 0,16,17
 174 387 174 387 194 383.5 c 128,-1,18
 214 380 214 380 212 360 c 0,19,20
 208 295 208 295 210 201 c 128,-1,21
 212 107 212 107 217 102 c 0,22,23
 239 80 239 80 207 74 c 0,24,25
 192 72 192 72 162 72 c 0,0,1
274 416 m 0,26,27
 274 408 274 408 248 408 c 128,-1,28
 222 408 222 408 197 433 c 0,29,30
 174 455 174 455 159 453 c 128,-1,31
 144 451 144 451 115 423 c 0,32,33
 99 409 99 409 88.5 405 c 128,-1,34
 78 401 78 401 60 402 c 0,35,36
 30 406 30 406 30 414 c 0,37,38
 30 424 30 424 64 462 c 128,-1,39
 98 500 98 500 118 513 c 0,40,41
 140 527 140 527 157 527.5 c 128,-1,42
 174 528 174 528 196 514 c 0,43,44
 213 503 213 503 243.5 465 c 128,-1,45
 274 427 274 427 274 416 c 0,26,27
EndSplineSet
EndChar

StartChar: ntilde
Encoding: 241 241 127
Width: 363
Flags: W
LayerCount: 2
Fore
SplineSet
117 349 m 0,0,1
 117 338 117 338 119.5 338 c 128,-1,2
 122 338 122 338 135 350 c 0,3,4
 170 384 170 384 215 384 c 0,5,6
 246 384 246 384 258.5 364 c 128,-1,7
 271 344 271 344 277 282 c 0,8,9
 291 147 291 147 317 110 c 0,10,11
 337 82 337 82 331 73 c 128,-1,12
 325 64 325 64 282 64 c 2,13,-1
 232 64 l 1,14,-1
 234 142 l 2,15,16
 239 296 239 296 188 302 c 0,17,18
 160 306 160 306 149.5 284 c 128,-1,19
 139 262 139 262 140 198 c 0,20,21
 141 110 141 110 157 66 c 0,22,23
 157 64 157 64 109 64 c 128,-1,24
 61 64 61 64 61 75 c 0,25,26
 61 88 61 88 68 91 c 0,27,28
 75 95 75 95 81 137.5 c 128,-1,29
 87 180 87 180 85 212 c 0,30,31
 81 311 81 311 56 340 c 0,32,33
 37 363 37 363 45 374 c 0,34,35
 52 384 52 384 74.5 384 c 128,-1,36
 97 384 97 384 107 374 c 128,-1,37
 117 364 117 364 117 349 c 0,0,1
122 512 m 0,38,39
 148 512 148 512 221 477 c 1,40,41
 246 507 246 507 269 514 c 0,42,43
 285 520 285 520 293.5 518.5 c 128,-1,44
 302 517 302 517 309 508 c 0,45,46
 330 484 330 484 279 446 c 0,47,48
 254 427 254 427 230 425.5 c 128,-1,49
 206 424 206 424 169 441 c 0,50,51
 110 468 110 468 97 436 c 0,52,53
 93 426 93 426 66 424 c 128,-1,54
 39 422 39 422 33 432 c 0,55,56
 21 452 21 452 54.5 482 c 128,-1,57
 88 512 88 512 122 512 c 0,38,39
EndSplineSet
EndChar

StartChar: ograve
Encoding: 242 242 128
Width: 342
Flags: W
LayerCount: 2
Fore
SplineSet
238 279 m 128,-1,1
 238 294 238 294 220 310 c 0,2,3
 201 327 201 327 191 329.5 c 128,-1,4
 181 332 181 332 156 326 c 0,5,6
 122 317 122 317 111 299.5 c 128,-1,7
 100 282 100 282 101 239 c 0,8,9
 101 208 101 208 105.5 193.5 c 128,-1,10
 110 179 110 179 124 161 c 0,11,12
 139 142 139 142 150 137 c 128,-1,13
 161 132 161 132 187 130 c 0,14,15
 211 128 211 128 221 131 c 128,-1,16
 231 134 231 134 240 146 c 0,17,18
 251 161 251 161 253.5 207 c 128,-1,19
 256 253 256 253 246 260 c 0,20,0
 238 264 238 264 238 279 c 128,-1,1
94 380 m 0,21,22
 115 392 115 392 173 389 c 0,23,24
 215 388 215 388 227.5 383 c 128,-1,25
 240 378 240 378 259 358 c 0,26,27
 272 344 272 344 279 331 c 128,-1,28
 286 318 286 318 292.5 297.5 c 128,-1,29
 299 277 299 277 303 268 c 0,30,31
 315 242 315 242 312 174 c 0,32,33
 310 149 310 149 305 136.5 c 128,-1,34
 300 124 300 124 284 108 c 0,35,36
 204 26 204 26 110 84 c 0,37,38
 51 120 51 120 37 191 c 0,39,40
 8 332 8 332 94 380 c 0,21,22
77 464 m 0,41,42
 72 464 72 464 63 482.5 c 128,-1,43
 54 501 54 501 54 512 c 1,44,45
 66 542 66 542 94 543.5 c 128,-1,46
 122 545 122 545 154 514 c 0,47,48
 184 484 184 484 204 472 c 0,49,50
 226 459 226 459 232 406 c 1,51,52
 170 415 170 415 124 441 c 0,53,54
 85 464 85 464 77 464 c 0,41,42
EndSplineSet
EndChar

StartChar: oacute
Encoding: 243 243 129
Width: 336
Flags: W
LayerCount: 2
Fore
SplineSet
204 316 m 0,0,1
 192 317 192 317 171 324 c 0,2,3
 160 327 160 327 140 315 c 128,-1,4
 120 303 120 303 104 284 c 0,5,6
 90 267 90 267 92 215 c 0,7,8
 96 161 96 161 106 149 c 0,9,10
 116 136 116 136 150 136.5 c 128,-1,11
 184 137 184 137 211 150 c 0,12,13
 229 159 229 159 235 168 c 128,-1,14
 241 177 241 177 243 199 c 0,15,16
 247 235 247 235 236.5 274.5 c 128,-1,17
 226 314 226 314 204 316 c 0,0,1
151 385 m 0,18,19
 191 392 191 392 204.5 390 c 128,-1,20
 218 388 218 388 244 373 c 0,21,22
 265 362 265 362 274.5 350.5 c 128,-1,23
 284 339 284 339 292 315 c 0,24,25
 306 274 306 274 306 222.5 c 128,-1,26
 306 171 306 171 292 144 c 0,27,28
 274 107 274 107 221.5 89.5 c 128,-1,29
 169 72 169 72 117 82.5 c 128,-1,30
 65 93 65 93 48 128 c 0,31,32
 32 159 32 159 30 187 c 128,-1,33
 28 215 28 215 38 258 c 0,34,35
 52 320 52 320 77 348.5 c 128,-1,36
 102 377 102 377 151 385 c 0,18,19
166 495 m 0,37,38
 174 498 174 498 201.5 516 c 128,-1,39
 229 534 229 534 251 534 c 0,40,41
 264 534 264 534 267 528 c 128,-1,42
 270 522 270 522 272 500 c 0,43,44
 276 468 276 468 264 456 c 0,45,46
 250 439 250 439 179.5 424.5 c 128,-1,47
 109 410 109 410 96 423 c 0,48,49
 90 429 90 429 98.5 442.5 c 128,-1,50
 107 456 107 456 126 471 c 128,-1,51
 145 486 145 486 166 495 c 0,37,38
EndSplineSet
EndChar

StartChar: ocircumflex
Encoding: 244 244 130
Width: 343
Flags: W
LayerCount: 2
Fore
SplineSet
169 144 m 0,0,1
 196 144 196 144 222 157.5 c 128,-1,2
 248 171 248 171 252 187 c 0,3,4
 258 212 258 212 245 258 c 128,-1,5
 232 304 232 304 215 318 c 0,6,7
 195 333 195 333 168.5 330 c 128,-1,8
 142 327 142 327 120 307 c 0,9,10
 103 291 103 291 91 249 c 128,-1,11
 79 207 79 207 89 194 c 0,12,13
 100 178 100 178 127.5 161 c 128,-1,14
 155 144 155 144 169 144 c 0,0,1
33 234 m 0,15,16
 33 290 33 290 36 305.5 c 128,-1,17
 39 321 39 321 53 334 c 0,18,19
 109 384 109 384 179 382 c 0,20,21
 214 380 214 380 224.5 375.5 c 128,-1,22
 235 371 235 371 259 343 c 0,23,24
 363 222 363 222 267 113 c 0,25,26
 251 94 251 94 238.5 89.5 c 128,-1,27
 226 85 226 85 187 82 c 0,28,29
 148 80 148 80 132.5 82.5 c 128,-1,30
 117 85 117 85 95 98 c 0,31,32
 52 123 52 123 42.5 143.5 c 128,-1,33
 33 164 33 164 33 234 c 0,15,16
159 511 m 0,34,35
 174 531 174 531 184.5 536 c 128,-1,36
 195 541 195 541 204.5 533.5 c 128,-1,37
 214 526 214 526 227 503 c 0,38,39
 245 473 245 473 275 448 c 0,40,41
 331 402 331 402 279 402 c 0,42,43
 270 402 270 402 260.5 405.5 c 128,-1,44
 251 409 251 409 239 417 c 128,-1,45
 227 425 227 425 220 430.5 c 128,-1,46
 213 436 213 436 200.5 446 c 128,-1,47
 188 456 188 456 185 458 c 0,48,49
 136 416 136 416 109 402 c 0,50,51
 89 392 89 392 65.5 392.5 c 128,-1,52
 42 393 42 393 34 403 c 0,53,54
 28 410 28 410 32 416 c 128,-1,55
 36 422 36 422 55 434 c 0,56,57
 66 441 66 441 91 455.5 c 128,-1,58
 116 470 116 470 130 481 c 128,-1,59
 144 492 144 492 159 511 c 0,34,35
EndSplineSet
EndChar

StartChar: odieresis
Encoding: 246 246 131
Width: 370
Flags: W
LayerCount: 2
Fore
SplineSet
191 328 m 0,0,1
 162 328 162 328 151 323.5 c 128,-1,2
 140 319 140 319 123 302 c 0,3,4
 83 258 83 258 87.5 207 c 128,-1,5
 92 156 92 156 137 130 c 0,6,7
 193 98 193 98 244 129 c 0,8,9
 273 146 273 146 278.5 158.5 c 128,-1,10
 284 171 284 171 284 216 c 0,11,12
 284 250 284 250 280 264 c 128,-1,13
 276 278 276 278 259 298 c 0,14,15
 242 319 242 319 231.5 323.5 c 128,-1,16
 221 328 221 328 191 328 c 0,0,1
340 216 m 0,17,18
 340 171 340 171 329 143.5 c 128,-1,19
 318 116 318 116 289 90 c 0,20,21
 267 71 267 71 253 67.5 c 128,-1,22
 239 64 239 64 187 64 c 2,23,-1
 115 64 l 1,24,25
 62 125 62 125 51 142 c 0,26,27
 37 165 37 165 32 209 c 128,-1,28
 27 253 27 253 36 279 c 0,29,30
 44 303 44 303 72.5 336 c 128,-1,31
 101 369 101 369 120 376 c 0,32,33
 138 383 138 383 174.5 383 c 128,-1,34
 211 383 211 383 240 375 c 0,35,36
 283 363 283 363 311.5 318 c 128,-1,37
 340 273 340 273 340 216 c 0,17,18
225 473 m 0,38,39
 244 493 244 493 268 481.5 c 128,-1,40
 292 470 292 470 282 445 c 0,41,42
 278 432 278 432 254 432 c 128,-1,43
 230 432 230 432 220 444 c 128,-1,44
 210 456 210 456 225 473 c 0,38,39
130 488 m 0,45,46
 140 488 140 488 152 470 c 128,-1,47
 164 452 164 452 164 438 c 0,48,49
 164 429 164 429 158.5 426.5 c 128,-1,50
 153 424 153 424 135 426 c 0,51,52
 115 428 115 428 109.5 431.5 c 128,-1,53
 104 435 104 435 102 451 c 0,54,55
 98 486 98 486 130 488 c 0,45,46
EndSplineSet
EndChar

StartChar: oslash
Encoding: 248 248 132
Width: 319
Flags: W
LayerCount: 2
Fore
SplineSet
161 136 m 0,0,1
 198 136 198 136 223.5 174.5 c 128,-1,2
 249 213 249 213 250 269 c 0,3,4
 250 292 250 292 240 306 c 0,5,6
 232 315 232 315 228 312 c 128,-1,7
 224 309 224 309 211 286 c 0,8,9
 142 160 142 160 141 146 c 0,10,11
 140 138 140 138 149 136 c 0,12,13
 152 136 152 136 161 136 c 0,0,1
99 184 m 0,14,15
 104 184 104 184 144.5 265.5 c 128,-1,16
 185 347 185 347 188 362 c 0,17,18
 191 374 191 374 177 374 c 0,19,20
 150 375 150 375 122 351 c 0,21,22
 117 347 117 347 113 342 c 0,23,24
 88 311 88 311 81 285.5 c 128,-1,25
 74 260 74 260 82 226 c 0,26,27
 93 184 93 184 99 184 c 0,14,15
172 400 m 0,28,29
 198 400 198 400 207.5 405.5 c 128,-1,30
 217 411 217 411 233 435 c 0,31,32
 260 471 260 471 268 474 c 0,33,34
 291 482 291 482 289 462 c 0,35,36
 288 446 288 446 266 404 c 2,37,-1
 242 358 l 1,38,-1
 259 329 l 2,39,40
 273 306 273 306 276 264 c 128,-1,41
 279 222 279 222 269 185 c 0,42,43
 261 154 261 154 231 132.5 c 128,-1,44
 201 111 201 111 162 108 c 2,45,-1
 120 106 l 2,46,47
 118 103 118 103 110 86.5 c 128,-1,48
 102 70 102 70 96 60 c 128,-1,49
 90 50 90 50 81.5 36.5 c 128,-1,50
 73 23 73 23 65.5 16.5 c 128,-1,51
 58 10 58 10 52 10 c 0,52,53
 10 -1 10 -1 52 87 c 0,54,55
 57 97 57 97 66 115 c 0,56,57
 72 127 72 127 73 130 c 2,58,-1
 58 150 l 2,59,60
 42 170 42 170 41 235.5 c 128,-1,61
 40 301 40 301 55 333 c 0,62,63
 68 361 68 361 102 380.5 c 128,-1,64
 136 400 136 400 172 400 c 0,28,29
EndSplineSet
EndChar

StartChar: ugrave
Encoding: 249 249 133
Width: 307
Flags: W
LayerCount: 2
Fore
SplineSet
42 382 m 0,0,1
 64 398 64 398 74 386 c 128,-1,2
 84 374 84 374 84 340 c 0,3,4
 84 304 84 304 93.5 233.5 c 128,-1,5
 103 163 103 163 109 157 c 0,6,7
 126 140 126 140 167 198 c 0,8,9
 185 224 185 224 189.5 241 c 128,-1,10
 194 258 194 258 197 308 c 0,11,12
 201 376 201 376 206 376 c 0,13,14
 209 373 209 373 223 382 c 128,-1,15
 237 391 237 391 240 386 c 0,16,17
 245 383 245 383 245 271 c 0,18,19
 245 194 245 194 247.5 176 c 128,-1,20
 250 158 250 158 261 152 c 0,21,22
 277 144 277 144 277 128 c 128,-1,23
 277 112 277 112 260 112 c 128,-1,24
 243 112 243 112 232 125 c 128,-1,25
 221 138 221 138 220 158 c 0,26,27
 220 172 220 172 219 173 c 1,28,-1
 214 164 l 1,29,30
 194 118 194 118 125 114 c 2,31,-1
 79 110 l 1,32,33
 58 147 58 147 50.5 175 c 128,-1,34
 43 203 43 203 36 273 c 0,35,36
 30 341 30 341 31 357.5 c 128,-1,37
 32 374 32 374 42 382 c 0,0,1
32 540 m 0,38,39
 44 573 44 573 112 510 c 0,40,41
 165 460 165 460 157 450.5 c 128,-1,42
 149 441 149 441 85 478 c 0,43,44
 46 502 46 502 36 513 c 128,-1,45
 26 524 26 524 32 540 c 0,38,39
EndSplineSet
EndChar

StartChar: uacute
Encoding: 250 250 134
Width: 335
Flags: W
LayerCount: 2
Fore
SplineSet
226 294 m 0,0,1
 226 329 226 329 227.5 349.5 c 128,-1,2
 229 370 229 370 232.5 382.5 c 128,-1,3
 236 395 236 395 242.5 397 c 128,-1,4
 249 399 249 399 259 396 c 0,5,6
 270 392 270 392 270 262 c 0,7,8
 270 170 270 170 272.5 151 c 128,-1,9
 275 132 275 132 286 132 c 0,10,11
 300 132 300 132 304 118 c 0,12,13
 306 107 306 107 290 104 c 0,14,15
 263 98 263 98 243 115 c 0,16,17
 241 117 241 117 239 119 c 0,18,19
 229 130 229 130 223 130 c 128,-1,20
 217 130 217 130 197 118 c 0,21,22
 170 101 170 101 128 106 c 0,23,24
 80 111 80 111 71 130 c 128,-1,25
 62 149 62 149 64 237 c 0,26,27
 66 319 66 319 62.5 343.5 c 128,-1,28
 59 368 59 368 46 368 c 0,29,30
 36 368 36 368 32 372.5 c 128,-1,31
 28 377 28 377 31.5 382.5 c 128,-1,32
 35 388 35 388 44 392 c 0,33,34
 87 409 87 409 100 382 c 128,-1,35
 113 355 113 355 108 255 c 0,36,37
 104 167 104 167 112 152.5 c 128,-1,38
 120 138 120 138 167 152 c 0,39,40
 205 162 205 162 215.5 187.5 c 128,-1,41
 226 213 226 213 226 294 c 0,0,1
211 551 m 0,42,43
 249 568 249 568 265.5 551 c 128,-1,44
 282 534 282 534 256 506 c 0,45,46
 230 479 230 479 174 456.5 c 128,-1,47
 118 434 118 434 110 447 c 0,48,49
 105 455 105 455 148 499 c 128,-1,50
 191 543 191 543 211 551 c 0,42,43
EndSplineSet
EndChar

StartChar: ucircumflex
Encoding: 251 251 135
Width: 336
Flags: W
LayerCount: 2
Fore
SplineSet
118 261 m 0,0,1
 118 147 118 147 126 142 c 0,2,3
 135 135 135 135 157.5 136 c 128,-1,4
 180 137 180 137 197 145 c 0,5,6
 219 156 219 156 226.5 187.5 c 128,-1,7
 234 219 234 219 234 301 c 0,8,9
 234 403 234 403 247 407 c 0,10,11
 253 408 253 408 264 397 c 0,12,13
 277 384 277 384 276 268 c 0,14,15
 275 191 275 191 277.5 169 c 128,-1,16
 280 147 280 147 291 138 c 0,17,18
 306 125 306 125 306 114 c 0,19,20
 306 107 306 107 296.5 105 c 128,-1,21
 287 103 287 103 275 106 c 128,-1,22
 263 109 263 109 256 116 c 0,23,24
 248 124 248 124 241.5 124 c 128,-1,25
 235 124 235 124 220 116 c 0,26,27
 196 104 196 104 153 104 c 0,28,29
 125 104 125 104 113.5 107.5 c 128,-1,30
 102 111 102 111 89 125 c 0,31,32
 75 140 75 140 73 156.5 c 128,-1,33
 71 173 71 173 72 244 c 0,34,35
 74 327 74 327 70 351.5 c 128,-1,36
 66 376 66 376 50 376 c 128,-1,37
 34 376 34 376 30.5 384 c 128,-1,38
 27 392 27 392 40 399 c 0,39,40
 75 420 75 420 103 391 c 0,41,42
 113 380 113 380 115.5 359 c 128,-1,43
 118 338 118 338 118 261 c 0,0,1
76 458 m 0,44,45
 78 463 78 463 86 471 c 128,-1,46
 94 479 94 479 107 489.5 c 128,-1,47
 120 500 120 500 131 508.5 c 128,-1,48
 142 517 142 517 156 527.5 c 128,-1,49
 170 538 170 538 174 542 c 1,50,51
 245 467 245 467 250 450 c 1,52,53
 251 419 251 419 192 474 c 0,54,55
 178 486 178 486 173 493 c 1,56,-1
 142 470 l 2,57,58
 110 446 110 446 84 448 c 0,59,60
 72 449 72 449 76 458 c 0,44,45
EndSplineSet
EndChar

StartChar: ydieresis
Encoding: 255 255 136
Width: 286
Flags: W
LayerCount: 2
Fore
SplineSet
85 344 m 128,-1,1
 85 312 85 312 77 312 c 0,2,3
 67 312 67 312 75 302 c 0,4,5
 82 295 82 295 89 232.5 c 128,-1,6
 96 170 96 170 102 162 c 0,7,8
 120 138 120 138 151.5 131 c 128,-1,9
 183 124 183 124 200 142 c 0,10,11
 208 151 208 151 210.5 173.5 c 128,-1,12
 213 196 213 196 212 262 c 0,13,14
 211 329 211 329 213 351 c 128,-1,15
 215 373 215 373 224 382 c 0,16,17
 243 401 243 401 250 382 c 0,18,19
 258 355 258 355 256 182 c 0,20,21
 254 -15 254 -15 246 -33 c 0,22,23
 232 -72 232 -72 170 -89 c 128,-1,24
 108 -106 108 -106 65 -83 c 0,25,26
 44 -73 44 -73 40.5 -64.5 c 128,-1,27
 37 -56 37 -56 38 -18 c 0,28,29
 40 21 40 21 46 32 c 128,-1,30
 52 43 52 43 75 45 c 0,31,32
 92 47 92 47 97.5 39 c 128,-1,33
 103 31 103 31 93 20 c 0,34,35
 83 8 83 8 87 -22 c 0,36,37
 88 -44 88 -44 93.5 -48 c 128,-1,38
 99 -52 99 -52 128 -54 c 0,39,40
 166 -57 166 -57 189 -40 c 0,41,42
 206 -27 206 -27 209.5 -16.5 c 128,-1,43
 213 -6 213 -6 213 38 c 2,44,-1
 213 100 l 1,45,46
 207 100 207 100 191.5 99 c 128,-1,47
 176 98 176 98 166 97.5 c 128,-1,48
 156 97 156 97 144.5 97.5 c 128,-1,49
 133 98 133 98 127 101 c 0,50,51
 113 107 113 107 102 107 c 0,52,53
 87 109 87 109 64.5 141.5 c 128,-1,54
 42 174 42 174 41 198 c 0,55,56
 41 200 41 200 37.5 232.5 c 128,-1,57
 34 265 34 265 32.5 287 c 128,-1,58
 31 309 31 309 29.5 342.5 c 128,-1,59
 28 376 28 376 32 379 c 0,60,61
 37 400 37 400 70 384 c 0,62,0
 85 376 85 376 85 344 c 128,-1,1
173 482 m 128,-1,64
 173 492 173 492 184 502.5 c 128,-1,65
 195 513 195 513 205 512 c 0,66,67
 227 512 227 512 235.5 489 c 128,-1,68
 244 466 244 466 225 458 c 0,69,70
 213 453 213 453 193 462.5 c 128,-1,63
 173 472 173 472 173 482 c 128,-1,64
58 497 m 0,71,72
 84 526 84 526 104 495 c 0,73,74
 113 480 113 480 104.5 467.5 c 128,-1,75
 96 455 96 455 81 455 c 128,-1,76
 66 455 66 455 53 468 c 0,77,78
 43 480 43 480 58 497 c 0,71,72
EndSplineSet
EndChar

StartChar: florin
Encoding: 402 402 137
Width: 348
Flags: W
LayerCount: 2
Fore
SplineSet
249 536 m 0,0,1
 280 536 280 536 299 522.5 c 128,-1,2
 318 509 318 509 318 488 c 0,3,4
 318 459 318 459 283 484 c 0,5,6
 259 502 259 502 224.5 490.5 c 128,-1,7
 190 479 190 479 190 453 c 0,8,9
 190 452 190 452 184 429 c 0,10,11
 180 416 180 416 189 418 c 0,12,13
 192 418 192 418 195 419 c 0,14,15
 208 424 208 424 250 418 c 0,16,17
 289 413 289 413 292 397 c 0,18,19
 295 380 295 380 281.5 374 c 128,-1,20
 268 368 268 368 242 366 c 128,-1,21
 216 364 216 364 206 360 c 2,22,-1
 177 352 l 1,23,-1
 177 -35 l 1,24,-1
 154 -54 l 2,25,26
 110 -92 110 -92 59 -45 c 0,27,28
 13 -4 13 -4 37 11 c 0,29,30
 43 15 43 15 62 -4 c 0,31,32
 113 -57 113 -57 133 39 c 0,33,34
 139 69 139 69 143 115 c 0,35,36
 149 185 149 185 148 263 c 128,-1,37
 147 341 147 341 140 348 c 0,38,39
 134 354 134 354 98 358 c 0,40,41
 33 364 33 364 66 400 c 0,42,43
 81 416 81 416 114 416 c 0,44,45
 139 416 139 416 144 420 c 128,-1,46
 149 424 149 424 153 447 c 0,47,48
 158 480 158 480 185 507 c 0,49,50
 202 526 202 526 213.5 531 c 128,-1,51
 225 536 225 536 249 536 c 0,0,1
EndSplineSet
EndChar

StartChar: bullet
Encoding: 8226 8226 138
Width: 221
Flags: W
LayerCount: 2
Fore
SplineSet
141 400 m 0,0,1
 191 400 191 400 191 321 c 0,2,3
 191 290 191 290 187.5 279 c 128,-1,4
 184 268 184 268 170 257 c 0,5,6
 145 238 145 238 108 239.5 c 128,-1,7
 71 241 71 241 51 261 c 0,8,9
 30 287 30 287 30 319.5 c 128,-1,10
 30 352 30 352 52.5 379 c 128,-1,11
 75 406 75 406 107 404 c 2,12,-1
 121 402 l 2,13,14
 135 400 135 400 141 400 c 0,0,1
EndSplineSet
EndChar

StartChar: exclamdbl
Encoding: 8252 8252 139
Width: 356
Flags: W
LayerCount: 2
Fore
SplineSet
293 176 m 0,0,1
 305 176 305 176 316.5 155.5 c 128,-1,2
 328 135 328 135 326 118 c 0,3,4
 324 107 324 107 318.5 103.5 c 128,-1,5
 313 100 313 100 296 100 c 128,-1,6
 279 100 279 100 272.5 104 c 128,-1,7
 266 108 266 108 261 122 c 0,8,9
 256 135 256 135 257.5 142.5 c 128,-1,10
 259 150 259 150 268 160 c 0,11,12
 282 176 282 176 293 176 c 0,0,1
51 165 m 0,13,14
 56 176 56 176 77.5 176 c 128,-1,15
 99 176 99 176 110 166 c 0,16,17
 120 156 120 156 119.5 138.5 c 128,-1,18
 119 121 119 121 109 113 c 0,19,20
 98 102 98 102 74 106 c 0,21,22
 60 108 60 108 55 112.5 c 128,-1,23
 50 117 50 117 49 130 c 0,24,25
 46 150 46 150 51 165 c 0,13,14
34 534 m 0,26,27
 40 544 40 544 63.5 543.5 c 128,-1,28
 87 543 87 543 95 533 c 0,29,30
 109 516 109 516 116 403.5 c 128,-1,31
 123 291 123 291 113 244 c 0,32,33
 109 226 109 226 98.5 220 c 128,-1,34
 88 214 88 214 75 222 c 0,35,36
 58 233 58 233 39.5 373.5 c 128,-1,37
 21 514 21 514 34 534 c 0,26,27
247 543 m 0,38,39
 263 560 263 560 281 557.5 c 128,-1,40
 299 555 299 555 309 536 c 0,41,42
 325 501 325 501 320 359 c 128,-1,43
 315 217 315 217 298 210 c 0,44,45
 271 200 271 200 255 261 c 0,46,47
 240 316 240 316 235 425 c 0,48,49
 231 498 231 498 232.5 514 c 128,-1,50
 234 530 234 530 247 543 c 0,38,39
EndSplineSet
EndChar

StartChar: arrowleft
Encoding: 8592 8592 140
Width: 615
Flags: W
LayerCount: 2
Fore
SplineSet
585 265 m 0,0,1
 585 255 585 255 569.5 252 c 128,-1,2
 554 249 554 249 492 244 c 0,3,4
 384 236 384 236 248 239 c 0,5,6
 117 241 117 241 103 233 c 0,7,8
 90 226 90 226 118 197 c 0,9,10
 124 191 124 191 137 179 c 0,11,12
 177 139 177 139 177 134 c 0,13,14
 177 124 177 124 165 114 c 0,15,16
 156 105 156 105 149.5 108 c 128,-1,17
 143 111 143 111 123 132 c 0,18,19
 90 165 90 165 81 180 c 0,20,21
 41 238 41 238 34 253 c 128,-1,22
 27 268 27 268 33 283 c 0,23,24
 41 303 41 303 52 310 c 0,25,26
 62 315 62 315 102 362 c 0,27,28
 127 393 127 393 138 400.5 c 128,-1,29
 149 408 149 408 169 406 c 0,30,31
 197 404 197 404 199.5 390 c 128,-1,32
 202 376 202 376 177 354 c 0,33,34
 137 319 137 319 101 289 c 1,35,36
 202 290 202 290 374.5 288.5 c 128,-1,37
 547 287 547 287 578 284 c 1,38,39
 585 279 585 279 585 265 c 0,0,1
EndSplineSet
EndChar

StartChar: arrowup
Encoding: 8593 8593 141
Width: 360
Flags: W
LayerCount: 2
Fore
SplineSet
175 664 m 0,0,1
 178 664 178 664 224 632 c 0,2,3
 255 611 255 611 292.5 573 c 128,-1,4
 330 535 330 535 330 525 c 1,5,6
 295 510 295 510 252 548 c 0,7,8
 218 576 218 576 214 576 c 0,9,10
 212 571 212 571 212.5 567 c 128,-1,11
 213 563 213 563 215 546 c 0,12,13
 221 504 221 504 224.5 356.5 c 128,-1,14
 228 209 228 209 230 178 c 2,15,-1
 236 88 l 1,16,17
 193 86 193 86 181 94 c 1,18,19
 172 111 172 111 164 240.5 c 128,-1,20
 156 370 156 370 154 380 c 0,21,22
 144 437 144 437 156 580 c 1,23,-1
 117 542 l 2,24,25
 54 480 54 480 31 503 c 0,26,27
 22 512 22 512 98 588 c 128,-1,28
 174 664 174 664 175 664 c 0,0,1
EndSplineSet
EndChar

StartChar: arrowright
Encoding: 8594 8594 142
Width: 627
Flags: W
LayerCount: 2
Fore
SplineSet
597 265 m 0,0,1
 597 254 597 254 527 184 c 0,2,3
 421 82 421 82 392 105 c 0,4,5
 382 113 382 113 397.5 135.5 c 128,-1,6
 413 158 413 158 461 206 c 2,7,-1
 505 250 l 1,8,9
 248 236 248 236 121 236 c 0,10,11
 62 236 62 236 47 238 c 128,-1,12
 32 240 32 240 31 250 c 0,13,14
 28 267 28 267 35 275.5 c 128,-1,15
 42 284 42 284 79 291.5 c 128,-1,16
 116 299 116 299 176 302.5 c 128,-1,17
 236 306 236 306 357 311 c 0,18,19
 488 316 488 316 480 318 c 0,20,21
 470 320 470 320 454 350 c 0,22,23
 439 380 439 380 414 403 c 0,24,25
 378 440 378 440 407 437 c 0,26,27
 421 435 421 435 449 424 c 256,28,29
 477 413 477 413 573 305 c 0,30,31
 597 279 597 279 597 265 c 0,0,1
EndSplineSet
EndChar

StartChar: arrowdown
Encoding: 8595 8595 143
Width: 336
Flags: W
LayerCount: 2
Fore
SplineSet
149 642 m 1,0,1
 156 656 156 656 170 653.5 c 128,-1,2
 184 651 184 651 197 632 c 0,3,4
 211 612 211 612 213.5 549.5 c 128,-1,5
 216 487 216 487 209 332 c 2,6,-1
 203 180 l 1,7,-1
 233 214 l 2,8,9
 257 240 257 240 277.5 246 c 128,-1,10
 298 252 298 252 305 235 c 0,11,12
 311 227 311 227 256 168.5 c 128,-1,13
 201 110 201 110 202 104 c 0,14,15
 190 72 190 72 155 90 c 0,16,17
 134 101 134 101 80.5 159 c 128,-1,18
 27 217 27 217 30 226 c 0,19,20
 33 237 33 237 42.5 238 c 128,-1,21
 52 239 52 239 68 230.5 c 128,-1,22
 84 222 84 222 105 204 c 2,23,-1
 149 166 l 1,24,25
 141 597 141 597 149 642 c 1,0,1
EndSplineSet
EndChar

StartChar: arrowboth
Encoding: 8596 8596 144
Width: 588
Flags: W
LayerCount: 2
Fore
SplineSet
110 302 m 0,0,1
 134 298 134 298 463 298 c 1,2,-1
 446 324 l 2,3,4
 402 395 402 395 409 412 c 0,5,6
 413 425 413 425 422 422.5 c 128,-1,7
 431 420 431 420 456 400 c 0,8,9
 491 371 491 371 524.5 323.5 c 128,-1,10
 558 276 558 276 558 256 c 0,11,12
 558 235 558 235 547 225 c 128,-1,13
 536 215 536 215 470 172 c 0,14,15
 385 117 385 117 372 132 c 0,16,17
 366 139 366 139 371 163 c 0,18,19
 372 170 372 170 379 177.5 c 128,-1,20
 386 185 386 185 400 195 c 128,-1,21
 414 205 414 205 421.5 210 c 128,-1,22
 429 215 429 215 448 226 c 2,23,-1
 466 236 l 1,24,25
 441 236 441 236 357 238.5 c 128,-1,26
 273 241 273 241 206.5 242 c 128,-1,27
 140 243 140 243 124 242 c 0,28,29
 121 241 121 241 127.5 228 c 128,-1,30
 134 215 134 215 146.5 198.5 c 128,-1,31
 159 182 159 182 172 170 c 0,32,33
 184 158 184 158 188.5 146.5 c 128,-1,34
 193 135 193 135 188.5 127.5 c 128,-1,35
 184 120 184 120 171 120 c 0,36,37
 151 120 151 120 91 180 c 0,38,39
 51 219 51 219 40.5 234.5 c 128,-1,40
 30 250 30 250 30 270 c 0,41,42
 30 289 30 289 38 301 c 128,-1,43
 46 313 46 313 79 343 c 0,44,45
 126 387 126 387 161 406 c 0,46,47
 189 422 189 422 196.5 422.5 c 128,-1,48
 204 423 204 423 214 412 c 0,49,50
 236 384 236 384 154 332 c 0,51,52
 110 304 110 304 110 302 c 0,0,1
EndSplineSet
EndChar

StartChar: arrowupdn
Encoding: 8597 8597 145
Width: 373
Flags: W
LayerCount: 2
Fore
SplineSet
100 480 m 0,0,1
 102 478 102 478 142 503 c 2,2,-1
 182 528 l 2,3,4
 189 528 189 528 226 503.5 c 128,-1,5
 263 479 263 479 288 458 c 0,6,7
 346 407 346 407 316 394 c 0,8,9
 309 388 309 388 275 418 c 128,-1,10
 241 448 241 448 239 448 c 0,11,12
 234 438 234 438 231 332.5 c 128,-1,13
 228 227 228 227 227 220 c 0,14,15
 220 189 220 189 229 63 c 1,16,-1
 280 124 l 2,17,18
 343 199 343 199 343 167 c 0,19,20
 343 156 343 156 336 133 c 0,21,22
 320 78 320 78 234 6 c 0,23,24
 218 -7 218 -7 209.5 -9.5 c 128,-1,25
 201 -12 201 -12 191 -7 c 0,26,27
 174 1 174 1 127.5 45.5 c 128,-1,28
 81 90 81 90 81 98 c 0,29,30
 82 101 82 101 65.5 127.5 c 128,-1,31
 49 154 49 154 53 160 c 0,32,33
 58 168 58 168 69.5 167.5 c 128,-1,34
 81 167 81 167 87 158 c 0,35,36
 92 147 92 147 115 138 c 0,37,38
 143 125 143 125 167 70 c 1,39,40
 173 154 173 154 175 296 c 128,-1,41
 177 438 177 438 168 460 c 0,42,43
 164 464 164 464 131 444.5 c 128,-1,44
 98 425 98 425 83 410 c 0,45,46
 63 390 63 390 38 410 c 0,47,48
 28 418 28 418 31 424 c 128,-1,49
 34 430 34 430 59 450 c 0,50,51
 96 480 96 480 100 480 c 0,0,1
EndSplineSet
EndChar

StartChar: arrowupdnbse
Encoding: 8616 8616 146
Width: 407
Flags: W
LayerCount: 2
Fore
SplineSet
215 -40 m 0,0,1
 110 -40 110 -40 82.5 -38 c 128,-1,2
 55 -36 55 -36 43 -26 c 0,3,4
 13 -1 13 -1 54 17 c 0,5,6
 70 23 70 23 215 20 c 0,7,8
 276 18 276 18 306 16 c 128,-1,9
 336 14 336 14 356.5 9.5 c 128,-1,10
 377 5 377 5 376 -2.5 c 128,-1,11
 375 -10 375 -10 375 -23 c 1,12,13
 371 -35 371 -35 348.5 -37.5 c 128,-1,14
 326 -40 326 -40 215 -40 c 0,0,1
204 568 m 0,15,16
 215 563 215 563 261 530.5 c 128,-1,17
 307 498 307 498 320 492 c 0,18,19
 349 477 349 477 353 458 c 0,20,21
 355 441 355 441 342 441 c 0,22,23
 329 442 329 442 291 461 c 0,24,25
 250 481 250 481 247 478 c 0,26,27
 235 422 235 422 232 312.5 c 128,-1,28
 229 203 229 203 240 146 c 2,29,-1
 244 120 l 1,30,-1
 279 151 l 2,31,32
 344 210 344 210 353 189 c 0,33,34
 355 183 355 183 355 174 c 0,35,36
 355 160 355 160 297.5 99.5 c 128,-1,37
 240 39 240 39 222 35 c 0,38,39
 203 31 203 31 173 55 c 0,40,41
 165 62 165 62 138.5 82.5 c 128,-1,42
 112 103 112 103 101 112 c 0,43,44
 42 156 42 156 65 171 c 0,45,46
 72 175 72 175 176 94 c 0,47,48
 179 91 179 91 181 101 c 0,49,50
 186 125 186 125 184 283 c 0,51,52
 182 480 182 480 180 480 c 0,53,54
 175 480 175 480 146 463.5 c 128,-1,55
 117 447 117 447 100 434 c 0,56,57
 87 424 87 424 75.5 420.5 c 128,-1,58
 64 417 64 417 57.5 421 c 128,-1,59
 51 425 51 425 51 435 c 0,60,61
 50 438 50 438 58.5 448.5 c 128,-1,62
 67 459 67 459 81.5 471.5 c 128,-1,63
 96 484 96 484 110 496.5 c 128,-1,64
 124 509 124 509 135 518 c 128,-1,65
 146 527 146 527 147 528 c 0,66,67
 151 532 151 532 175.5 550 c 128,-1,68
 200 568 200 568 204 568 c 0,15,16
EndSplineSet
EndChar

StartChar: orthogonal
Encoding: 8735 8735 147
Width: 322
Flags: W
LayerCount: 2
Fore
SplineSet
241 168 m 0,0,1
 273 168 273 168 283.5 156 c 128,-1,2
 294 144 294 144 292 110 c 2,3,-1
 289 76 l 1,4,5
 55 67 55 67 36 70 c 0,6,7
 30 74 30 74 30 214 c 0,8,9
 30 356 30 356 43 370 c 128,-1,10
 56 384 56 384 70 376 c 0,11,12
 86 367 86 367 90 344 c 128,-1,13
 94 321 94 321 89 257 c 2,14,-1
 84 178 l 1,15,16
 102 177 102 177 161.5 172.5 c 128,-1,17
 221 168 221 168 241 168 c 0,0,1
EndSplineSet
EndChar

StartChar: SF100000
Encoding: 9472 9472 148
Width: 650
Flags: W
LayerCount: 2
Fore
SplineSet
571 308 m 0,0,1
 606 308 606 308 612 305 c 128,-1,2
 618 302 618 302 619 282 c 0,3,4
 621 264 621 264 616 258.5 c 128,-1,5
 611 253 611 253 591 249 c 0,6,7
 551 241 551 241 490.5 238.5 c 128,-1,8
 430 236 430 236 351 235.5 c 128,-1,9
 272 235 272 235 229 233 c 0,10,11
 104 227 104 227 68 231 c 128,-1,12
 32 235 32 235 30 254 c 0,13,14
 26 272 26 272 42 289 c 0,15,16
 51 299 51 299 74 301.5 c 128,-1,17
 97 304 97 304 188 305 c 0,18,19
 317 305 317 305 357 311 c 0,20,21
 391 318 391 318 453.5 318.5 c 128,-1,22
 516 319 516 319 520 314 c 0,23,24
 524 308 524 308 571 308 c 0,0,1
EndSplineSet
EndChar

StartChar: SF110000
Encoding: 9474 9474 149
Width: 141
Flags: W
LayerCount: 2
Fore
SplineSet
79 -64 m 2,0,1
 63 -64 63 -64 55.5 -60 c 128,-1,2
 48 -56 48 -56 42 -38 c 128,-1,3
 36 -20 36 -20 34.5 7.5 c 128,-1,4
 33 35 33 35 31 91 c 0,5,6
 27 215 27 215 34 421.5 c 128,-1,7
 41 628 41 628 49 638 c 0,8,9
 58 650 58 650 73 647.5 c 128,-1,10
 88 645 88 645 98 630 c 0,11,12
 106 623 106 623 109 541 c 128,-1,13
 112 459 112 459 111 350.5 c 128,-1,14
 110 242 110 242 108.5 162 c 128,-1,15
 107 82 107 82 106 46 c 2,16,-1
 101 -64 l 1,17,-1
 79 -64 l 2,0,1
EndSplineSet
EndChar

StartChar: SF030000
Encoding: 9488 9488 150
Width: 420
Flags: W
LayerCount: 2
Fore
SplineSet
318 312 m 0,0,1
 360 312 360 312 369 304 c 0,2,3
 385 291 385 291 387 212 c 0,4,5
 387 191 387 191 388 112 c 2,6,-1
 390 -68 l 1,7,-1
 342 -68 l 1,8,9
 343 -36 343 -36 345 40.5 c 128,-1,10
 347 117 347 117 348 175.5 c 128,-1,11
 349 234 349 234 349 266 c 1,12,-1
 290 259 l 1,13,14
 76 243 76 243 30 274 c 1,15,16
 57 297 57 297 72 300.5 c 128,-1,17
 87 304 87 304 168 303 c 0,18,19
 225 302 225 302 257.5 307 c 128,-1,20
 290 312 290 312 318 312 c 0,0,1
EndSplineSet
EndChar

StartChar: SF020000
Encoding: 9492 9492 151
Width: 365
Flags: W
LayerCount: 2
Fore
SplineSet
39 622 m 0,0,1
 54 650 54 650 71 630 c 0,2,3
 79 619 79 619 84 526.5 c 128,-1,4
 89 434 89 434 83 400 c 0,5,6
 76 358 76 358 81 298 c 1,7,-1
 207 298 l 2,8,9
 300 300 300 300 317 297.5 c 128,-1,10
 334 295 334 295 335 282 c 0,11,12
 336 270 336 270 326 267.5 c 128,-1,13
 316 265 316 265 259 261 c 0,14,15
 130 252 130 252 111 251 c 0,16,17
 41 246 41 246 37 255 c 0,18,19
 30 268 30 268 30.5 438 c 128,-1,20
 31 608 31 608 39 622 c 0,0,1
EndSplineSet
EndChar

StartChar: SF080000
Encoding: 9500 9500 152
Width: 390
Flags: W
LayerCount: 2
Fore
SplineSet
63 555 m 0,0,1
 69 548 69 548 71 475 c 128,-1,2
 73 402 73 402 79 396 c 0,3,4
 83 396 83 396 82.5 376.5 c 128,-1,5
 82 357 82 357 80 339.5 c 128,-1,6
 78 322 78 322 80 318 c 0,7,8
 94 317 94 317 210 313.5 c 128,-1,9
 326 310 326 310 355 308 c 1,10,11
 356 288 356 288 360 255 c 1,12,-1
 72 263 l 1,13,14
 66 247 66 247 71 100.5 c 128,-1,15
 76 -46 76 -46 73 -70 c 0,16,17
 68 -83 68 -83 54.5 -80 c 128,-1,18
 41 -77 41 -77 37 -62 c 0,19,20
 30 -35 30 -35 30 262 c 128,-1,21
 30 559 30 559 37 570 c 0,22,23
 42 579 42 579 50 574.5 c 128,-1,24
 58 570 58 570 63 555 c 0,0,1
EndSplineSet
EndChar

StartChar: SF090000
Encoding: 9508 9508 153
Width: 405
Flags: W
LayerCount: 2
Fore
SplineSet
330 597 m 0,0,1
 350 617 350 617 357 614 c 0,2,3
 367 611 367 611 372.5 584.5 c 128,-1,4
 378 558 378 558 374 532 c 0,5,6
 368 493 368 493 371 332 c 0,7,8
 375 42 375 42 373 -8 c 128,-1,9
 371 -58 371 -58 355 -62 c 0,10,11
 337 -66 337 -66 333 -62 c 0,12,13
 328 -43 328 -43 322.5 86.5 c 128,-1,14
 317 216 317 216 322 264 c 1,15,16
 310 266 310 266 241.5 266 c 128,-1,17
 173 266 173 266 110 268.5 c 128,-1,18
 47 271 47 271 38 279 c 0,19,20
 25 291 25 291 32 298 c 1,21,22
 51 304 51 304 321 308 c 1,23,24
 327 488 327 488 318 534 c 0,25,26
 313 562 313 562 315 573 c 128,-1,27
 317 584 317 584 330 597 c 0,0,1
EndSplineSet
EndChar

StartChar: SF060000
Encoding: 9516 9516 154
Width: 682
Flags: W
LayerCount: 2
Fore
SplineSet
652 280 m 0,0,1
 652 267 652 267 613.5 261.5 c 128,-1,2
 575 256 575 256 467 254 c 2,3,-1
 380 252 l 1,4,5
 380 39 380 39 383 -14 c 0,6,7
 385 -55 385 -55 383 -67.5 c 128,-1,8
 381 -80 381 -80 372 -80 c 0,9,10
 358 -80 358 -80 345 -70 c 0,11,12
 336 -63 336 -63 334 -36 c 128,-1,13
 332 -9 332 -9 334 98 c 2,14,-1
 336 256 l 1,15,-1
 103 256 l 2,16,17
 47 255 47 255 36 268 c 0,18,19
 24 280 24 280 31 286 c 0,20,21
 37 292 37 292 247 301 c 0,22,23
 389 307 389 307 512 306 c 128,-1,24
 635 305 635 305 647 298 c 0,25,26
 652 295 652 295 652 280 c 0,0,1
EndSplineSet
EndChar

StartChar: SF070000
Encoding: 9524 9524 155
Width: 663
Flags: W
LayerCount: 2
Fore
SplineSet
30 260 m 1,0,1
 27 305 27 305 47.5 312 c 128,-1,2
 68 319 68 319 153 311 c 0,3,4
 238 304 238 304 318 308 c 1,5,6
 318 605 318 605 325 630 c 0,7,8
 330 638 330 638 333 638 c 128,-1,9
 336 638 336 638 344 630 c 0,10,11
 369 607 369 607 370 425 c 2,12,-1
 370 302 l 1,13,14
 500 313 500 313 578 306 c 0,15,16
 595 304 595 304 604 302 c 128,-1,17
 613 300 613 300 619.5 299.5 c 128,-1,18
 626 299 626 299 628 293.5 c 128,-1,19
 630 288 630 288 631 285.5 c 128,-1,20
 632 283 632 283 632 271.5 c 128,-1,21
 632 260 632 260 632 254 c 1,22,23
 473 263 473 263 386 256 c 0,24,25
 354 250 354 250 297.5 254 c 128,-1,26
 241 258 241 258 172 258 c 2,27,-1
 30 260 l 1,0,1
EndSplineSet
EndChar

StartChar: SF050000
Encoding: 9532 9532 156
Width: 668
Flags: W
LayerCount: 2
Fore
SplineSet
638 264 m 0,0,1
 638 260 638 260 633.5 258 c 128,-1,2
 629 256 629 256 614 254.5 c 128,-1,3
 599 253 599 253 574 252.5 c 128,-1,4
 549 252 549 252 504 252 c 2,5,-1
 370 252 l 1,6,-1
 370 168 l 2,7,8
 370 92 370 92 359 10 c 128,-1,9
 348 -72 348 -72 337 -72 c 0,10,11
 331 -72 331 -72 325 -81 c 128,-1,12
 319 -90 319 -90 312 -86 c 0,13,14
 304 -81 304 -81 307 -14 c 0,15,16
 310 45 310 45 309.5 148 c 128,-1,17
 309 251 309 251 306 255 c 0,18,19
 299 258 299 258 180.5 263 c 128,-1,20
 62 268 62 268 56 269 c 0,21,22
 41 272 41 272 34.5 277.5 c 128,-1,23
 28 283 28 283 31 291 c 128,-1,24
 34 299 34 299 47 307 c 0,25,26
 58 314 58 314 81.5 314.5 c 128,-1,27
 105 315 105 315 166 310 c 0,28,29
 261 303 261 303 289 307 c 128,-1,30
 317 311 317 311 318 334 c 0,31,32
 326 538 326 538 326 562 c 0,33,34
 324 621 324 621 330 632 c 0,35,36
 341 649 341 649 358 628 c 1,37,38
 365 612 365 612 367 568.5 c 128,-1,39
 369 525 369 525 367 456.5 c 128,-1,40
 365 388 365 388 365 383 c 2,41,-1
 365 314 l 1,42,-1
 491 310 l 2,43,44
 571 307 571 307 595.5 303.5 c 128,-1,45
 620 300 620 300 627 291 c 0,46,47
 638 276 638 276 638 264 c 0,0,1
EndSplineSet
EndChar

